<svg viewBox="0 0 330 200" xmlns="http://www.w3.org/2000/svg"><g><g><g><g><g><line x1="51.5625" y1="177" x2="46.5625" y2="177" style="visibility: inherit;" fill="rgb(0, 0, 0)" stroke="rgb(204, 204, 204)" stroke-width="1px"></line><line x1="51.5625" y1="159.29999999999998" x2="46.5625" y2="159.29999999999998" style="visibility: inherit;" fill="rgb(0, 0, 0)" stroke="rgb(204, 204, 204)" stroke-width="1px"></line><line x1="51.5625" y1="141.6" x2="46.5625" y2="141.6" style="visibility: inherit;" fill="rgb(0, 0, 0)" stroke="rgb(204, 204, 204)" stroke-width="1px"></line><line x1="51.5625" y1="123.89999999999999" x2="46.5625" y2="123.89999999999999" style="visibility: inherit;" fill="rgb(0, 0, 0)" stroke="rgb(204, 204, 204)" stroke-width="1px"></line><line x1="51.5625" y1="106.20000000000002" x2="46.5625" y2="106.20000000000002" style="visibility: inherit;" fill="rgb(0, 0, 0)" stroke="rgb(204, 204, 204)" stroke-width="1px"></line><line x1="51.5625" y1="88.5" x2="46.5625" y2="88.5" style="visibility: inherit;" fill="rgb(0, 0, 0)" stroke="rgb(204, 204, 204)" stroke-width="1px"></line><line x1="51.5625" y1="70.79999999999998" x2="46.5625" y2="70.79999999999998" style="visibility: inherit;" fill="rgb(0, 0, 0)" stroke="rgb(204, 204, 204)" stroke-width="1px"></line><line x1="51.5625" y1="53.10000000000001" x2="46.5625" y2="53.10000000000001" style="visibility: inherit;" fill="rgb(0, 0, 0)" stroke="rgb(204, 204, 204)" stroke-width="1px"></line><line x1="51.5625" y1="35.39999999999999" x2="46.5625" y2="35.39999999999999" style="visibility: inherit;" fill="rgb(0, 0, 0)" stroke="rgb(204, 204, 204)" stroke-width="1px"></line><line x1="51.5625" y1="17.700000000000017" x2="46.5625" y2="17.700000000000017" style="visibility: inherit;" fill="rgb(0, 0, 0)" stroke="rgb(204, 204, 204)" stroke-width="1px"></line><line x1="51.5625" y1="0" x2="46.5625" y2="0" style="visibility: inherit;" fill="rgb(0, 0, 0)" stroke="rgb(204, 204, 204)" stroke-width="1px"></line></g><g transform="translate(41.5625, 0)"><text x="0" y="177" dx="0em" dy="0.3em" style="text-anchor: end; visibility: hidden; font-family: Roboto, sans-serif; font-size: 12px; font-weight: 200;" fill="rgb(33, 33, 33)" stroke="none" stroke-width="1px">0.5</text><text x="0" y="159.29999999999998" dx="0em" dy="0.3em" style="text-anchor: end; visibility: inherit; font-family: Roboto, sans-serif; font-size: 12px; font-weight: 200;" fill="rgb(33, 33, 33)" stroke="none" stroke-width="1px">0.55</text><text x="0" y="141.6" dx="0em" dy="0.3em" style="text-anchor: end; visibility: hidden; font-family: Roboto, sans-serif; font-size: 12px; font-weight: 200;" fill="rgb(33, 33, 33)" stroke="none" stroke-width="1px">0.6</text><text x="0" y="123.89999999999999" dx="0em" dy="0.3em" style="text-anchor: end; visibility: inherit; font-family: Roboto, sans-serif; font-size: 12px; font-weight: 200;" fill="rgb(33, 33, 33)" stroke="none" stroke-width="1px">0.65</text><text x="0" y="106.20000000000002" dx="0em" dy="0.3em" style="text-anchor: end; visibility: hidden; font-family: Roboto, sans-serif; font-size: 12px; font-weight: 200;" fill="rgb(33, 33, 33)" stroke="none" stroke-width="1px">0.7</text><text x="0" y="88.5" dx="0em" dy="0.3em" style="text-anchor: end; visibility: inherit; font-family: Roboto, sans-serif; font-size: 12px; font-weight: 200;" fill="rgb(33, 33, 33)" stroke="none" stroke-width="1px">0.75</text><text x="0" y="70.79999999999998" dx="0em" dy="0.3em" style="text-anchor: end; visibility: hidden; font-family: Roboto, sans-serif; font-size: 12px; font-weight: 200;" fill="rgb(33, 33, 33)" stroke="none" stroke-width="1px">0.8</text><text x="0" y="53.10000000000001" dx="0em" dy="0.3em" style="text-anchor: end; visibility: inherit; font-family: Roboto, sans-serif; font-size: 12px; font-weight: 200;" fill="rgb(33, 33, 33)" stroke="none" stroke-width="1px">0.85</text><text x="0" y="35.39999999999999" dx="0em" dy="0.3em" style="text-anchor: end; visibility: hidden; font-family: Roboto, sans-serif; font-size: 12px; font-weight: 200;" fill="rgb(33, 33, 33)" stroke="none" stroke-width="1px">0.9</text><text x="0" y="17.700000000000017" dx="0em" dy="0.3em" style="text-anchor: end; visibility: inherit; font-family: Roboto, sans-serif; font-size: 12px; font-weight: 200;" fill="rgb(33, 33, 33)" stroke="none" stroke-width="1px">0.95</text><text x="0" y="0" dx="0em" dy="0.3em" style="text-anchor: end; visibility: hidden; font-family: Roboto, sans-serif; font-size: 12px; font-weight: 200;" fill="rgb(33, 33, 33)" stroke="none" stroke-width="1px">1</text></g><line x1="51.5625" y1="0" x2="51.5625" y2="177" fill="rgb(0, 0, 0)" stroke="rgb(204, 204, 204)" stroke-width="1px"></line></g></g><g transform="translate(51, 0)" clip-path="url(#clip_0)"><clipPath id="clip_0"><rect width="278" height="177"></rect></clipPath><g><g><g><line x1="0" y1="0" x2="0" y2="177" fill="rgb(0, 0, 0)" stroke="rgb(66, 66, 66)" stroke-width="1px" opacity="0.25"></line><line x1="23.203125" y1="0" x2="23.203125" y2="177" fill="rgb(0, 0, 0)" stroke="rgb(66, 66, 66)" stroke-width="1px" opacity="0.25"></line><line x1="46.40625" y1="0" x2="46.40625" y2="177" fill="rgb(0, 0, 0)" stroke="rgb(66, 66, 66)" stroke-width="1px" opacity="0.25"></line><line x1="69.609375" y1="0" x2="69.609375" y2="177" fill="rgb(0, 0, 0)" stroke="rgb(66, 66, 66)" stroke-width="1px" opacity="0.25"></line><line x1="92.8125" y1="0" x2="92.8125" y2="177" fill="rgb(0, 0, 0)" stroke="rgb(66, 66, 66)" stroke-width="1px" opacity="0.25"></line><line x1="116.015625" y1="0" x2="116.015625" y2="177" fill="rgb(0, 0, 0)" stroke="rgb(66, 66, 66)" stroke-width="1px" opacity="0.25"></line><line x1="139.21875" y1="0" x2="139.21875" y2="177" fill="rgb(0, 0, 0)" stroke="rgb(66, 66, 66)" stroke-width="1px" opacity="0.25"></line><line x1="162.421875" y1="0" x2="162.421875" y2="177" fill="rgb(0, 0, 0)" stroke="rgb(66, 66, 66)" stroke-width="1px" opacity="0.25"></line><line x1="185.625" y1="0" x2="185.625" y2="177" fill="rgb(0, 0, 0)" stroke="rgb(66, 66, 66)" stroke-width="1px" opacity="0.25"></line><line x1="208.828125" y1="0" x2="208.828125" y2="177" fill="rgb(0, 0, 0)" stroke="rgb(66, 66, 66)" stroke-width="1px" opacity="0.25"></line><line x1="232.03125" y1="0" x2="232.03125" y2="177" fill="rgb(0, 0, 0)" stroke="rgb(66, 66, 66)" stroke-width="1px" opacity="0.25"></line><line x1="255.234375" y1="0" x2="255.234375" y2="177" fill="rgb(0, 0, 0)" stroke="rgb(66, 66, 66)" stroke-width="1px" opacity="0.25"></line><line x1="278.4375" y1="0" x2="278.4375" y2="177" fill="rgb(0, 0, 0)" stroke="rgb(66, 66, 66)" stroke-width="1px" opacity="0.25"></line></g><g><line x1="0" y1="177" x2="278.4375" y2="177" fill="rgb(0, 0, 0)" stroke="rgb(66, 66, 66)" stroke-width="1px" opacity="0.25"></line><line x1="0" y1="159.29999999999998" x2="278.4375" y2="159.29999999999998" fill="rgb(0, 0, 0)" stroke="rgb(66, 66, 66)" stroke-width="1px" opacity="0.25"></line><line x1="0" y1="141.6" x2="278.4375" y2="141.6" fill="rgb(0, 0, 0)" stroke="rgb(66, 66, 66)" stroke-width="1px" opacity="0.25"></line><line x1="0" y1="123.89999999999999" x2="278.4375" y2="123.89999999999999" fill="rgb(0, 0, 0)" stroke="rgb(66, 66, 66)" stroke-width="1px" opacity="0.25"></line><line x1="0" y1="106.20000000000002" x2="278.4375" y2="106.20000000000002" fill="rgb(0, 0, 0)" stroke="rgb(66, 66, 66)" stroke-width="1px" opacity="0.25"></line><line x1="0" y1="88.5" x2="278.4375" y2="88.5" fill="rgb(0, 0, 0)" stroke="rgb(66, 66, 66)" stroke-width="1px" opacity="0.25"></line><line x1="0" y1="70.79999999999998" x2="278.4375" y2="70.79999999999998" fill="rgb(0, 0, 0)" stroke="rgb(66, 66, 66)" stroke-width="1px" opacity="0.25"></line><line x1="0" y1="53.10000000000001" x2="278.4375" y2="53.10000000000001" fill="rgb(0, 0, 0)" stroke="rgb(66, 66, 66)" stroke-width="1px" opacity="0.25"></line><line x1="0" y1="35.39999999999999" x2="278.4375" y2="35.39999999999999" fill="rgb(0, 0, 0)" stroke="rgb(66, 66, 66)" stroke-width="1px" opacity="0.25"></line><line x1="0" y1="17.700000000000017" x2="278.4375" y2="17.700000000000017" fill="rgb(0, 0, 0)" stroke="rgb(66, 66, 66)" stroke-width="1px" opacity="0.25"></line><line x1="0" y1="0" x2="278.4375" y2="0" fill="rgb(0, 0, 0)" stroke="rgb(66, 66, 66)" stroke-width="1px" opacity="0.25"></line></g></g></g><g><g><line x1="0" y1="354" x2="278.4375" y2="354" fill="rgb(0, 0, 0)" stroke="rgb(153, 153, 153)" stroke-width="1.5px"></line></g></g><g><g><line x1="23.203125" y1="0" x2="23.203125" y2="177" fill="rgb(0, 0, 0)" stroke="rgb(153, 153, 153)" stroke-width="1.5px"></line></g></g><g><g><g><g><g><path stroke="rgb(51, 187, 238)" stroke-width="2px" d="M23.203125,104.72500562667847L23.43515625,98.28062799108702L23.6671875,95.05657234937104L23.89921875,93.4758176435704L24.13125,92.39367295251573L24.36328125,91.87534364766945L24.5953125,91.51720926464148L24.82734375,91.26454942256143L25.059375,91.09648875952357L25.29140625,90.97062922657798L25.523437499999996,90.74631408142237L25.75546875,90.56663257398338L25.9875,90.42466008783323L26.21953125,90.32484772172216L26.4515625,90.31448706043423L26.683593750000004,90.22267545067886L26.915625,90.15733973476596L27.14765625,90.13889415875495L27.3796875,90.11061021694546L27.61171875,90.09866224964698L27.84375,90.07278310355062L28.07578125,90.00175909553523L28.3078125,89.98656553421539L28.53984375,89.85411724450398L28.771875,89.87615472393159L29.00390625,89.77176747352856L29.2359375,89.74239060133797L29.46796875,89.72013622045476L29.700000000000003,89.73831944675995L29.932031249999998,89.714357120498L30.1640625,89.66899393759455L30.39609375,89.64585502777167L30.628125,89.59219710241996L30.860156250000003,89.54880117389482L31.092187499999998,89.51619820350064L31.32421875,89.4948713912455L31.55625,89.4905418664983L31.78828125,89.47740772887983L32.0203125,89.43842117684011L32.25234375,89.40140819954719L32.484375,89.33104158949772L32.71640625,89.26050251641327L32.9484375,89.21080627986098L33.18046875,89.13130279948543L33.4125,89.04637966869569L33.64453125,89.02940580721966L33.8765625,89.05669968957015L34.10859375,88.98113027794149L34.340625,88.92977533603546L34.57265625,88.8245018822095L34.8046875,88.70913823186096L35.03671875,88.59126052833678L35.268750000000004,88.50967827705942L35.50078125,88.39792719428134L35.7328125,88.37524461091782L35.96484375000001,88.2838991880167L36.196875,88.20241833533528L36.42890625,88.1256769834828L36.660937499999996,88.0232143636927L36.89296875,87.91431232233408L37.125,87.7849495769021L37.35703125,87.6722568411392L37.589062500000004,87.57810322509636L37.82109375,87.44898680957046L38.053124999999994,87.36497846501221L38.28515625,87.25656335925018L38.5171875,87.14648354957167L38.74921875,87.02652039542427L38.98125,86.93146529857816L39.21328125,86.87978627537856L39.4453125,86.86335627636932L39.67734375,86.77102726271094L39.909375000000004,86.65059832492804L40.14140625,86.62805900082981L40.373437499999994,86.55816493359573L40.60546875,86.46871672796436L40.8375,86.4349345821652L41.06953125,86.39301261391358L41.3015625,86.35968228999798L41.53359375,86.27457379391677L41.765625,86.19461979154391L41.997656250000006,86.08533796120457L42.229687500000004,86.03170057311578L42.461718749999996,85.92335619895017L42.693749999999994,85.79559680636626L42.92578125,85.68443762754288L43.1578125,85.58582991990336L43.38984375,85.5712610084656L43.621875,85.47110108567624L43.85390625,85.33063714692439L44.0859375,85.2536267583942L44.317968750000006,85.1702548276254L44.550000000000004,85.11376332250029L44.782031249999996,84.99219540361429L45.014062499999994,84.89935007714179L45.24609375,84.84432813976845L45.478125,84.76618366340637L45.71015625,84.63482519018551L45.9421875,84.49072759357782L46.17421875,84.35749881607201L46.40625,84.28238537873739L46.638281250000006,84.18778258354435L46.8703125,84.13139020795492L47.102343749999996,84.03383876369308L47.334375,83.97162033455149L47.56640625,83.87317224627856L47.7984375,83.74626063325492L48.03046875,83.7951513241387L48.2625,83.73164548754409L48.49453125,83.67920593809359L48.7265625,83.62292882884421L48.958593750000006,83.46707917345101L49.190625,83.34143254828207L49.422656249999996,83.27589239337026L49.6546875,83.18530249456055L49.88671875,83.09346681554912L50.11875,82.99152225747349L50.350781250000004,82.86731146755625L50.5828125,82.75012396318284L50.81484375,82.62224922774145L51.04687499999999,82.47053206671765L51.27890625,82.365668454822L51.5109375,82.27599843944947L51.742968749999996,82.16034707769488L51.975,82.02443802825411L52.20703125,81.92005773765554L52.4390625,81.75388327209488L52.671093750000004,81.75595013411244L52.903125,81.76080047133642L53.13515625,81.68690798069521L53.36718750000001,81.57791372676783L53.59921875,81.46856970211626L53.83125,81.36832673824323L54.063281249999996,81.22937125730482L54.2953125,81.11263880890792L54.52734375,80.98192957783509L54.759375,80.83916574236022L54.991406250000004,80.74794107951786L55.2234375,80.6500658154632L55.455468749999994,80.5131137967924L55.6875,80.54769111733704L55.91953125,80.46525708260283L56.1515625,80.38953780709085L56.38359375,80.25879146677198L56.615625,80.11946852905983L56.84765625,80.00314435713811L57.0796875,79.88655141348433L57.311718750000004,79.77339663569157L57.54375,79.64672299161955L57.775781249999994,79.47993935667849L58.0078125,79.36404386634597L58.23984375,79.19762282768224L58.471875,79.00768884366748L58.70390625,78.82953321325184L58.9359375,78.64217673618674L59.16796875,78.48512124171695L59.400000000000006,78.33097374698085L59.632031250000004,78.19976136618865L59.864062499999996,78.01711251676247L60.096093749999994,77.80954366640685L60.328125,77.5938394571318L60.56015625,77.40735047233429L60.7921875,77.2399041113344L61.02421875,77.09827086720314L61.25625,76.90406278854113L61.48828125,76.72128780643122L61.720312500000006,76.52959747927818L61.952343750000004,76.33416355766539L62.184374999999996,76.11699179653884L62.416406249999994,75.87894052203033L62.6484375,75.71171329838234L62.88046875,75.51649641387678L63.1125,75.29424324813732L63.34453125,75.06870543934497L63.5765625,74.84735622053802L63.80859375,74.64296605697444L64.040625,74.40793420980397L64.27265625,74.23424988397612L64.5046875,74.0109532781479L64.73671875000001,73.86965663796758L64.96875,73.66430395850105L65.20078125,73.44715157396018L65.4328125,73.2578405328682L65.66484375,73.06627089390388L65.896875,72.90741772052402L66.12890625,72.7512195518143L66.3609375,72.53912326834995L66.59296875,72.30770358338106L66.825,72.05388027225915L67.05703125000001,71.87755278795346L67.2890625,71.74921126323959L67.52109374999999,71.55644537751698L67.753125,71.33898286349309L67.98515625,71.14352828657442L68.2171875,70.91061216036789L68.44921875,70.70744731369327L68.68125,70.51980312857879L68.91328125,70.3270390195608L69.1453125,70.12164577594935L69.37734375000001,69.91232173574328L69.609375,69.66369266577713L69.84140625,69.4131170967959L70.0734375,69.18840534660015L70.30546875,68.97131032169071L70.53750000000001,68.72556368272016L70.76953125,68.47220356410699L71.0015625,68.24738605631299L71.23359375000001,68.01096106633402L71.465625,67.81818011110519L71.69765625000001,67.64790845546581L71.92968750000001,67.45373389908522L72.16171874999999,67.20437491628017L72.39375,66.96607070027278L72.62578124999999,66.72243392248363L72.8578125,66.47724051408437L73.08984375,66.19119814517457L73.32187499999999,65.94569900519181L73.55390625,65.73464442085611L73.7859375,65.49167461947447L74.01796875,65.24759408703196L74.25,65.01987937879476L74.48203125,64.7793856975684L74.7140625,64.50473609611272L74.94609375,64.24630427803923L75.17812500000001,64.06561538674701L75.41015625,63.8474047825689L75.6421875,63.60632075828318L75.87421875000001,63.30437895123903L76.10624999999999,63.02662016944921L76.33828125,62.77089972269141L76.5703125,62.494218000428845L76.80234374999999,62.194127306586346L77.034375,61.90855872447909L77.26640625,61.610147868206205L77.4984375,61.33479663824757L77.73046875,61.04469291039035L77.9625,60.76575791755796L78.19453125,60.44958996656953L78.4265625,60.18361891528651L78.65859375,59.94243666156594L78.890625,59.70054145594629L79.12265625,59.43503173678548L79.3546875,59.14531187679563L79.58671875,58.858589484605545L79.81875000000001,58.57258390766485L80.05078125,58.34232377812762L80.2828125,58.08885803616673L80.51484375000001,57.85848608220618L80.74687499999999,57.613426749070804L80.97890625,57.45462894764942L81.2109375,57.24780482090574L81.44296874999999,57.02782991483439L81.675,56.82955430404129L81.90703125,56.63493084565296L82.1390625,56.407064993761644L82.37109375,56.188953423277304L82.603125,55.9596418574835L82.83515625,55.722367612772544L83.0671875,55.5112994193694L83.29921875000001,55.277918071496025L83.53125,55.02426483742169L83.76328125,54.75411939694543L83.99531250000001,54.52105572996815L84.22734375,54.24924610736264L84.45937500000001,53.99289605726352L84.69140624999999,53.764577026399635L84.92343749999999,53.505015460354514L85.15546875,53.2594142172942L85.38749999999999,53.029358224552524L85.61953125,52.80456384706306L85.8515625,52.547254675994715L86.08359374999999,52.29638349748806L86.315625,52.06281822788005L86.54765625,51.8244688454713L86.7796875,51.58226598376694L87.01171875,51.3432463101295L87.24375,51.07330677750887L87.47578125,50.857481357137786L87.7078125,50.63798803286081L87.93984375000001,50.414433246033454L88.171875,50.189041819875584L88.40390625,49.970540190238296L88.63593750000001,49.77015600704239L88.86796875,49.53984931972291L89.10000000000001,49.3425405607039L89.33203125000001,49.19520782574637L89.56406249999999,48.988333402528596L89.79609375,48.78246998393988L90.02812499999999,48.581072305227345L90.26015625,48.37455601958847L90.4921875,48.15561966797132L90.72421874999999,47.946908760514205L90.95625,47.74397767303636L91.18828125,47.53940997589767L91.4203125,47.29520741322805L91.65234375,47.11329465004017L91.884375,46.92692269928312L92.11640625,46.746062115279244L92.3484375,46.56116461278377L92.58046875000001,46.347717362447774L92.8125,46.114230783234945L93.04453125,45.868681987255066L93.27656250000001,45.63788076048161L93.50859374999999,45.41520650467193L93.740625,45.21388773195764L93.97265625,44.99244115679911L94.20468749999999,44.791025479460785L94.43671875,44.57636676165029L94.66875,44.334889159387195L94.90078125,44.15307360212756L95.1328125,43.93253303089933L95.36484375,43.69212554504182L95.596875,43.484309642935074L95.82890625,43.24366553868162L96.0609375,43.027884639358064L96.29296875,42.82428468240353L96.525,42.58186787768439L96.75703125,42.356181040240436L96.9890625,42.1461803578354L97.22109375000001,41.95467596965993L97.453125,41.776339097981634L97.68515625,41.559416022451394L97.91718750000001,41.35208593539288L98.14921874999999,41.169155528245376L98.38125,40.99714564909535L98.61328125,40.837636573895416L98.84531249999999,40.65218094597438L99.07734375,40.46617030017722L99.309375,40.27493170939793L99.54140625,40.10403147865066L99.7734375,39.93454318916131L100.00546875,39.75115677215286L100.2375,39.612630452011736L100.46953125,39.44544943857626L100.70156250000001,39.236775270231334L100.93359375,39.06045523318315L101.165625,38.877117150003095L101.39765625000001,38.695740077543746L101.6296875,38.51291149580884L101.86171875000001,38.33034142686409L102.09374999999999,38.16284801008898L102.32578124999999,37.99460134119633L102.5578125,37.83703540858326L102.78984374999999,37.673956210569315L103.021875,37.50204048962934L103.25390625,37.32561237743316L103.48593749999999,37.15697738690756L103.71796875,37.001542452273625L103.95,36.81101131529749L104.18203125,36.630947572543754L104.4140625,36.50724761866901L104.64609375,36.32156011583059L104.878125,36.13826203673454L105.11015625,35.94467459452365L105.34218750000001,35.7830708593886L105.57421875,35.61980442218977L105.80625,35.46795570801572L106.03828125000001,35.334982843659255L106.2703125,35.20299299394481L106.50234375000001,35.02524211100522L106.73437500000001,34.87335773128423L106.96640624999999,34.730648734556986L107.1984375,34.57598209425002L107.43046874999999,34.398551712786805L107.6625,34.2507387510749L107.89453125,34.082202795770584L108.12656249999999,33.93056744971847L108.35859375,33.76960260307267L108.590625,33.60360840539025L108.82265625,33.442296597040766L109.0546875,33.283097574661745L109.28671875,33.145714384476534L109.51875,33.03159094798933L109.75078125,32.89726875597185L109.98281250000001,32.759740346347776L110.21484375,32.66306606215477L110.446875,32.616450485486226L110.67890625000001,32.513323920431645L110.91093749999999,32.36183236395637L111.14296875,32.26261275789261L111.375,32.151027515068456L111.60703124999999,32.016739874351025L111.8390625,31.872550597107487L112.07109375,31.724424424520848L112.303125,31.59416287459993L112.53515625,31.458983706788946L112.7671875,31.30388090897954L112.99921875,31.180085086698327L113.23125,31.04461689211083L113.46328125,30.916828786872394L113.6953125,30.771145086827442L113.92734375,30.639093906783557L114.159375,30.499224416062834L114.39140625,30.35788460599418L114.62343750000001,30.216759914233283L114.85546875,30.12970862770535L115.0875,30.035629454841363L115.31953125000001,29.923744728601452L115.55156249999999,29.848489978410516L115.78359375,29.739804135750898L116.015625,29.62056480971153L116.24765624999999,29.500058408778507L116.4796875,29.387888814081336L116.71171875,29.25395045224809L116.94375,29.15015989977149L117.17578125,29.03077255717441L117.4078125,28.904286075053037L117.63984375,28.799521904972142L117.871875,28.658767244928512L118.10390625000001,28.51780072177482L118.3359375,28.41285257058419L118.56796875,28.303575607658633L118.80000000000001,28.158377667252132L119.03203125,28.022585912600146L119.26406250000001,27.90567306604822L119.49609374999999,27.783308499997034L119.72812499999999,27.6418206518164L119.96015625,27.56543165831419L120.19218749999999,27.486502648015808L120.42421875,27.427098727875155L120.65625,27.31841458731812L120.88828124999999,27.23745431496375L121.1203125,27.134466863900887L121.35234375,27.040850536237933L121.584375,26.93365373688026L121.81640625,26.824235271380406L122.0484375,26.711372005389336L122.28046875,26.633727120818552L122.5125,26.537776492177507L122.74453125000001,26.44820949610903L122.9765625,26.320950443290094L123.20859375,26.19499770969558L123.44062500000001,26.097732095479554L123.67265625,25.987768803785286L123.90468750000001,25.871464209795338L124.13671875000001,25.736851522945525L124.36874999999999,25.604033767820574L124.60078125,25.483362225325745L124.83281249999999,25.384249961117185L125.06484375,25.31601155954724L125.296875,25.21530003239919L125.52890624999999,25.129301454048672L125.7609375,25.031332120133747L125.99296875,24.927319054232658L126.225,24.806548635206322L126.45703125,24.696959376481015L126.6890625,24.604651094170862L126.92109375,24.51991571218593L127.153125,24.450545854518904L127.38515625000001,24.37981390939764L127.6171875,24.2882676193339L127.84921875,24.204282691312955L128.08125,24.117428876981524L128.31328125,24.03601648894998L128.5453125,23.941773293838462L128.77734375,23.852631632074818L129.009375,23.773091871787322L129.24140625,23.652562758727434L129.47343750000002,23.550644000180732L129.70546875,23.47045420123964L129.9375,23.410114381064776L130.16953125,23.346666249959917L130.4015625,23.285519693434896L130.63359375,23.215482850397613L130.865625,23.1420238123262L131.09765625,23.051117221743567L131.3296875,22.965271640935434L131.56171874999998,22.869550089617434L131.79375,22.80332980808152L132.02578125,22.748531911006822L132.2578125,22.681477698151664L132.48984375,22.607252847116854L132.721875,22.53956913029506L132.95390625,22.47711971591752L133.1859375,22.40828081479415L133.41796875,22.29510562071041L133.65,22.21365378447915L133.88203125,22.15409847865349L134.11406250000002,22.114976127373794L134.34609375,22.04568633277946L134.578125,21.983708728660964L134.81015625,21.907080732049433L135.04218749999998,21.84568420736877L135.27421875,21.77500130839438L135.50625,21.788850110800542L135.73828125,21.815769366914378L135.9703125,21.786685568813773L136.20234375,21.735194048938553L136.434375,21.695782001008666L136.66640625,21.650166322697196L136.8984375,21.613679953927786L137.13046875,21.538361100452263L137.3625,21.4860881312562L137.59453125,21.421554629168693L137.8265625,21.33745954282423L138.05859375,21.29134587000682L138.290625,21.224661394894525L138.52265625,21.136790930048285L138.75468750000002,21.060122422801406L138.98671875,20.965671419748375L139.21875,20.901870476319615L139.45078125,20.823457848332666L139.6828125,20.76357061670889L139.91484375,20.712948730422674L140.146875,20.65294437841876L140.37890625,20.588187927730356L140.6109375,20.51295635426499L140.84296875,20.45909752813657L141.07500000000002,20.403310616659404L141.30703125,20.348500489902673L141.5390625,20.29919059948335L141.77109375,20.22977357231269L142.003125,20.173009569172443L142.23515625000002,20.123001060717595L142.46718750000002,20.0524835889223L142.69921875,20.012345416303926L142.93125,19.928940593612296L143.16328125,19.87398178111379L143.39531250000002,19.895790824199956L143.62734375000002,19.898430382816674L143.85937500000003,19.89939565585224L144.09140624999998,19.885935019015403L144.32343749999998,19.872610406823014L144.55546875,19.852418951346053L144.7875,19.829960500762816L145.01953125,19.79084491553537L145.25156249999998,19.74718296033879L145.48359374999998,19.693667935126626L145.715625,19.66292760570185L145.94765625,19.5975011404962L146.1796875,19.522854502507915L146.41171875,19.444844695637343L146.64374999999998,19.39890877028812L146.87578125,19.3320310412371L147.1078125,19.254714421120248L147.33984375,19.193407546497504L147.571875,19.157003041651702L147.80390625,19.115615387817723L148.0359375,19.059417964451157L148.26796875,18.99720319963153L148.5,18.92450515676996L148.73203125,18.859947212796257L148.9640625,18.792748686677346L149.19609375000002,18.72046729251731L149.428125,18.66208099183905L149.66015625,18.60510636230222L149.8921875,18.531015599408487L150.12421875,18.467133888139283L150.35625000000002,18.401016478865092L150.58828125000002,18.31664313533033L150.8203125,18.273020238113517L151.05234375,18.230659730702904L151.284375,18.18255651860144L151.51640625000002,18.110260361635387L151.74843750000002,18.042805435079295L151.98046874999997,17.99535944776855L152.21249999999998,17.95373777101853L152.44453124999998,17.91089051722362L152.6765625,17.903016803638412L152.90859375,17.84834554809117L153.140625,17.76996510975508L153.37265624999998,17.70306449443718L153.60468749999998,17.64793885947636L153.83671875,17.606524689798796L154.06875,17.558538498407312L154.30078125,17.51884653331519L154.5328125,17.470921066030257L154.76484374999998,17.409501233662045L154.996875,17.33677844837886L155.22890625,17.305482485585873L155.4609375,17.34890068359757L155.69296875,17.318718360680055L155.925,17.2670557360245L156.15703125,17.23399713860767L156.3890625,17.204148212916365L156.62109375,17.1655580028904L156.853125,17.11256123192294L157.08515625,17.063385389927767L157.3171875,17.01059483889688L157.54921875,16.968197575832296L157.78125,16.927048691865235L158.01328125,16.866590127227532L158.2453125,16.81413561451256L158.47734375000002,16.737144836488028L158.709375,16.760769954226863L158.94140625,16.75991691888635L159.1734375,16.75332043850704L159.40546875,16.706939168144544L159.63750000000002,16.652396871185363L159.86953125000002,16.60826239325594L160.1015625,16.547318037452513L160.33359375,16.471786962580317L160.565625,16.421661961950207L160.79765625000002,16.37039775416285L161.02968750000002,16.33566837732041L161.26171875000003,16.29841293009104L161.49374999999998,16.25372769308133L161.72578124999998,16.214420344815693L161.9578125,16.168936457142777L162.18984375,16.1046062322865L162.421875,16.068439281002195L162.65390624999998,15.988281208898112L162.88593749999998,15.915499392778452L163.11796875,15.841806147180646L163.35,15.77829832277734L163.58203125,15.715017992379442L163.8140625,15.665924396828508L164.04609374999998,15.639087551661978L164.278125,15.616626490780025L164.51015625,15.573039024367704L164.7421875,15.518392261660468L164.97421875,15.45485069089432L165.20625,15.40960261277267L165.43828125,15.347153917452658L165.6703125,15.279584374614469L165.90234375,15.236505790382104L166.134375,15.180722182925415L166.36640625,15.125498666546928L166.59843750000002,15.36025879448826L166.83046875,15.618935782821115L167.0625,15.853258374536827L167.29453125,15.978495073865512L167.5265625,16.02447837749471L167.75859375000002,16.003909937358873L167.99062500000002,16.00037802919592L168.22265625,15.957885890731658L168.4546875,15.913357360829977L168.68671875,15.85614075692483L168.91875000000002,15.815506429731315L169.15078125000002,15.767891659411315L169.38281249999997,15.701874280721146L169.61484374999998,15.636108915060213L169.84687499999998,15.588652067902446L170.07890625,15.535925344738795L170.3109375,15.491936196246025L170.54296875,15.451671602502858L170.77499999999998,15.410990112092756L171.00703124999998,15.346913993847995L171.2390625,15.299485807268605L171.47109375,15.255816612981178L171.703125,15.213406132814068L171.93515625,15.156647822414033L172.16718749999998,15.101690089576593L172.39921875,15.068211784006571L172.63125,15.033427729620225L172.86328125,14.971909947849932L173.0953125,14.892133703095173L173.32734375,14.825057127801916L173.559375,14.76973212806451L173.79140625,14.719475535673329L174.0234375,14.6672610539773L174.25546875,14.61803209302141L174.4875,14.57052784730519L174.71953125,14.523910105659843L174.9515625,14.475298278574044L175.18359375,14.43455891434048L175.415625,14.406536368127233L175.64765625,14.367307287069405L175.87968750000002,14.333804919694584L176.11171875,14.276022831662075L176.34375,14.244666279075673L176.57578125,14.23946975702586L176.8078125,14.235145907192798L177.03984375000002,14.194764227030657L177.27187500000002,14.152736210559837L177.50390625,14.129179762612742L177.7359375,14.079604967960941L177.96796875,14.04734614453923L178.20000000000002,14.014180132936154L178.43203125000002,13.975193231861187L178.66406250000003,13.936187089247662L178.89609374999998,13.889777971405735L179.12812499999998,13.842603524725241L179.36015625,13.801234287925814L179.5921875,13.74674366874655L179.82421875,13.694439863111983L180.05624999999998,13.646351801588759L180.28828124999998,13.624996802017384L180.5203125,13.60467602604605L180.75234375,13.589891132182222L180.984375,13.55925829634645L181.21640625,13.512936290582596L181.44843749999998,13.482254075418645L181.68046875,13.45228950765572L181.9125,13.408680258165775L182.14453125,13.393807560935336L182.3765625,13.358577286114892L182.60859375,13.342155777016371L182.840625,13.327129095093134L183.07265625,13.313073298496978L183.3046875,13.304899912299753L183.53671875,13.283684751197717L183.76875,13.231924045195088L184.00078125000002,13.183962668475349L184.2328125,13.134841439888541L184.46484375,13.090723432805843L184.696875,13.037205228077758L184.92890625,12.98217272753078L185.16093750000002,12.9568076356454L185.39296875000002,12.909141941497044L185.625,12.86851503100156L185.85703125,12.844288168035146L186.0890625,12.834656472482134L186.32109375000002,12.813229344743302L186.55312500000002,12.785045677514068L186.78515624999997,12.763295224609447L187.01718749999998,12.731101108055062L187.24921874999998,12.684877577619813L187.48125,12.64731803855277L187.71328125,12.622846199169985L187.9453125,12.59205872242687L188.17734374999998,12.56609009268255L188.40937499999998,12.52562016380284L188.64140625,12.488425880958554L188.8734375,12.465545122647953L189.10546875,12.43264281704491L189.3375,12.37423832902947L189.56953124999998,12.336919842696114L189.8015625,12.284394454969464L190.03359375,12.25371599187258L190.265625,12.215554338857915L190.49765625,12.181874944046651L190.7296875,12.151812999978656L190.96171875,12.117542004767104L191.19375,12.066804092002855L191.42578125,12.043224158418546L191.6578125,12.017830363436621L191.88984375,12.008680743765694L192.121875,11.995112805506157L192.35390625,11.975530909895062L192.5859375,11.950815156013654L192.81796875,11.916507343649002L193.05,11.887872696988252L193.28203125000002,11.836565997047316L193.5140625,11.790282765282239L193.74609375,11.775620850524067L193.978125,11.761925757311259L194.21015625,11.719670091083744L194.44218750000002,11.686036777623599L194.67421875000002,11.664629053975213L194.90625,11.658194248992903L195.13828125,11.64034514736622L195.3703125,11.620214970187739L195.60234375000002,11.696625388572025L195.83437500000002,11.724716571083622L196.06640625000003,11.711531522295804L196.29843749999998,11.693969024881534L196.53046874999998,11.664694027263565L196.7625,11.616854759095805L196.99453125,11.578512927149415L197.2265625,11.540145152190771L197.45859374999998,11.501341504040298L197.69062499999998,11.473584582938027L197.92265625,11.435037311865816L198.1546875,11.416142619958961L198.38671875,11.422032849038345L198.61875,11.403678423256634L198.85078124999998,11.40026496148537L199.0828125,11.36163249698836L199.31484375,11.334044644274224L199.546875,11.294025492449332L199.77890625,11.249077901171992L200.0109375,11.202530647079215L200.24296875,11.167107009181278L200.475,11.153763207028648L200.70703125,11.146291613984909L200.9390625,11.120449093530196L201.17109375,11.083797768053202L201.40312500000002,11.040544878354376L201.63515625,11.010841755808098L201.8671875,10.994552724279746L202.09921875,10.971048474357882L202.33125,10.95392787537645L202.56328125000002,10.917303886367002L202.79531250000002,10.883915548923921L203.02734375,10.838974638310397L203.259375,10.79940223314034L203.49140625,10.788098206843014L203.72343750000002,10.743706472753889L203.95546875000002,10.718613628168056L204.18749999999997,10.684344741280292L204.41953124999998,10.648369414730265L204.65156249999998,10.657840625205674L204.88359375,10.947163385176582L205.115625,11.006109701820796L205.34765625,11.023888551159626L205.57968749999998,11.020176095856067L205.81171874999998,11.005844138950852L206.04375,10.974031147535062L206.27578125,10.957701665938412L206.5078125,10.944814643461326L206.73984375,10.929597356781333L206.97187499999998,10.898137643600908L207.20390625,10.893633915871503L207.4359375,10.88220755964331L207.66796875,10.863518181918487L207.9,10.831080523841056L208.13203125,10.792409728080841L208.3640625,10.77256953701246L208.59609375,10.738173136160366L208.828125,10.707399646732853L209.06015625,10.676114302999624L209.2921875,10.655388440431123L209.52421875,10.625853235668144L209.75625,10.597433130790424L209.98828125,10.586510974420133L210.2203125,10.56873088848278L210.45234375,10.529406929645658L210.68437500000002,10.488017353136481L210.91640625,10.466714365945245L211.1484375,10.428411214102889L211.38046875,10.410573319530398L211.6125,10.389635297394536L211.84453125000002,10.401693604064455L212.07656250000002,10.396828014563402L212.30859375,10.382585030908668L212.540625,10.36848455487453L212.77265625,10.361492368919421L213.00468750000002,10.335717720019867L213.23671875000002,10.318807398443385L213.46875000000003,10.299607472107951L213.70078124999998,10.284697909938654L213.93281249999998,10.265429397779156L214.16484375,10.25004204631449L214.396875,10.215136997326521L214.62890625,10.188777619892324L214.86093749999998,10.167190043252184L215.09296874999998,10.147867549543053L215.325,10.12423031951215L215.55703125,10.102059156701815L215.7890625,10.068224938377996L216.02109375,10.051122087973912L216.25312499999998,10.020666309555326L216.48515625,9.986007227531516L216.7171875,9.95415381778984L216.94921875,9.9672888304039L217.18125,9.96226076157379L217.41328125,9.940480499989329L217.6453125,9.914410396422772L217.87734375,9.883273463291088L218.109375,9.843432170176392L218.34140625,9.815054339078502L218.5734375,9.812368485134249L218.80546875000002,9.789219225153047L219.0375,9.760564119014543L219.26953125,9.736703565152304L219.5015625,9.714311248819403L219.73359375,9.6798488800714L219.96562500000002,9.653107611429924L220.19765625000002,9.642616250506357L220.4296875,9.631000318027517L220.66171875,9.594092969661649L220.89375,9.580913415538548L221.12578125000002,9.552293278756897L221.35781250000002,9.547727781317333L221.58984374999997,9.533372896967226L221.82187499999998,9.531455467506234L222.05390624999998,9.49964210324268L222.2859375,9.486587700242737L222.51796875,9.479810992206232L222.75,9.459988640675153L222.98203124999998,9.430939251084556L223.21406249999998,9.423079826368328L223.44609375,9.393989855079958L223.678125,9.362732314189428L223.91015625,9.350637774483358L224.1421875,9.338664220131253L224.37421874999998,9.306730692696172L224.60625,9.289049519166827L224.83828125,9.265808041240057L225.0703125,9.250175314686254L225.30234375,9.246582678559157L225.534375,9.260236994812514L225.76640625,9.268017800131542L225.9984375,9.264246728768502L226.23046875,9.242073181642555L226.4625,9.212745241549811L226.69453125,9.195184660833549L226.9265625,9.16960413040173L227.15859375,9.171734807115964L227.390625,9.16892673662398L227.62265625,9.162868610633708L227.8546875,9.160968862894398L228.08671875000002,9.157039230814965L228.31875,9.132659852167484L228.55078125,9.122456896592182L228.7828125,9.104979908286298L229.01484375,9.098741751010753L229.24687500000002,9.084780315887645L229.47890625000002,9.077924775820861L229.7109375,9.068679125353535L229.94296875,9.064033500748103L230.175,9.047960587254922L230.40703125000002,9.024262817706765L230.63906250000002,8.999572643883312L230.87109375000003,8.973490391060313L231.10312499999998,8.951356916513152L231.33515624999998,8.931493680109048L231.5671875,8.924941831322766L231.79921875,8.923782640030982L232.03125,8.93001079206428L232.26328124999998,9.021408735379794L232.49531249999998,9.062720171560175L232.72734375,9.099520728442876L232.959375,9.113006223848451L233.19140625,9.125947025831085L233.4234375,9.120728742364577L233.65546874999998,9.114743038230596L233.8875,9.094885031784104L234.11953125,9.094484657655984L234.3515625,9.071141465825376L234.58359375,9.06155407700033L234.815625,9.047964951321513L235.04765625,9.028774899045283L235.2796875,9.018791639782112L235.51171875,9.00563022320077L235.74375,9.006942096009851L235.97578125,9.043890138057993L236.20781250000002,9.09235185314729L236.43984375,9.113694233889392L236.671875,9.133184152884272L236.90390625,9.154118131044841L237.1359375,9.168286543613295L237.36796875000002,9.171659479081157L237.60000000000002,9.197945394206355L237.83203125,9.216592633840552L238.0640625,9.227677605725008L238.29609375,9.240700704741787L238.52812500000002,9.250725167908247L238.76015625000002,9.257371190989238L238.99218749999997,9.276653222058494L239.22421874999998,9.27566441276193L239.45624999999998,9.278783046699232L239.68828125,9.29867048620238L239.9203125,9.317949221281875L240.15234375,9.32965964390585L240.38437499999998,9.340433350796022L240.61640624999998,9.347821358423431L240.8484375,9.366608482573419L241.08046875,9.349559111215392L241.3125,9.351528925176884L241.54453125,9.36577160831023L241.77656249999998,9.367989076057931L242.00859375,9.35092595072948L242.240625,9.332804312584575L242.47265625,9.313224744680605L242.7046875,9.284826610570953L242.93671875,9.271873140936108L243.16875,9.250034847129324L243.40078125,9.234151423950527L243.6328125,9.212280613480681L243.86484375,9.189808958826088L244.096875,9.18600096932365L244.32890625,9.174445669987357L244.5609375,9.151123276137206L244.79296875,9.135409520673871L245.025,9.108789856779747L245.25703125,9.085304531621121L245.48906250000002,9.06942966973715L245.72109375,9.048796527439286L245.953125,9.029189321143853L246.18515625,9.011007367162179L246.4171875,8.983173386217164L246.64921875000002,8.953159261205752L246.88125000000002,8.954995825920207L247.11328125,8.930590138461032L247.3453125,8.914213866997525L247.57734375,8.893084352740825L247.80937500000002,8.869707647575384L248.04140625000002,8.845335587573132L248.27343750000003,8.815061111467585L248.50546874999998,8.795333017368204L248.73749999999998,8.76514884402916L248.96953125,8.768865608578157L249.2015625,8.76271140190956L249.43359375,8.751701741615877L249.66562499999998,8.74776790449475L249.89765624999998,8.731171343305736L250.1296875,8.72129668779821L250.36171875,8.713979074232968L250.59375,8.705915286956444L250.82578125,8.70039063927733L251.05781249999998,8.669517177422104L251.28984375,8.637313347106524L251.521875,8.611577705986583L251.75390625,8.58855793531346L251.9859375,8.550607890471808L252.21796875,8.525329812713212L252.45,8.496616707680664L252.68203125,8.479253831553756L252.9140625,8.451821100110994L253.14609375,8.430808819220934L253.378125,8.407957982516386L253.61015625000002,8.379599365175917L253.8421875,8.362587404306787L254.07421875,8.365003399288355L254.30625,8.339123079965148L254.53828125,8.318828105542355L254.77031250000002,8.31594520118592L255.00234375000002,8.286458135743711" style="fill: none;" fill="none"></path></g></g></g></g><g opacity="0.2"><g><g><g><path stroke="rgb(51, 187, 238)" stroke-width="2px" d="M23.203125,104.72500562667847L23.43515625,91.9006941318512L23.6671875,88.70486032962799L23.89921875,88.82776808738708L24.13125,88.17223191261292L24.36328125,89.36041760444641L24.5953125,89.44237017631531L24.82734375,89.5652779340744L25.059375,89.81111454963684L25.29140625,89.89304602146149L25.523437499999996,88.6229077577591L25.75546875,88.70486032962799L25.9875,88.82776808738708L26.21953125,89.11458098888397L26.4515625,90.17985892295837L26.683593750000004,88.95069694519043L26.915625,89.19653356075287L27.14765625,89.85209083557129L27.3796875,89.6472305059433L27.61171875,89.89304602146149L27.84375,89.60625422000885L28.07578125,88.66388404369354L28.3078125,89.6881856918335L28.53984375,87.14790916442871L28.771875,90.34374296665192L29.00390625,87.47569835186005L29.2359375,89.07360470294952L29.46796875,89.19653356075287L29.700000000000003,90.17985892295837L29.932031249999998,89.11458098888397L30.1640625,88.5L30.39609375,89.03262841701508L30.628125,88.13125562667847L30.860156250000003,88.33611595630646L31.092187499999998,88.5819525718689L31.32421875,88.86874437332153L31.55625,89.36041760444641L31.78828125,89.07360470294952L32.0203125,88.21318709850311L32.25234375,88.21318709850311L32.484375,87.02500140666962L32.71640625,86.90209364891052L32.9484375,87.5166746377945L33.18046875,86.3694441318512L33.4125,86.04167604446411L33.64453125,88.4180474281311L33.8765625,90.05695116519928L34.10859375,86.1645838022232L34.340625,86.98402512073517L34.57265625,84.77153778076172L34.8046875,84.19791197776794L35.03671875,83.91112017631531L35.268750000000004,85.2222136259079L35.50078125,83.82916760444641L35.7328125,87.4347220659256L35.96484375000001,84.44374859333038L36.196875,84.73056149482727L36.42890625,84.81249296665192L36.660937499999996,83.54235470294952L36.89296875,83.0916577577591L37.125,81.9854246377945L37.35703125,82.55902934074402L37.589062500000004,83.25556290149689L37.82109375,81.45277512073517L38.053124999999994,83.41944694519043L38.28515625,82.10833239555359L38.5171875,81.86249577999115L38.74921875,81.20693850517273L38.98125,82.27221643924713L39.21328125,84.32084083557129L39.4453125,86.04167604446411L39.67734375,82.10833239555359L39.909375000000004,80.51042604446411L40.14140625,85.46805024147034L40.373437499999994,82.92777371406555L40.60546875,81.7805643081665L40.8375,84.64860892295837L41.06953125,84.1569356918335L41.3015625,84.56665635108948L41.53359375,81.65763545036316L41.765625,81.8215194940567L41.997656250000006,80.05972909927368L42.229687500000004,83.0507025718689L42.461718749999996,79.85486876964569L42.693749999999994,78.5847305059433L42.92578125,79.36319553852081L43.1578125,79.93680024147034L43.38984375,84.73056149482727L43.621875,79.6500084400177L43.85390625,77.10973191261292L44.0859375,80.7152863740921L44.317968750000006,80.22361314296722L44.550000000000004,81.73958802223206L44.782031249999996,77.68333661556244L45.014062499999994,79.28124296665192L45.24609375,81.49375140666962L45.478125,79.97777652740479L45.71015625,76.53610610961914L45.9421875,75.55278074741364L46.17421875,76.04445397853851L46.40625,79.5680558681488L46.638281250000006,78.21596503257751L46.8703125,80.55138123035431L47.102343749999996,77.80624437332153L47.334375,79.97777652740479L47.56640625,77.5194525718689L47.7984375,75.51180446147919L48.03046875,86.98402512073517L48.2625,79.5680558681488L48.49453125,80.22361314296722L48.7265625,79.89582395553589L48.958593750000006,73.0944356918335L49.190625,74.93819975852966L49.422656249999996,78.87152230739594L49.6546875,77.06875562667847L49.88671875,76.86389529705048L50.11875,76.04445397853851L50.350781250000004,74.36457395553589L50.5828125,74.69236314296722L50.81484375,73.79096925258636L51.04687499999999,71.94722628593445L51.27890625,75.06110751628876L51.5109375,76.00347769260406L51.742968749999996,74.0368058681488L51.975,72.43887841701508L52.20703125,74.52847909927368L52.4390625,69.93957817554474L52.671093750000004,81.9034720659256L52.903125,82.10833239555359L53.13515625,76.3722220659256L53.36718750000001,73.70903778076172L53.59921875,73.54513263702393L53.83125,74.07778215408325L54.063281249999996,71.08680868148804L54.2953125,72.56180727481842L54.52734375,71.37362158298492L54.759375,70.30834364891052L54.991406250000004,73.99582958221436L55.2234375,73.38124859333038L55.455468749999994,70.30834364891052L55.6875,83.13263404369354L55.91953125,74.28264248371124L56.1515625,74.69236314296722L56.38359375,70.39027512073517L56.615625,69.5708338022232L56.84765625,71.16874015331268L57.0796875,71.00485610961914L57.311718750000004,71.12778496742249L57.54375,69.93957817554474L57.775781249999994,66.66181290149689L58.0078125,70.43125140666962L58.23984375,66.33402371406555L58.471875,64.28542041778564L58.70390625,64.98195397853851L58.9359375,64.0395838022232L59.16796875,66.21111595630646L59.400000000000006,66.2520922422409L59.632031250000004,67.89097487926483L59.864062499999996,63.629863142967224L60.096093749999994,61.417354702949524L60.328125,60.515981912612915L60.56015625,62.60556149482727L60.7921875,63.91667604446411L61.02421875,65.80139529705048L61.25625,61.376378417015076L61.48828125,62.072911977767944L61.720312500000006,61.13056290149689L61.952343750000004,60.59791338443756L62.184374999999996,58.5902863740921L62.416406249999994,56.62361454963684L62.6484375,62.15486454963684L62.88046875,59.655564308166504L63.1125,57.197219252586365L63.34453125,56.66459083557129L63.5765625,56.746522307395935L63.80859375,57.89375281333923L64.040625,55.10763967037201L64.27265625,59.94235610961914L64.5046875,55.59931290149689L64.73671875000001,62.19584083557129L64.96875,56.66459083557129L65.20078125,55.435407757759094L65.4328125,57.5250084400177L65.66484375,57.11528778076172L65.896875,59.655564308166504L66.12890625,59.6965194940567L66.3609375,54.779871582984924L66.59296875,52.89513123035431L66.825,50.72362017631531L67.05703125000001,57.03333520889282L67.2890625,60.9257025718689L67.52109374999999,55.27152371406555L67.753125,52.93610751628876L67.98515625,54.57499015331268L68.2171875,51.13334083557129L68.44921875,53.427780747413635L68.68125,54.534034967422485L68.91328125,53.878477692604065L69.1453125,52.567363142967224L69.37734375000001,51.9937584400177L69.609375,48.347227692604065L69.84140625,47.896530747413635L70.0734375,49.8632025718689L70.30546875,50.27292323112488L70.53750000000001,47.5277863740921L70.76953125,46.585416197776794L71.0015625,48.797924637794495L71.23359375000001,47.5277863740921L71.465625,51.09236454963684L71.69765625000001,52.85417604446411L71.92968750000001,50.559715032577515L72.16171874999999,45.479161977767944L72.39375,46.17569553852081L72.62578124999999,45.438185691833496L72.8578125,45.028465032577515L73.08984375,41.13611876964569L73.32187499999999,44.41388404369354L73.55390625,47.19999718666077L73.7859375,44.127092242240906L74.01796875,43.75832676887512L74.25,44.94653356075287L74.48203125,43.55346643924713L74.7140625,40.23472487926483L74.94609375,41.38193428516388L75.17812500000001,48.06041479110718L75.41015625,44.49583661556244L75.6421875,42.20139670372009L75.87421875000001,36.4652863740921L76.10624999999999,38.30902934074402L76.33828125,39.98888826370239L76.5703125,37.81735610961914L76.80234374999999,35.4000084400177L77.034375,36.383333802223206L77.26640625,34.90833520889282L77.4984375,36.67014670372009L77.73046875,35.03124296665192L77.9625,35.727776527404785L78.19453125,32.0402694940567L78.4265625,36.26042604446411L78.65859375,38.22707676887512L78.890625,37.89930868148804L79.12265625,35.481939911842346L79.3546875,32.98263967037201L79.58671875,32.94166338443756L79.81875000000001,32.69582676887512L80.05078125,37.489588022232056L80.2828125,35.11319553852081L80.51484375000001,36.95693850517273L80.74687499999999,35.35903215408325L80.97890625,43.020838022232056L81.2109375,38.43193709850311L81.44296874999999,36.99791479110718L81.675,38.75972628593445L81.90703125,38.88263404369354L82.1390625,35.60486876964569L82.37109375,36.26042604446411L82.603125,34.99028778076172L82.83515625,34.00694131851196L83.0671875,36.178473472595215L83.29921875000001,33.88403356075287L83.53125,31.753477692604065L83.76328125,29.950689911842346L83.99531250000001,33.1055474281311L84.22734375,29.254156351089478L84.45937500000001,30.401386857032776L84.69140624999999,32.73680305480957L84.92343749999999,29.581945538520813L85.15546875,30.606247186660767L85.38749999999999,31.794453978538513L85.61953125,32.0402694940567L85.8515625,28.76250422000885L86.08359374999999,29.090272307395935L86.315625,30.442363142967224L86.54765625,29.745829582214355L86.7796875,29.131248593330383L87.01171875,29.17222487926483L87.24375,26.017367362976074L87.47578125,30.811107516288757L87.7078125,30.237502813339233L87.93984375000001,29.62292182445526L88.171875,29.21320116519928L88.40390625,29.62292182445526L88.63593750000001,31.097920417785645L88.86796875,28.06597065925598L89.10000000000001,30.934036374092102L89.33203125000001,35.4409636259079L89.56406249999999,29.66389811038971L89.79609375,29.540969252586365L90.02812499999999,29.745829582214355L90.26015625,29.049296021461487L90.4921875,27.65625L90.72421874999999,28.393759846687317L90.95625,28.721527934074402L91.18828125,28.35278356075287L91.4203125,24.378463625907898L91.65234375,30.032642483711243L91.884375,29.41806149482727L92.11640625,29.745829582214355L92.3484375,29.17222487926483L92.58046875000001,26.263203978538513L92.8125,24.13264811038971L93.04453125,22.739580988883972L93.27656250000001,23.88681149482727L93.50859374999999,24.419439911842346L93.740625,26.222227692604065L93.97265625,24.09167182445526L94.20468749999999,25.771530747413635L94.43671875,24.296532154083252L94.66875,21.510419011116028L94.90078125,26.95971643924713L95.1328125,23.067370176315308L95.36484375,20.936814308166504L95.596875,23.804858922958374L95.82890625,20.445141077041626L96.0609375,22.57569694519043L96.29296875,23.518046021461487L96.525,19.584723472595215L96.75703125,20.936814308166504L96.9890625,22.206952571868896L97.22109375000001,23.763882637023926L97.453125,24.829160571098328L97.68515625,20.936814308166504L97.91718750000001,21.633326768875122L98.14921874999999,23.763882637023926L98.38125,24.624300241470337L98.61328125,25.64860188961029L98.84531249999999,22.98541760444641L99.07734375,22.739580988883972L99.309375,22.043047428131104L99.54140625,23.804858922958374L99.7734375,23.763882637023926L100.00546875,22.247907757759094L100.2375,26.386111736297607L100.46953125,23.47709083557129L100.70156250000001,19.297910571098328L100.93359375,22.206952571868896L101.165625,21.346534967422485L101.39765625000001,21.346534967422485L101.6296875,21.01874577999115L101.86171875000001,20.854861736297607L102.09374999999999,22.125L102.32578124999999,21.87916338443756L102.5578125,22.739580988883972L102.78984374999999,22.043047428131104L103.021875,21.01874577999115L103.25390625,20.404164791107178L103.48593749999999,20.9777694940567L103.71796875,22.08402371406555L103.95,18.519445538520813L104.18203125,19.338886857032776L104.4140625,24.624300241470337L104.64609375,18.478469252586365L104.878125,18.519445538520813L105.11015625,17.331259846687317L105.34218750000001,20.240280747413635L105.57421875,19.9124915599823L105.80625,20.854861736297607L106.03828125000001,22.53472065925598L106.2703125,22.493744373321533L106.50234375000001,17.90486454963684L106.73437500000001,20.240280747413635L106.96640624999999,20.9777694940567L107.1984375,19.66667604446411L107.43046874999999,17.29028356075287L107.6625,19.994444131851196L107.89453125,17.822911977767944L108.12656249999999,19.297910571098328L108.35859375,18.232632637023926L108.590625,17.577075362205505L108.82265625,17.863888263702393L109.0546875,17.90486454963684L109.28671875,19.871536374092102L109.51875,22.002092242240906L109.75078125,19.9124915599823L109.98281250000001,19.46181571483612L110.21484375,23.313185691833496L110.446875,28.10694694519043L110.67890625000001,22.53472065925598L110.91093749999999,17.70000422000885L111.14296875,22.657628417015076L111.375,21.346534967422485L111.60703124999999,19.01111876964569L111.8390625,17.90486454963684L112.07109375,17.372215032577515L112.303125,18.970142483711243L112.53515625,18.35556149482727L112.7671875,16.265981912612915L112.99921875,19.175002813339233L113.23125,17.90486454963684L113.46328125,18.519445538520813L113.6953125,16.63472628593445L113.92734375,17.822911977767944L114.159375,16.921518087387085L114.39140625,16.63472628593445L114.62343750000001,16.511797428131104L114.85546875,21.67430305480957L115.0875,20.895838022232056L115.31953125000001,19.05207395553589L115.55156249999999,22.53472065925598L115.78359375,19.175002813339233L116.015625,18.027772307395935L116.24765624999999,17.781935691833496L116.4796875,18.478469252586365L116.71171875,16.225005626678467L116.94375,19.05207395553589L117.17578125,17.413191318511963L117.4078125,16.59375L117.63984375,18.60139811038971L117.871875,14.954867362976074L118.10390625000001,14.790962219238281L118.3359375,18.191656351089478L118.56796875,17.659027934074402L118.80000000000001,14.012497186660767L119.03203125,14.790962219238281L119.26406250000001,16.511797428131104L119.49609374999999,15.856240153312683L119.72812499999999,13.848613142967224L119.96015625,20.11735188961029L120.19218749999999,19.789583802223206L120.42421875,21.633326768875122L120.65625,16.716657757759094L120.88828124999999,19.338886857032776L121.1203125,17.085423231124878L121.35234375,17.90486454963684L121.584375,16.470842242240906L121.81640625,16.14305305480957L122.0484375,15.69235610961914L122.28046875,19.05207395553589L122.5125,17.167354702949524L122.74453125000001,17.70000422000885L122.9765625,13.889589428901672L123.20859375,13.889589428901672L123.44062500000001,16.59375L123.67265625,15.241659164428711L123.90468750000001,14.504170417785645L124.13671875000001,12.578474879264832L124.36874999999999,12.61945116519928L124.60078125,13.684729099273682L124.83281249999999,15.69235610961914L125.06484375,18.642353296279907L125.296875,15.364588022232056L125.52890624999999,16.716657757759094L125.7609375,15.446519494056702L125.99296875,14.750007033348083L126.225,12.988195538520813L126.45703125,13.971520900726318L126.6890625,15.569448351860046L126.92109375,16.225005626678467L127.153125,17.659027934074402L127.38515625000001,17.45416760444641L127.6171875,15.323611736297607L127.84921875,15.979169011116028L128.08125,15.610424637794495L128.31328125,16.061121582984924L128.5453125,14.709030747413635L128.77734375,15.118751406669617L129.009375,15.979169011116028L129.24140625,11.840965032577515L129.47343750000002,13.561800241470337L129.70546875,15.610424637794495L129.9375,17.49514389038086L130.16953125,17.126378417015076L130.4015625,17.29028356075287L130.63359375,16.34791338443756L130.865625,15.93819272518158L131.09765625,14.135426044464111L131.3296875,14.545146703720093L131.56171874999998,13.479868769645691L131.79375,16.306937098503113L132.02578125,17.372215032577515L132.2578125,16.102076768875122L132.48984375,15.323611736297607L132.721875,15.897216439247131L132.95390625,16.34791338443756L133.1859375,15.651379823684692L133.41796875,11.185407757759094L133.65,14.217357516288757L133.88203125,16.306937098503113L134.11406250000002,18.273608922958374L134.34609375,15.241659164428711L134.578125,15.897216439247131L134.81015625,14.3812415599823L135.04218749999998,15.815284967422485L135.27421875,14.83193850517273L135.50625,23.149301648139954L135.73828125,24.460416197776794L135.9703125,18.929166197776794L136.20234375,16.675702571868896L136.434375,17.822911977767944L136.66640625,17.167354702949524L136.8984375,18.027772307395935L137.13046875,14.135426044464111L137.3625,16.34791338443756L137.59453125,15.077775120735168L137.8265625,13.07014811038971L138.05859375,16.757634043693542L138.290625,14.668054461479187L138.52265625,12.496522307395935L138.75468750000002,13.520823955535889L138.98671875,11.677080988883972L139.21875,14.627078175544739L139.45078125,13.111103296279907L139.6828125,14.872914791107178L139.91484375,15.733332395553589L140.146875,14.750007033348083L140.37890625,14.217357516288757L140.6109375,13.111103296279907L140.84296875,15.159727692604065L141.07500000000002,14.913891077041626L141.30703125,14.954867362976074L141.5390625,15.446519494056702L141.77109375,13.397916197776794L142.003125,14.58610188961029L142.23515625000002,15.200703978538513L142.46718750000002,13.111103296279907L142.69921875,16.061121582984924L142.93125,11.71805727481842L143.16328125,14.463194131851196L143.39531250000002,22.043047428131104L143.62734375000002,20.15832817554474L143.85937500000003,19.994444131851196L144.09140624999998,18.56042182445526L144.32343749999998,18.56042182445526L144.55546875,17.863888263702393L144.7875,17.618051648139954L145.01953125,15.93819272518158L145.25156249999998,15.446519494056702L145.48359374999998,14.422217845916748L145.715625,16.63472628593445L145.94765625,13.152079582214355L146.1796875,12.16875422000885L146.41171875,11.759033560752869L146.64374999999998,14.872914791107178L146.87578125,12.742358922958374L147.1078125,11.636104702949524L147.33984375,13.152079582214355L147.571875,15.569448351860046L147.80390625,15.03679883480072L148.0359375,13.520823955535889L148.26796875,12.865287780761719L148.5,11.759033560752869L148.73203125,12.496522307395935L148.9640625,12.16875422000885L149.19609375000002,11.595128417015076L149.428125,12.906242966651917L149.66015625,12.988195538520813L149.8921875,11.226384043693542L150.12421875,12.16875422000885L150.35625000000002,11.881941318511963L150.58828125000002,9.997222065925598L150.8203125,13.971520900726318L151.05234375,14.053473472595215L151.284375,13.438892483711243L151.51640625000002,10.980547428131104L151.74843750000002,11.390268087387085L151.98046874999997,13.315963625907898L152.21249999999998,13.848613142967224L152.44453124999998,13.684729099273682L152.6765625,17.126378417015076L152.90859375,12.455546021461487L153.140625,10.038198351860046L153.37265624999998,11.103476285934448L153.60468749999998,12.209730505943298L153.83671875,13.520823955535889L154.06875,12.82431149482727L154.30078125,13.602776527404785L154.5328125,12.742358922958374L154.76484374999998,11.349312901496887L154.996875,10.16110610961914L155.22890625,14.217357516288757L155.4609375,21.633326768875122L155.69296875,14.340286374092102L155.925,12.16875422000885L156.15703125,13.971520900726318L156.3890625,14.258333802223206L156.62109375,13.356939911842346L156.853125,11.881941318511963L157.08515625,12.209730505943298L157.3171875,11.800009846687317L157.54921875,12.783335208892822L157.78125,12.865287780761719L158.01328125,10.898615956306458L158.2453125,11.636104702949524L158.47734375000002,9.136804461479187L158.709375,19.093050241470337L158.94140625,16.675702571868896L159.1734375,16.102076768875122L159.40546875,12.127777934074402L159.63750000000002,11.26736032962799L159.86953125000002,12.250685691833496L160.1015625,10.529871582984924L160.33359375,9.013896703720093L160.565625,11.472220659255981L160.79765625000002,11.308336615562439L161.02968750000002,12.906242966651917L161.26171875000003,12.61945116519928L161.49374999999998,11.840965032577515L161.72578124999998,12.332638263702393L161.9578125,11.677080988883972L162.18984375,9.75138545036316L162.421875,12.496522307395935L162.65390624999998,8.071526527404785L162.88593749999998,8.727083802223206L163.11796875,8.563199758529663L163.35,9.50554883480072L163.58203125,9.464593648910522L163.8140625,10.816663384437561L164.04609374999998,12.988195538520813L164.278125,13.397916197776794L164.51015625,11.26736032962799L164.7421875,10.120129823684692L164.97421875,9.177780747413635L165.20625,10.939592242240906L165.43828125,9.177780747413635L165.6703125,8.604176044464111L165.90234375,10.980547428131104L166.134375,9.669453978538513L166.36640625,9.669453978538513L166.59843750000002,38.55486595630646L166.83046875,41.17707395553589L167.0625,39.00556290149689L167.29453125,28.35278356075287L167.5265625,20.56804883480072L167.75859375000002,13.971520900726318L167.99062500000002,15.651379823684692L168.22265625,11.759033560752869L168.4546875,11.51319694519043L168.68671875,10.202082395553589L168.91875000000002,11.800009846687317L169.15078125000002,11.0625L169.38281249999997,9.177780747413635L169.61484374999998,9.136804461479187L169.84687499999998,10.898615956306458L170.07890625,10.324990153312683L170.3109375,11.144452571868896L170.54296875,11.472220659255981L170.77499999999998,11.390268087387085L171.00703124999998,9.013896703720093L171.2390625,10.61180305480957L171.47109375,10.939592242240906L171.703125,11.021523714065552L171.93515625,9.546525120735168L172.16718749999998,9.669453978538513L172.39921875,11.759033560752869L172.63125,11.595128417015076L172.86328125,8.890967845916748L173.0953125,7.006248593330383L173.32734375,8.19443428516388L173.559375,9.30068850517273L173.79140625,9.75138545036316L174.0234375,9.50554883480072L174.25546875,9.75138545036316L174.4875,9.874314308166504L174.71953125,9.915269494056702L174.9515625,9.669453978538513L175.18359375,10.40694272518158L175.415625,11.636104702949524L175.64765625,10.488895297050476L175.87968750000002,11.021523714065552L176.11171875,8.563199758529663L176.34375,11.144452571868896L176.57578125,13.72568428516388L176.8078125,13.807636857032776L177.03984375000002,10.202082395553589L177.27187500000002,9.997222065925598L177.50390625,11.800009846687317L177.7359375,9.177780747413635L177.96796875,10.85763967037201L178.20000000000002,10.734731912612915L178.43203125000002,10.120129823684692L178.66406250000003,10.079174637794495L178.89609374999998,9.30068850517273L179.12812499999998,9.177780747413635L179.36015625,9.710409164428711L179.5921875,8.358339428901672L179.82421875,8.522223472595215L180.05624999999998,8.890967845916748L180.28828124999998,11.51319694519043L180.5203125,11.595128417015076L180.75234375,12.127777934074402L180.984375,10.529871582984924L181.21640625,8.931944131851196L181.44843749999998,10.447919011116028L181.68046875,10.488895297050476L181.9125,9.095828175544739L182.14453125,11.922917604446411L182.3765625,9.874314308166504L182.60859375,11.71805727481842L182.840625,11.840965032577515L183.07265625,11.922917604446411L183.3046875,12.496522307395935L183.53671875,11.185407757759094L183.76875,8.112502813339233L184.00078125000002,8.440270900726318L184.2328125,8.276386857032776L184.46484375,8.727083802223206L184.696875,7.7437584400177L184.92890625,7.5388981103897095L185.16093750000002,10.447919011116028L185.39296875000002,8.19443428516388L185.625,8.8499915599823L185.85703125,10.447919011116028L186.0890625,11.881941318511963L186.32109375000002,10.693755626678467L186.55312500000002,9.997222065925598L186.78515624999997,10.61180305480957L187.01718749999998,9.546525120735168L187.24921874999998,8.112502813339233L187.48125,8.931944131851196L187.71328125,10.202082395553589L187.9453125,9.546525120735168L188.17734374999998,9.997222065925598L188.40937499999998,8.522223472595215L188.64140625,8.809036374092102L188.8734375,10.202082395553589L189.10546875,9.177780747413635L189.3375,6.596527934074402L189.56953124999998,8.645131230354309L189.8015625,7.08820116519928L190.03359375,9.218757033348083L190.265625,8.440270900726318L190.49765625,8.8499915599823L190.7296875,9.177780747413635L190.96171875,8.727083802223206L191.19375,7.0472248792648315L191.42578125,9.710409164428711L191.6578125,9.50554883480072L191.88984375,11.103476285934448L192.121875,10.652779340744019L192.35390625,10.038198351860046L192.5859375,9.50554883480072L192.81796875,8.522223472595215L193.05,9.05485188961029L193.28203125000002,6.760411977767944L193.5140625,7.211108922958374L193.74609375,10.324990153312683L193.978125,10.40694272518158L194.21015625,7.5388981103897095L194.44218750000002,8.358339428901672L194.67421875000002,9.546525120735168L194.90625,11.021523714065552L195.13828125,9.874314308166504L195.3703125,9.628477692604065L195.60234375000002,19.25693428516388L195.83437500000002,14.504170417785645L196.06640625000003,10.40694272518158L196.29843749999998,9.95624577999115L196.53046874999998,8.768060088157654L196.7625,6.883340835571289L196.99453125,7.784713625907898L197.2265625,7.7437584400177L197.45859374999998,7.661805868148804L197.69062499999998,8.727083802223206L197.92265625,7.6208295822143555L198.1546875,9.546525120735168L198.38671875,12.004870176315308L198.61875,9.587501406669617L198.85078124999998,11.0625L199.0828125,7.5388981103897095L199.31484375,8.604176044464111L199.546875,7.334037780761719L199.77890625,6.801388263702393L200.0109375,6.596527934074402L200.24296875,7.661805868148804L200.475,9.833338022232056L200.70703125,10.40694272518158L200.9390625,8.563199758529663L201.17109375,7.456945538520813L201.40312500000002,6.760411977767944L201.63515625,8.071526527404785L201.8671875,9.382641077041626L202.09921875,8.645131230354309L202.33125,9.259712219238281L202.56328125000002,7.2930614948272705L202.79531250000002,7.579853296279907L203.02734375,6.391667604446411L203.259375,6.883340835571289L203.49140625,9.669453978538513L203.72343750000002,6.350691318511963L203.95546875000002,8.235410571098328L204.18749999999997,7.2930614948272705L204.41953124999998,7.08820116519928L204.65156249999998,11.595128417015076L204.88359375,39.57916760444641L205.115625,16.83958661556244L205.34765625,12.783335208892822L205.57968749999998,10.652779340744019L205.81171874999998,9.587501406669617L206.04375,7.825689911842346L206.27578125,9.341664791107178L206.5078125,9.669453978538513L206.73984375,9.423617362976074L206.97187499999998,7.784713625907898L207.20390625,10.447919011116028L207.4359375,9.75138545036316L207.66796875,9.013896703720093L207.9,7.6208295822143555L208.13203125,6.965272307395935L208.3640625,8.809036374092102L208.59609375,7.334037780761719L208.828125,7.661805868148804L209.06015625,7.579853296279907L209.2921875,8.604176044464111L209.52421875,7.702782154083252L209.75625,7.784713625907898L209.98828125,9.50554883480072L210.2203125,8.809036374092102L210.45234375,6.63750422000885L210.68437500000002,6.391667604446411L210.91640625,8.358339428901672L211.1484375,6.63750422000885L211.38046875,8.645131230354309L211.6125,8.317363142967224L211.84453125000002,11.595128417015076L212.07656250000002,9.915269494056702L212.30859375,8.972920417785645L212.540625,8.972920417785645L212.77265625,9.669453978538513L213.00468750000002,7.784713625907898L213.23671875000002,8.645131230354309L213.46875000000003,8.39931571483612L213.70078124999998,8.809036374092102L213.93281249999998,8.358339428901672L214.16484375,8.727083802223206L214.396875,6.760411977767944L214.62890625,7.579853296279907L214.86093749999998,8.030550241470337L215.09296874999998,8.235410571098328L215.325,7.784713625907898L215.55703125,7.907642483711243L215.7890625,6.719435691833496L216.02109375,8.358339428901672L216.25312499999998,7.006248593330383L216.48515625,6.555551648139954L216.7171875,6.801388263702393L216.94921875,11.26736032962799L217.18125,9.464593648910522L217.41328125,7.784713625907898L217.6453125,7.334037780761719L217.87734375,6.801388263702393L218.109375,5.899994373321533L218.34140625,7.006248593330383L218.5734375,9.546525120735168L218.80546875000002,7.497921824455261L219.0375,6.924296021461487L219.26953125,7.3749929666519165L219.5015625,7.497921824455261L219.73359375,6.268759846687317L219.96562500000002,7.006248593330383L220.19765625000002,8.604176044464111L220.4296875,8.481247186660767L220.66171875,5.9409706592559814L220.89375,8.276386857032776L221.12578125000002,6.719435691833496L221.35781250000002,9.095828175544739L221.58984374999997,8.112502813339233L221.82187499999998,9.341664791107178L222.05390624999998,6.350691318511963L222.2859375,8.19443428516388L222.51796875,8.809036374092102L222.75,7.497921824455261L222.98203124999998,6.555551648139954L223.21406249999998,8.645131230354309L223.44609375,6.514575362205505L223.678125,6.268759846687317L223.91015625,8.153479099273682L224.1421875,8.153479099273682L224.37421874999998,6.145830988883972L224.60625,7.5388981103897095L224.83828125,6.965272307395935L225.0703125,7.702782154083252L225.30234375,8.890967845916748L225.534375,10.61180305480957L225.76640625,10.038198351860046L225.9984375,8.890967845916748L226.23046875,7.0472248792648315L226.4625,6.309715032577515L226.69453125,7.456945538520813L226.9265625,6.63750422000885L227.15859375,9.382641077041626L227.390625,8.890967845916748L227.62265625,8.563199758529663L227.8546875,8.972920417785645L228.08671875000002,8.768060088157654L228.31875,6.719435691833496L228.55078125,8.112502813339233L228.7828125,7.3749929666519165L229.01484375,8.481247186660767L229.24687500000002,7.702782154083252L229.47890625000002,8.39931571483612L229.7109375,8.153479099273682L229.94296875,8.604176044464111L230.175,7.456945538520813L230.40703125000002,6.678480505943298L230.63906250000002,6.555551648139954L230.87109375000003,6.391667604446411L231.10312499999998,6.760411977767944L231.33515624999998,6.965272307395935L231.5671875,8.276386857032776L231.79921875,8.809036374092102L232.03125,9.546525120735168L232.26328124999998,18.068748593330383L232.49531249999998,13.152079582214355L232.72734375,12.742358922958374L232.959375,10.447919011116028L233.19140625,10.40694272518158L233.4234375,8.604176044464111L233.65546874999998,8.522223472595215L233.8875,7.1291563510894775L234.11953125,9.05485188961029L234.3515625,6.760411977767944L234.58359375,8.112502813339233L234.815625,7.702782154083252L235.04765625,7.1291563510894775L235.2796875,8.030550241470337L235.51171875,7.702782154083252L235.74375,9.136804461479187L235.97578125,12.701382637023926L236.20781250000002,13.889589428901672L236.43984375,11.226384043693542L236.671875,11.0625L236.90390625,11.226384043693542L237.1359375,10.570826768875122L237.36796875000002,9.50554883480072L237.60000000000002,11.800009846687317L237.83203125,11.0625L238.0640625,10.324990153312683L238.29609375,10.529871582984924L238.52812500000002,10.243058681488037L238.76015625000002,9.915269494056702L238.99218749999997,11.185407757759094L239.22421874999998,9.177780747413635L239.45624999999998,9.587501406669617L239.68828125,11.26736032962799L239.9203125,11.226384043693542L240.15234375,10.488895297050476L240.38437499999998,10.40694272518158L240.61640624999998,10.079174637794495L240.8484375,11.226384043693542L241.08046875,7.661805868148804L241.3125,9.546525120735168L241.54453125,10.775687098503113L241.77656249999998,9.587501406669617L242.00859375,7.661805868148804L242.240625,7.5388981103897095L242.47265625,7.3749929666519165L242.7046875,6.473620176315308L242.93671875,7.989573955535889L243.16875,7.08820116519928L243.40078125,7.661805868148804L243.6328125,7.0472248792648315L243.86484375,6.965272307395935L244.096875,8.809036374092102L244.32890625,8.030550241470337L244.5609375,6.842364549636841L244.79296875,7.579853296279907L245.025,6.473620176315308L245.25703125,6.760411977767944L245.48906250000002,7.497921824455261L245.72109375,7.006248593330383L245.953125,7.08820116519928L246.18515625,7.211108922958374L246.4171875,6.227783560752869L246.64921875000002,5.98194694519043L246.88125000000002,9.136804461479187L247.11328125,6.514575362205505L247.3453125,7.2930614948272705L247.57734375,6.801388263702393L247.80937500000002,6.555551648139954L248.04140625000002,6.432643890380859L248.27343750000003,5.818062901496887L248.50546874999998,6.842364549636841L248.73749999999998,5.777086615562439L248.96953125,9.136804461479187L249.2015625,8.153479099273682L249.43359375,7.661805868148804L249.66562499999998,8.358339428901672L249.89765624999998,7.08820116519928L250.1296875,7.7437584400177L250.36171875,7.989573955535889L250.59375,7.907642483711243L250.82578125,8.153479099273682L251.05781249999998,5.6132025718688965L251.28984375,5.4492974281311035L251.521875,6.063878417015076L251.75390625,6.309715032577515L251.9859375,4.793740153312683L252.21796875,6.022923231124878L252.45,5.654157757759094L252.68203125,6.760411977767944L252.9140625,5.736110329627991L253.14609375,6.350691318511963L253.378125,6.145830988883972L253.61015625000002,5.572226285934448L253.8421875,6.678480505943298L254.07421875,8.604176044464111L254.30625,5.777086615562439L254.53828125,6.309715032577515L254.77031250000002,8.030550241470337L255.00234375000002,5.3673659563064575" style="fill: none;" fill="none"></path></g></g></g></g></g></g><g transform="translate(51, 177)" clip-path="url(#clip_1)"><clipPath id="clip_1"><rect width="278" height="23"></rect></clipPath><g><g><line x1="0" y1="0" x2="0" y2="5" style="visibility: inherit;" fill="rgb(0, 0, 0)" stroke="rgb(204, 204, 204)" stroke-width="1px"></line><line x1="23.203125" y1="0" x2="23.203125" y2="5" style="visibility: inherit;" fill="rgb(0, 0, 0)" stroke="rgb(204, 204, 204)" stroke-width="1px"></line><line x1="46.40625" y1="0" x2="46.40625" y2="5" style="visibility: inherit;" fill="rgb(0, 0, 0)" stroke="rgb(204, 204, 204)" stroke-width="1px"></line><line x1="69.609375" y1="0" x2="69.609375" y2="5" style="visibility: inherit;" fill="rgb(0, 0, 0)" stroke="rgb(204, 204, 204)" stroke-width="1px"></line><line x1="92.8125" y1="0" x2="92.8125" y2="5" style="visibility: inherit;" fill="rgb(0, 0, 0)" stroke="rgb(204, 204, 204)" stroke-width="1px"></line><line x1="116.015625" y1="0" x2="116.015625" y2="5" style="visibility: inherit;" fill="rgb(0, 0, 0)" stroke="rgb(204, 204, 204)" stroke-width="1px"></line><line x1="139.21875" y1="0" x2="139.21875" y2="5" style="visibility: inherit;" fill="rgb(0, 0, 0)" stroke="rgb(204, 204, 204)" stroke-width="1px"></line><line x1="162.421875" y1="0" x2="162.421875" y2="5" style="visibility: inherit;" fill="rgb(0, 0, 0)" stroke="rgb(204, 204, 204)" stroke-width="1px"></line><line x1="185.625" y1="0" x2="185.625" y2="5" style="visibility: inherit;" fill="rgb(0, 0, 0)" stroke="rgb(204, 204, 204)" stroke-width="1px"></line><line x1="208.828125" y1="0" x2="208.828125" y2="5" style="visibility: inherit;" fill="rgb(0, 0, 0)" stroke="rgb(204, 204, 204)" stroke-width="1px"></line><line x1="232.03125" y1="0" x2="232.03125" y2="5" style="visibility: inherit;" fill="rgb(0, 0, 0)" stroke="rgb(204, 204, 204)" stroke-width="1px"></line><line x1="255.234375" y1="0" x2="255.234375" y2="5" style="visibility: inherit;" fill="rgb(0, 0, 0)" stroke="rgb(204, 204, 204)" stroke-width="1px"></line><line x1="278.4375" y1="0" x2="278.4375" y2="5" style="visibility: inherit;" fill="rgb(0, 0, 0)" stroke="rgb(204, 204, 204)" stroke-width="1px"></line></g><g transform="translate(0, 8)"><text x="0" y="0" dx="0em" dy="0.95em" style="text-anchor: middle; visibility: hidden; font-family: Roboto, sans-serif; font-size: 12px; font-weight: 200;" fill="rgb(33, 33, 33)" stroke="none" stroke-width="1px">-100</text><text x="23.203125" y="0" dx="0em" dy="0.95em" style="text-anchor: middle; visibility: inherit; font-family: Roboto, sans-serif; font-size: 12px; font-weight: 200;" fill="rgb(33, 33, 33)" stroke="none" stroke-width="1px">0</text><text x="46.40625" y="0" dx="0em" dy="0.95em" style="text-anchor: middle; visibility: hidden; font-family: Roboto, sans-serif; font-size: 12px; font-weight: 200;" fill="rgb(33, 33, 33)" stroke="none" stroke-width="1px">100</text><text x="69.609375" y="0" dx="0em" dy="0.95em" style="text-anchor: middle; visibility: inherit; font-family: Roboto, sans-serif; font-size: 12px; font-weight: 200;" fill="rgb(33, 33, 33)" stroke="none" stroke-width="1px">200</text><text x="92.8125" y="0" dx="0em" dy="0.95em" style="text-anchor: middle; visibility: hidden; font-family: Roboto, sans-serif; font-size: 12px; font-weight: 200;" fill="rgb(33, 33, 33)" stroke="none" stroke-width="1px">300</text><text x="116.015625" y="0" dx="0em" dy="0.95em" style="text-anchor: middle; visibility: inherit; font-family: Roboto, sans-serif; font-size: 12px; font-weight: 200;" fill="rgb(33, 33, 33)" stroke="none" stroke-width="1px">400</text><text x="139.21875" y="0" dx="0em" dy="0.95em" style="text-anchor: middle; visibility: hidden; font-family: Roboto, sans-serif; font-size: 12px; font-weight: 200;" fill="rgb(33, 33, 33)" stroke="none" stroke-width="1px">500</text><text x="162.421875" y="0" dx="0em" dy="0.95em" style="text-anchor: middle; visibility: inherit; font-family: Roboto, sans-serif; font-size: 12px; font-weight: 200;" fill="rgb(33, 33, 33)" stroke="none" stroke-width="1px">600</text><text x="185.625" y="0" dx="0em" dy="0.95em" style="text-anchor: middle; visibility: hidden; font-family: Roboto, sans-serif; font-size: 12px; font-weight: 200;" fill="rgb(33, 33, 33)" stroke="none" stroke-width="1px">700</text><text x="208.828125" y="0" dx="0em" dy="0.95em" style="text-anchor: middle; visibility: inherit; font-family: Roboto, sans-serif; font-size: 12px; font-weight: 200;" fill="rgb(33, 33, 33)" stroke="none" stroke-width="1px">800</text><text x="232.03125" y="0" dx="0em" dy="0.95em" style="text-anchor: middle; visibility: hidden; font-family: Roboto, sans-serif; font-size: 12px; font-weight: 200;" fill="rgb(33, 33, 33)" stroke="none" stroke-width="1px">900</text><text x="255.234375" y="0" dx="0em" dy="0.95em" style="text-anchor: middle; visibility: inherit; font-family: Roboto, sans-serif; font-size: 12px; font-weight: 200;" fill="rgb(33, 33, 33)" stroke="none" stroke-width="1px">1k</text><text x="278.4375" y="0" dx="0em" dy="0.95em" style="text-anchor: middle; visibility: hidden; font-family: Roboto, sans-serif; font-size: 12px; font-weight: 200;" fill="rgb(33, 33, 33)" stroke="none" stroke-width="1px">1.1k</text></g><line x1="0" y1="0" x2="278.4375" y2="0" fill="rgb(0, 0, 0)" stroke="rgb(204, 204, 204)" stroke-width="1px"></line></g></g></g></g></svg>