<svg viewBox="0 0 330 200" xmlns="http://www.w3.org/2000/svg"><g><g><g><g><g><line x1="41.171875" y1="177" x2="36.171875" y2="177" style="visibility: inherit;" fill="rgb(0, 0, 0)" stroke="rgb(204, 204, 204)" stroke-width="1px"></line><line x1="41.171875" y1="159.3" x2="36.171875" y2="159.3" style="visibility: inherit;" fill="rgb(0, 0, 0)" stroke="rgb(204, 204, 204)" stroke-width="1px"></line><line x1="41.171875" y1="141.6" x2="36.171875" y2="141.6" style="visibility: inherit;" fill="rgb(0, 0, 0)" stroke="rgb(204, 204, 204)" stroke-width="1px"></line><line x1="41.171875" y1="123.89999999999999" x2="36.171875" y2="123.89999999999999" style="visibility: inherit;" fill="rgb(0, 0, 0)" stroke="rgb(204, 204, 204)" stroke-width="1px"></line><line x1="41.171875" y1="106.2" x2="36.171875" y2="106.2" style="visibility: inherit;" fill="rgb(0, 0, 0)" stroke="rgb(204, 204, 204)" stroke-width="1px"></line><line x1="41.171875" y1="88.5" x2="36.171875" y2="88.5" style="visibility: inherit;" fill="rgb(0, 0, 0)" stroke="rgb(204, 204, 204)" stroke-width="1px"></line><line x1="41.171875" y1="70.8" x2="36.171875" y2="70.8" style="visibility: inherit;" fill="rgb(0, 0, 0)" stroke="rgb(204, 204, 204)" stroke-width="1px"></line><line x1="41.171875" y1="53.10000000000001" x2="36.171875" y2="53.10000000000001" style="visibility: inherit;" fill="rgb(0, 0, 0)" stroke="rgb(204, 204, 204)" stroke-width="1px"></line><line x1="41.171875" y1="35.39999999999999" x2="36.171875" y2="35.39999999999999" style="visibility: inherit;" fill="rgb(0, 0, 0)" stroke="rgb(204, 204, 204)" stroke-width="1px"></line><line x1="41.171875" y1="17.699999999999996" x2="36.171875" y2="17.699999999999996" style="visibility: inherit;" fill="rgb(0, 0, 0)" stroke="rgb(204, 204, 204)" stroke-width="1px"></line><line x1="41.171875" y1="0" x2="36.171875" y2="0" style="visibility: inherit;" fill="rgb(0, 0, 0)" stroke="rgb(204, 204, 204)" stroke-width="1px"></line></g><g transform="translate(31.171875, 0)"><text x="0" y="177" dx="0em" dy="0.3em" style="text-anchor: end; visibility: hidden; font-family: Roboto, sans-serif; font-size: 12px; font-weight: 200;" fill="rgb(33, 33, 33)" stroke="none" stroke-width="1px">0</text><text x="0" y="159.3" dx="0em" dy="0.3em" style="text-anchor: end; visibility: inherit; font-family: Roboto, sans-serif; font-size: 12px; font-weight: 200;" fill="rgb(33, 33, 33)" stroke="none" stroke-width="1px">0.1</text><text x="0" y="141.6" dx="0em" dy="0.3em" style="text-anchor: end; visibility: hidden; font-family: Roboto, sans-serif; font-size: 12px; font-weight: 200;" fill="rgb(33, 33, 33)" stroke="none" stroke-width="1px">0.2</text><text x="0" y="123.89999999999999" dx="0em" dy="0.3em" style="text-anchor: end; visibility: inherit; font-family: Roboto, sans-serif; font-size: 12px; font-weight: 200;" fill="rgb(33, 33, 33)" stroke="none" stroke-width="1px">0.3</text><text x="0" y="106.2" dx="0em" dy="0.3em" style="text-anchor: end; visibility: hidden; font-family: Roboto, sans-serif; font-size: 12px; font-weight: 200;" fill="rgb(33, 33, 33)" stroke="none" stroke-width="1px">0.4</text><text x="0" y="88.5" dx="0em" dy="0.3em" style="text-anchor: end; visibility: inherit; font-family: Roboto, sans-serif; font-size: 12px; font-weight: 200;" fill="rgb(33, 33, 33)" stroke="none" stroke-width="1px">0.5</text><text x="0" y="70.8" dx="0em" dy="0.3em" style="text-anchor: end; visibility: hidden; font-family: Roboto, sans-serif; font-size: 12px; font-weight: 200;" fill="rgb(33, 33, 33)" stroke="none" stroke-width="1px">0.6</text><text x="0" y="53.10000000000001" dx="0em" dy="0.3em" style="text-anchor: end; visibility: inherit; font-family: Roboto, sans-serif; font-size: 12px; font-weight: 200;" fill="rgb(33, 33, 33)" stroke="none" stroke-width="1px">0.7</text><text x="0" y="35.39999999999999" dx="0em" dy="0.3em" style="text-anchor: end; visibility: hidden; font-family: Roboto, sans-serif; font-size: 12px; font-weight: 200;" fill="rgb(33, 33, 33)" stroke="none" stroke-width="1px">0.8</text><text x="0" y="17.699999999999996" dx="0em" dy="0.3em" style="text-anchor: end; visibility: inherit; font-family: Roboto, sans-serif; font-size: 12px; font-weight: 200;" fill="rgb(33, 33, 33)" stroke="none" stroke-width="1px">0.9</text><text x="0" y="0" dx="0em" dy="0.3em" style="text-anchor: end; visibility: hidden; font-family: Roboto, sans-serif; font-size: 12px; font-weight: 200;" fill="rgb(33, 33, 33)" stroke="none" stroke-width="1px">1</text></g><line x1="41.171875" y1="0" x2="41.171875" y2="177" fill="rgb(0, 0, 0)" stroke="rgb(204, 204, 204)" stroke-width="1px"></line></g></g><g transform="translate(41, 0)" clip-path="url(#clip_0)"><clipPath id="clip_0"><rect width="288" height="177"></rect></clipPath><g><g><g><line x1="0" y1="0" x2="0" y2="177" fill="rgb(0, 0, 0)" stroke="rgb(66, 66, 66)" stroke-width="1px" opacity="0.25"></line><line x1="24.069010416666664" y1="0" x2="24.069010416666664" y2="177" fill="rgb(0, 0, 0)" stroke="rgb(66, 66, 66)" stroke-width="1px" opacity="0.25"></line><line x1="48.13802083333333" y1="0" x2="48.13802083333333" y2="177" fill="rgb(0, 0, 0)" stroke="rgb(66, 66, 66)" stroke-width="1px" opacity="0.25"></line><line x1="72.20703125" y1="0" x2="72.20703125" y2="177" fill="rgb(0, 0, 0)" stroke="rgb(66, 66, 66)" stroke-width="1px" opacity="0.25"></line><line x1="96.27604166666666" y1="0" x2="96.27604166666666" y2="177" fill="rgb(0, 0, 0)" stroke="rgb(66, 66, 66)" stroke-width="1px" opacity="0.25"></line><line x1="120.34505208333334" y1="0" x2="120.34505208333334" y2="177" fill="rgb(0, 0, 0)" stroke="rgb(66, 66, 66)" stroke-width="1px" opacity="0.25"></line><line x1="144.4140625" y1="0" x2="144.4140625" y2="177" fill="rgb(0, 0, 0)" stroke="rgb(66, 66, 66)" stroke-width="1px" opacity="0.25"></line><line x1="168.48307291666669" y1="0" x2="168.48307291666669" y2="177" fill="rgb(0, 0, 0)" stroke="rgb(66, 66, 66)" stroke-width="1px" opacity="0.25"></line><line x1="192.55208333333331" y1="0" x2="192.55208333333331" y2="177" fill="rgb(0, 0, 0)" stroke="rgb(66, 66, 66)" stroke-width="1px" opacity="0.25"></line><line x1="216.62109375" y1="0" x2="216.62109375" y2="177" fill="rgb(0, 0, 0)" stroke="rgb(66, 66, 66)" stroke-width="1px" opacity="0.25"></line><line x1="240.69010416666669" y1="0" x2="240.69010416666669" y2="177" fill="rgb(0, 0, 0)" stroke="rgb(66, 66, 66)" stroke-width="1px" opacity="0.25"></line><line x1="264.7591145833333" y1="0" x2="264.7591145833333" y2="177" fill="rgb(0, 0, 0)" stroke="rgb(66, 66, 66)" stroke-width="1px" opacity="0.25"></line><line x1="288.828125" y1="0" x2="288.828125" y2="177" fill="rgb(0, 0, 0)" stroke="rgb(66, 66, 66)" stroke-width="1px" opacity="0.25"></line></g><g><line x1="0" y1="177" x2="288.828125" y2="177" fill="rgb(0, 0, 0)" stroke="rgb(66, 66, 66)" stroke-width="1px" opacity="0.25"></line><line x1="0" y1="159.3" x2="288.828125" y2="159.3" fill="rgb(0, 0, 0)" stroke="rgb(66, 66, 66)" stroke-width="1px" opacity="0.25"></line><line x1="0" y1="141.6" x2="288.828125" y2="141.6" fill="rgb(0, 0, 0)" stroke="rgb(66, 66, 66)" stroke-width="1px" opacity="0.25"></line><line x1="0" y1="123.89999999999999" x2="288.828125" y2="123.89999999999999" fill="rgb(0, 0, 0)" stroke="rgb(66, 66, 66)" stroke-width="1px" opacity="0.25"></line><line x1="0" y1="106.2" x2="288.828125" y2="106.2" fill="rgb(0, 0, 0)" stroke="rgb(66, 66, 66)" stroke-width="1px" opacity="0.25"></line><line x1="0" y1="88.5" x2="288.828125" y2="88.5" fill="rgb(0, 0, 0)" stroke="rgb(66, 66, 66)" stroke-width="1px" opacity="0.25"></line><line x1="0" y1="70.8" x2="288.828125" y2="70.8" fill="rgb(0, 0, 0)" stroke="rgb(66, 66, 66)" stroke-width="1px" opacity="0.25"></line><line x1="0" y1="53.10000000000001" x2="288.828125" y2="53.10000000000001" fill="rgb(0, 0, 0)" stroke="rgb(66, 66, 66)" stroke-width="1px" opacity="0.25"></line><line x1="0" y1="35.39999999999999" x2="288.828125" y2="35.39999999999999" fill="rgb(0, 0, 0)" stroke="rgb(66, 66, 66)" stroke-width="1px" opacity="0.25"></line><line x1="0" y1="17.699999999999996" x2="288.828125" y2="17.699999999999996" fill="rgb(0, 0, 0)" stroke="rgb(66, 66, 66)" stroke-width="1px" opacity="0.25"></line><line x1="0" y1="0" x2="288.828125" y2="0" fill="rgb(0, 0, 0)" stroke="rgb(66, 66, 66)" stroke-width="1px" opacity="0.25"></line></g></g></g><g><g><line x1="0" y1="177" x2="288.828125" y2="177" fill="rgb(0, 0, 0)" stroke="rgb(153, 153, 153)" stroke-width="1.5px"></line></g></g><g><g><line x1="24.069010416666664" y1="0" x2="24.069010416666664" y2="177" fill="rgb(0, 0, 0)" stroke="rgb(153, 153, 153)" stroke-width="1.5px"></line></g></g><g><g><g><g><g><path stroke="rgb(51, 187, 238)" stroke-width="2px" d="M24.069010416666664,54.046961545944214L24.309700520833335,64.72959055732848L24.550390625000002,69.25265423037249L24.791080729166666,71.72888764415627L25.031770833333333,73.41995515150516L25.2724609375,74.5198232570113L25.513151041666667,75.40215881922387L25.753841145833334,76.11197009003763L25.994531249999998,76.6993506931729L26.23522135416667,77.20575569663428L26.475911458333332,77.7708652100751L26.7166015625,78.15404695575572L26.957291666666666,78.49042216380981L27.197981770833334,78.79404666418456L27.438671875,79.16339536000754L27.679361979166668,79.39129654231819L27.92005208333333,79.72416329490245L28.160742187500002,79.90506125082871L28.401432291666666,80.08001946432117L28.642122395833333,80.25283422098728L28.8828125,80.41374325824133L29.123502604166667,80.62099765527816L29.364192708333334,80.76047169973758L29.604882812499998,80.97358012063843L29.845572916666665,81.1045033019851L30.086263020833336,81.25540540176875L30.326953125,81.40865725067593L30.567643229166666,81.5274107985179L30.808333333333334,81.61351565859952L31.0490234375,81.78218613707874L31.289713541666668,81.93724829921442L31.53040364583333,82.05410828043821L31.77109375,82.16623044929374L32.011783854166666,82.35476651106366L32.25247395833333,82.4738299459649L32.4931640625,82.62393826075514L32.73385416666667,82.73833899683873L32.974544270833334,82.89811004019941L33.215234375,83.01879342726892L33.45592447916667,83.15046098981672L33.696614583333336,83.26924356258161L33.937304687499996,83.38838747949848L34.17799479166666,83.50127988133696L34.41868489583334,83.59444525093753L34.659375,83.73269795436268L34.900065104166664,83.81174666819676L35.14075520833334,83.91286929192809L35.3814453125,84.05764448001686L35.622135416666666,84.19683646808443L35.86282552083333,84.29319115160054L36.103515625,84.47477534287907L36.34420572916667,84.66428466709156L36.584895833333334,84.84623450894125L36.8255859375,85.00449035153785L37.06627604166666,85.06646530914861L37.306966145833336,85.21173597587816L37.54765625,85.3644997775442L37.78834635416666,85.5135540940598L38.02903645833333,85.69320712856278L38.269726562500004,85.89238499987967L38.510416666666664,86.09127033057058L38.75110677083333,86.23345270956463L38.991796875000006,86.37161221308293L39.232486979166666,86.52512813002332L39.47317708333333,86.71352764481927L39.7138671875,86.89150441497782L39.95455729166667,87.0934402211883L40.195247395833334,87.27233352080634L40.4359375,87.42144456042915L40.67662760416667,87.55721225210588L40.917317708333336,87.60285994378505L41.158007812499996,87.73384166005651L41.39869791666667,87.88991569647403L41.63938802083333,87.99934152460824L41.880078125,88.12182006185748L42.12076822916667,88.24279269156825L42.36145833333333,88.26924994571108L42.6021484375,88.34901655207638L42.84283854166667,88.39873156123109L43.08352864583333,88.51872250735195L43.32421875,88.65879650808358L43.56490885416667,88.81879382748099L43.805598958333334,88.93303530729585L44.0462890625,89.06806365884074L44.28697916666666,89.2051977611242L44.527669270833336,89.34132949104232L44.768359375,89.47918520929021L45.00904947916666,89.5446865014168L45.24973958333334,89.65926054473493L45.4904296875,89.78876228091714L45.731119791666664,89.90967843891495L45.97180989583334,90.03259382348905L46.2125,90.11016078196272L46.453190104166666,90.26567310338055L46.69388020833333,90.38774667605901L46.9345703125,90.4753310606763L47.17526041666667,90.60045997860038L47.41595052083333,90.74983256561114L47.656640625,90.92915466300603L47.89733072916667,91.07314981797089L48.13802083333333,91.19844329757998L48.3787109375,91.33833900339276L48.61940104166667,91.37910704249892L48.86009114583333,91.48508467976204L49.100781250000004,91.53415506366689L49.341471354166664,91.62856252888416L49.58216145833333,91.73447924831888L49.8228515625,91.57775927018518L50.063541666666666,91.62731893486534L50.30423177083333,91.70556892653599L50.544921875,91.7883828505308L50.78561197916667,91.93909585663498L51.026302083333334,92.06883888097472L51.266992187499994,92.17341192272809L51.50768229166667,92.2828490855344L51.748372395833336,92.41318558505415L51.989062499999996,92.53142174298247L52.22975260416667,92.67011445331697L52.47044270833334,92.8110313138252L52.7111328125,92.91883839378465L52.951822916666664,93.08392602003806L53.19251302083334,93.1940928688046L53.433203125,93.30789925241953L53.673893229166666,93.46487007882153L53.91458333333333,93.63973017965414L54.1552734375,93.77196011721591L54.39596354166667,93.9374896315288L54.636653645833334,93.92273811128985L54.87734375,93.93951028535028L55.11803385416666,94.0291060942373L55.358723958333336,94.12084853004905L55.5994140625,94.2409943148044L55.84010416666666,94.36194288414357L56.08079427083333,94.51621311134049L56.321484375000004,94.65137790717898L56.562174479166664,94.78448298719456L56.80286458333333,94.92261752768944L57.043554687500006,95.03541943940442L57.284244791666666,95.1283516983027L57.52493489583333,95.25676958225128L57.765625,95.18866588969523L58.00631510416667,95.27784136847606L58.247005208333334,95.39067214833537L58.4876953125,95.53674858721625L58.72838541666667,95.69035555741242L58.969075520833336,95.83590357414596L59.209765624999996,95.99189431569947L59.45045572916667,96.11903030833021L59.69114583333333,96.27223687880532L59.9318359375,96.43939289817651L60.17252604166667,96.57539509166558L60.41321614583333,96.75897382180332L60.65390625,96.94552482498231L60.89459635416667,97.11924077124479L61.13528645833333,97.28523143305256L61.3759765625,97.43472107539108L61.61666666666667,97.58424390483304L61.857356770833334,97.72059325567108L62.098046875,97.89485992776149L62.33873697916666,98.08636322712123L62.579427083333336,98.28835273689991L62.8201171875,98.47919762905737L63.06080729166666,98.66538390688642L63.30149739583334,98.82344821790024L63.5421875,99.01551049000561L63.782877604166664,99.19234946967744L64.02356770833333,99.35534541862933L64.2642578125,99.5262113038796L64.50494791666667,99.71395905854664L64.74563802083333,99.92216725767089L64.986328125,100.09342596447588L65.22701822916666,100.29312993212089L65.46770833333333,100.50220171097598L65.70839843750001,100.71314666967233L65.94908854166667,100.92505147033069L66.18977864583333,101.10496499146167L66.43046875,101.31093378300064L66.67115885416666,101.47847272183924L66.91184895833334,101.6740192798546L67.1525390625,101.82348367178021L67.39322916666667,102.03250092255743L67.63391927083333,102.24404015251002L67.87460937499999,102.4164122730955L68.11529947916667,102.58689424032117L68.35598958333333,102.72863369441396L68.5966796875,102.89364693038358L68.83736979166667,103.08766204465495L69.07805989583333,103.29105981903213L69.31875,103.48285101113603L69.55944010416667,103.62572145109843L69.80013020833333,103.7438008432048L70.0408203125,103.93263710117151L70.28151041666668,104.12524380291362L70.52220052083334,104.29071870275563L70.762890625,104.47778282786497L71.00358072916666,104.63116064005793L71.24427083333333,104.81622699876682L71.4849609375,104.97448257938416L71.72565104166667,105.14374148739438L71.96634114583334,105.34511329079473L72.20703125,105.5445295101799L72.44772135416667,105.75406014463873L72.68841145833333,105.92253314990579L72.9291015625,106.10880426092884L73.16979166666667,106.3132321426821L73.41048177083333,106.53011219273553L73.651171875,106.7314052979652L73.89186197916668,106.92469990831862L74.13255208333332,107.08818700684472L74.3732421875,107.21524924731874L74.61393229166667,107.37696199227162L74.85462239583333,107.5761693985265L75.0953125,107.76021201293534L75.33600260416667,107.94405532429117L75.57669270833333,108.14164094691783L75.8173828125,108.37342587779163L76.05807291666666,108.57051839169684L76.29876302083333,108.71520157504705L76.53945312500001,108.90307809751471L76.78014322916665,109.0918305315505L77.02083333333333,109.2732220494525L77.2615234375,109.47331416693764L77.50221354166666,109.72870320842668L77.74290364583334,109.96111258372125L77.98359375000001,110.09999402833681L78.22428385416666,110.27273065216609L78.46497395833333,110.46234764367452L78.7056640625,110.69155028180741L78.94635416666667,110.91392828971254L79.18704427083334,111.15341729587416L79.427734375,111.39508450200678L79.66842447916666,111.64839211717408L79.90911458333333,111.91117035075767L80.14980468750001,112.1427032776344L80.39049479166667,112.39189214721974L80.63118489583333,112.6309880008333L80.871875,112.86424020962046L81.11256510416666,113.11595597758907L81.35325520833334,113.34249251272526L81.5939453125,113.55843342711812L81.83463541666667,113.75187303242608L82.07532552083333,113.97819068048555L82.31601562499999,114.23732560450101L82.55670572916667,114.49673225886646L82.79739583333334,114.72996240396377L83.0380859375,114.93019837994174L83.27877604166666,115.16411804279309L83.51946614583333,115.36115725538825L83.76015625,115.58018365319585L84.00084635416667,115.7148080199355L84.24153645833334,115.90520635629272L84.48222656249999,116.1214847588895L84.72291666666666,116.30415249242137L84.96360677083334,116.46040211175152L85.204296875,116.63795492021691L85.44498697916667,116.79486792772003L85.68567708333335,116.98228692586447L85.92636718749999,117.20226815943725L86.16705729166667,117.38816083272306L86.40774739583334,117.54799057895616L86.6484375,117.7650701237728L86.88912760416667,118.00528685753156L87.12981770833333,118.19042839691396L87.3705078125,118.42162447842539L87.61119791666667,118.62881604044227L87.85188802083333,118.83684687781697L88.092578125,119.06730743271812L88.33326822916668,119.28597814979014L88.57395833333332,119.48006127696569L88.8146484375,119.69483341108972L89.05533854166667,119.91965137485151L89.29602864583333,120.14885309752148L89.53671875,120.3531789679873L89.77740885416667,120.57035202931328L90.01809895833333,120.7827765371481L90.2587890625,120.98514299611523L90.49947916666667,121.20122685816885L90.74016927083333,121.38540287368349L90.980859375,121.58399103309664L91.22154947916667,121.78464861587727L91.46223958333333,121.9431923534102L91.7029296875,122.13895278402214L91.94361979166668,122.30463885687249L92.18430989583332,122.49631475648887L92.425,122.6519044387216L92.66569010416667,122.76583639671388L92.90638020833333,122.95235857380887L93.1470703125,123.12490449584344L93.38776041666667,123.31039639086283L93.62845052083333,123.51578198296077L93.869140625,123.72117234714618L94.10983072916666,123.90202235121666L94.35052083333333,124.07444222990091L94.59121093750001,124.26214552784283L94.83190104166665,124.48853824045315L95.07259114583333,124.6429736392353L95.31328125,124.80277706769743L95.55397135416666,124.97580179009093L95.79466145833334,125.1347911972647L96.03535156250001,125.32626441354002L96.27604166666666,125.55795562433183L96.51673177083333,125.78245856748602L96.757421875,125.99873094271929L96.99811197916667,126.20777687337716L97.23880208333334,126.40979001761804L97.4794921875,126.63652230368602L97.72018229166666,126.8296213053103L97.96087239583333,127.04457873178849L98.20156250000001,127.26433034925522L98.44225260416667,127.41803233510461L98.68294270833333,127.60921328573319L98.9236328125,127.83227392798858L99.16432291666666,128.01245286910336L99.40501302083334,128.2440880702861L99.645703125,128.45500957365576L99.88639322916667,128.64978731711727L100.12708333333333,128.89212827527814L100.36777343749999,129.11367647498315L100.60846354166667,129.31385992244296L100.84915364583334,129.48774838904805L101.08984375,129.6408857512714L101.33053385416666,129.8548507996673L101.57122395833333,130.02941066372253L101.8119140625,130.18803796790044L102.05260416666667,130.35195672903748L102.29329427083334,130.46954015080368L102.53398437499999,130.65145177154466L102.77467447916666,130.8240516307552L103.01536458333334,131.01145489097286L103.2560546875,131.17672277596904L103.49674479166667,131.32542786554822L103.73743489583335,131.4977733550277L103.97812499999999,131.60918213137526L104.21881510416667,131.76431744172768L104.45950520833334,131.9641547021626L104.7001953125,132.14536753743204L104.94088541666667,132.32925152234031L105.18157552083333,132.49641164505204L105.422265625,132.66180868061969L105.66295572916667,132.83852373598432L105.90364583333333,132.98449961618942L106.1443359375,133.1253090655172L106.38502604166668,133.28090018536565L106.62571614583332,133.4367735338982L106.86640625,133.62213346928397L107.10709635416667,133.79277198329376L107.34778645833333,133.9108449121954L107.5884765625,134.06018063371368L107.82916666666667,134.24524906019045L108.06985677083333,134.4101945390528L108.310546875,134.5446887808343L108.55123697916667,134.71627273741922L108.79192708333333,134.9009302776048L109.0326171875,135.10594702440181L109.27330729166667,135.2654353128873L109.51399739583333,135.41554146238053L109.7546875,135.54453781701682L109.99537760416668,135.66399551873857L110.23606770833332,135.7945609385673L110.4767578125,135.969942055666L110.71744791666667,136.10622799126273L110.95813802083333,136.22217381495756L111.198828125,136.36486930822576L111.43951822916667,136.53281848905846L111.68020833333333,136.6790175888375L111.9208984375,136.85513898120945L112.16158854166666,137.0029458295657L112.40227864583333,137.15308996131245L112.64296875000001,137.32741652686133L112.88365885416665,137.47747108529896L113.12434895833333,137.6441323970579L113.3650390625,137.7622974493705L113.60572916666666,137.87451176216757L113.84641927083334,137.98117635607989L114.08710937500001,138.118835269486L114.32779947916666,138.2131849798543L114.56848958333333,138.21997512403618L114.8091796875,138.32345291338737L115.04986979166667,138.47198610187948L115.29055989583334,138.56568137289636L115.53125,138.6742298096404L115.77194010416666,138.80006049130273L116.01263020833333,138.95282338846897L116.25332031250001,139.1028471218736L116.49401041666667,139.22345583702656L116.73470052083333,139.35272810957903L116.975390625,139.4968824658434L117.21608072916666,139.63179433788721L117.45677083333334,139.7462115484729L117.6974609375,139.87195932943567L117.93815104166667,140.03040468159963L118.17884114583333,140.12901063530308L118.41953124999999,140.2479693247456L118.66022135416667,140.40871870357634L118.90091145833334,140.5520000744187L119.1416015625,140.60237446459723L119.38229166666666,140.69568593665159L119.62298177083333,140.78478477238457L119.863671875,140.852493354047L120.10436197916667,140.95583558295192L120.34505208333334,141.07128038472757L120.58574218749999,141.18282819928436L120.82643229166666,141.27090045683505L121.06712239583334,141.3968550879647L121.3078125,141.50185883203432L121.54850260416667,141.59872388465706L121.78919270833335,141.7276094040875L122.02988281249999,141.80410712560578L122.27057291666667,141.95494174539715L122.51126302083334,142.08151989171392L122.751953125,142.1926880453625L122.99264322916667,142.28171172015692L123.23333333333333,142.41905494147952L123.4740234375,142.56585039724587L123.71471354166667,142.69294145131008L123.95540364583333,142.83000609043094L124.19609375,142.97073130385184L124.43678385416668,143.03499827827656L124.67747395833332,143.13216580688652L124.9181640625,143.18575262918569L125.15885416666667,143.31354505053295L125.39954427083333,143.36267578083078L125.640234375,143.45760602102317L125.88092447916667,143.53567403424447L126.12161458333333,143.6539310368835L126.3623046875,143.7723766111063L126.60299479166667,143.90400333001838L126.84368489583333,143.96422293152332L127.084375,144.04627431292212L127.32506510416667,144.14352567668453L127.56575520833333,144.29574475723624L127.8064453125,144.41602587343291L128.04713541666666,144.5340416313352L128.28782552083334,144.65463284150022L128.528515625,144.7689986197322L128.76920572916669,144.88758437431605L129.00989583333333,145.03295940356392L129.2505859375,145.15412104864262L129.49127604166665,145.25925533257154L129.73196614583333,145.33412047869L129.97265625,145.43215524901242L130.21334635416665,145.5157932424059L130.45403645833332,145.62470433326797L130.6947265625,145.72190987591938L130.93541666666667,145.86815643312832L131.17610677083334,145.98530975168657L131.41679687500002,146.0732869390395L131.65748697916666,146.15839118299627L131.89817708333334,146.20976453191415L132.1388671875,146.2798018031073L132.37955729166666,146.39663758281026L132.62024739583333,146.49886592930238L132.8609375,146.60464084833004L133.10162760416665,146.70237305217032L133.34231770833333,146.78285798668708L133.5830078125,146.86965645842494L133.82369791666667,146.94439323718305L134.06438802083335,147.0670732466466L134.305078125,147.18640140673878L134.54576822916667,147.27724210532304L134.78645833333334,147.33993460849476L135.02714843750002,147.3946940985212L135.26783854166666,147.45000622440716L135.50852864583334,147.51967014177973L135.74921874999998,147.59565085890026L135.98990885416666,147.7022119491277L136.23059895833333,147.79508671418208L136.4712890625,147.89632844024112L136.71197916666665,147.9694835042677L136.95266927083333,148.0328532823942L137.193359375,148.08563263670482L137.43404947916667,148.16535147537903L137.67473958333335,148.25375418175489L137.9154296875,148.29975921001017L138.15611979166667,148.3894128748807L138.39680989583334,148.5201142796975L138.6375,148.6058264451527L138.87819010416666,148.68162655384293L139.11888020833334,148.7308563691431L139.35957031249998,148.82104177819414L139.60026041666666,148.89352546888375L139.84095052083333,148.96335764898583L140.081640625,149.01932383166252L140.32233072916668,149.09142145805828L140.56302083333335,149.0455554006501L140.8037109375,148.99427664571084L141.04440104166667,149.01278438029678L141.28509114583335,149.03832924601716L141.52578125,149.0874900680621L141.76647135416667,149.13249737197654L142.00716145833331,149.18796548055883L142.2478515625,149.28336626727426L142.48854166666666,149.34887394710378L142.72923177083334,149.4310111423266L142.969921875,149.525719885114L143.21061197916666,149.5595385408458L143.45130208333333,149.64241580248742L143.6919921875,149.7437909409763L143.93268229166668,149.82968155910856L144.17337239583333,149.91520941220512L144.4140625,149.9779035222866L144.65475260416667,150.06083996022838L144.89544270833335,150.09291676633106L145.1361328125,150.11069703941942L145.37682291666667,150.1479003411351L145.61751302083334,150.24095306626558L145.858203125,150.3117753494157L146.09889322916666,150.37651462829263L146.33958333333334,150.43221826869004L146.58027343749998,150.48611030584013L146.82096354166666,150.53614381755955L147.06165364583333,150.5988149224287L147.30234375,150.66025074014146L147.54303385416668,150.71990082359585L147.78372395833335,150.79893638150557L148.0244140625,150.82287563577324L148.26510416666665,150.9327788166811L148.50579427083332,150.98622960345685L148.746484375,150.9199334654767L148.98717447916667,150.88587834362974L149.22786458333334,150.87472422824078L149.4685546875,150.86323280700097L149.70924479166666,150.86303027139203L149.94993489583334,150.88638919996927L150.190625,150.9255975310326L150.43131510416669,150.96025077219718L150.67200520833333,150.99340806724996L150.91269531249998,151.06065082485634L151.15338541666665,151.09254886953963L151.39407552083333,151.17781977260057L151.634765625,151.26843022193592L151.87545572916667,151.3482073824058L152.11614583333332,151.42969012999484L152.3568359375,151.51861728135734L152.59752604166667,151.59081817915836L152.83821614583334,151.6613618338836L153.07890625000002,151.68325923337972L153.3195963541667,151.73958657500387L153.5602864583333,151.79283051130858L153.80097656249998,151.86516875468834L154.04166666666666,151.9407256307589L154.28235677083333,152.02789699479663L154.523046875,152.11644215845087L154.76373697916668,152.20813899091652L155.00442708333333,152.2674397232085L155.2451171875,152.33743654507424L155.48580729166667,152.41226454074015L155.72649739583335,152.49001874354872L155.96718750000002,152.5738620030368L156.20787760416667,152.67003438034934L156.44856770833331,152.69758154284776L156.6892578125,152.69533613101922L156.92994791666666,152.7448848681976L157.17063802083334,152.81353024295618L157.411328125,152.90994993312117L157.65201822916666,152.9424643848881L157.89270833333333,152.9834197352719L158.1333984375,153.02932250429618L158.37408854166668,153.0480572315586L158.61477864583335,153.0918344527954L158.85546875,153.18883611730126L159.09615885416665,153.28637120569155L159.33684895833332,153.35970805764046L159.5775390625,153.40288855742793L159.81822916666667,153.45863711096368L160.05891927083334,153.486287237441L160.29960937500002,153.52787826120587L160.54029947916666,153.59857982880715L160.78098958333334,153.6807960236263L161.0216796875,153.7144747003926L161.26236979166666,153.6238528103218L161.50305989583333,153.65739048987203L161.74375,153.68765208267837L161.98444010416665,153.72840309689622L162.22513020833333,153.76699170350506L162.4658203125,153.80916256469905L162.70651041666667,153.8781979317201L162.94720052083335,153.92271224980271L163.187890625,153.98116728336865L163.42858072916667,154.0176186785974L163.66927083333334,154.07577161904968L163.9099609375,154.1554286708777L164.15065104166666,154.2127800322288L164.39134114583334,154.29410696571182L164.63203124999998,154.2172081812183L164.87272135416666,154.21910783427526L165.11341145833333,154.24213382859713L165.3541015625,154.30957486116546L165.59479166666668,154.39710354271062L165.83548177083335,154.442571088817L166.076171875,154.51953993791628L166.31686197916665,154.63082261792604L166.55755208333332,154.69036686865223L166.7982421875,154.74072133055532L167.03893229166667,154.75965313424388L167.27962239583334,154.81416315220005L167.5203125,154.86561695488905L167.76100260416666,154.9131150693182L168.00169270833334,154.96140200200182L168.2423828125,155.0278858504099L168.48307291666669,155.07428271961027L168.72376302083333,155.1743472804043L168.96445312499998,155.26754447255038L169.20514322916665,155.35408380984126L169.44583333333333,155.42541984717477L169.6865234375,155.49080881881963L169.92721354166667,155.5457825896389L170.16790364583332,155.5733083599234L170.40859375,155.60900906581202L170.64928385416667,155.65671809058162L170.88997395833334,155.71354080521363L171.13066406250002,155.79520791320348L171.3713541666667,155.84684149620068L171.6120442708333,155.92871796383022L171.85273437499998,156.00659164965037L172.09342447916666,156.05809227973606L172.33411458333333,156.1333799289347L172.5748046875,156.18424553532185L172.81549479166668,155.7796026858902L173.05618489583333,155.47107311780957L173.296875,155.1761786262098L173.53756510416667,155.01112480673675L173.77825520833335,154.94394237404302L174.01894531250002,154.96189582112723L174.25963541666667,154.98021692948024L174.50032552083331,155.0410217024249L174.741015625,155.08879691243536L174.98170572916666,155.14647636729046L175.22239583333334,155.19162721666194L175.4630859375,155.2564375837532L175.70377604166666,155.35068497457394L175.94446614583333,155.42468488231233L176.18515625,155.49352971750085L176.42584635416668,155.56476038146414L176.66653645833335,155.59464087087053L176.9072265625,155.61195945024747L177.14791666666665,155.65873206746346L177.38860677083332,155.74890151236843L177.629296875,155.8050448127328L177.86998697916667,155.85069841119912L178.11067708333334,155.89756009858098L178.35136718750002,155.97227361835306L178.59205729166666,156.04283507764757L178.83274739583334,156.11257039696693L179.0734375,156.1728281688861L179.31412760416666,156.25342691716642L179.55481770833333,156.3341742085535L179.7955078125,156.41083673303456L180.03619791666665,156.49454835656832L180.27688802083333,156.5520723778566L180.517578125,156.62936167443166L180.75826822916667,156.6927654688264L180.99895833333335,156.7483940476691L181.2396484375,156.79673849164388L181.48033854166667,156.8556255959154L181.72102864583334,156.90167262132422L181.96171875,156.93872922772684L182.20240885416666,156.96587260973908L182.44309895833334,157.01315535960867L182.68378906249998,157.06723179764325L182.92447916666666,157.11545316977467L183.16516927083333,157.0808572507061L183.405859375,157.0868102051054L183.64654947916668,157.13817312969206L183.88723958333335,157.18199654956845L184.1279296875,157.19615488381834L184.36861979166665,157.2649335649949L184.60930989583332,157.28524172191533L184.85,157.3280837352232L185.09069010416667,157.37584313948418L185.33138020833334,157.39084609405404L185.5720703125,157.45909735333424L185.81276041666666,157.52554523564842L186.05345052083334,157.58040581006776L186.294140625,157.6393470578927L186.53483072916669,157.6897945233944L186.77552083333333,157.74015641527413L187.01621093749998,157.75183329126466L187.25690104166665,157.7908844086009L187.49759114583333,157.78141179891327L187.73828125,157.8294155218151L187.97897135416667,157.87515860618802L188.21966145833332,157.91010631302396L188.4603515625,157.943607563678L188.70104166666667,157.9933933658662L188.94173177083334,158.01009210694966L189.18242187500002,158.05117106895574L189.4231119791667,158.06327862927685L189.6638020833333,158.06613276399693L189.90449218749998,158.07517645771654L190.14518229166666,158.10193255533267L190.38587239583333,158.156188814413L190.6265625,158.216936509458L190.86725260416668,158.28814280446335L191.10794270833333,158.35493421107074L191.3486328125,158.4379564260155L191.58932291666667,158.51922439671145L191.83001302083335,158.59436633857803L192.07070312500002,158.6189456833526L192.31139322916667,158.66976364019465L192.55208333333331,158.73874724106L192.7927734375,158.76042261132926L193.03346354166666,158.72752275247737L193.27415364583334,158.75648996567327L193.51484375,158.79957069202283L193.75553385416666,158.83881648344274L193.99622395833333,158.8932480610031L194.2369140625,158.95244755986292L194.47760416666668,158.9823626137837L194.71829427083335,159.00170854134532L194.958984375,159.0439909857871L195.19967447916665,159.09060672886645L195.44036458333332,159.1248123504705L195.6810546875,159.16857079410173L195.92174479166667,159.20163692311644L196.16243489583334,159.23262176924L196.40312500000002,159.31651972648893L196.64381510416666,159.3700098917925L196.88450520833334,159.44381484836651L197.1251953125,159.48089786984352L197.36588541666666,159.51810814917178L197.60657552083333,159.55189705022732L197.847265625,159.5936035385133L198.08795572916665,159.64050945870684L198.32864583333333,159.69191584264823L198.5693359375,159.71426632741228L198.81002604166667,159.74732824179023L199.05071614583335,159.76352681626298L199.29140625,159.76115743733592L199.53209635416667,159.7729796660754L199.77278645833334,159.7992946965224L200.0134765625,159.81716589827008L200.25416666666666,159.8583583868231L200.49485677083334,159.9366914497187L200.73554687499998,159.977456310882L200.97623697916666,159.97522055012595L201.21692708333333,159.991663841784L201.4576171875,160.05065570556584L201.69830729166668,160.08178992561835L201.93899739583335,160.10428146429038L202.1796875,160.09955892648443L202.42037760416665,160.08067235398448L202.66106770833332,160.09456087511106L202.9017578125,159.9531882452686L203.14244791666667,159.89395308415195L203.38313802083334,159.8968027188057L203.623828125,159.92296740616507L203.86451822916666,159.975441722201L204.10520833333334,160.03398158815867L204.3458984375,160.08896875147533L204.58658854166669,160.1277280240601L204.82727864583333,160.19583762179812L205.06796874999998,160.24548127107403L205.30865885416665,160.31850681236642L205.54934895833333,160.34340043442097L205.7900390625,160.33555293174007L206.03072916666667,160.37211556777564L206.27141927083332,160.3793293789032L206.512109375,160.43929532946927L206.75279947916667,160.47684426188718L206.99348958333334,160.52456918092193L207.23417968750002,160.6043927448848L207.4748697916667,160.6719758901523L207.7155598958333,160.71780063514998L207.95624999999998,160.73442080848457L208.19694010416666,160.74749563850133L208.43763020833333,160.7740084066551L208.6783203125,160.82350969049475L208.91901041666668,160.87841006053532L209.15970052083333,160.91057813650227L209.400390625,160.91104685039454L209.64108072916667,160.92058607874637L209.88177083333335,160.91683112262703L210.12246093750002,160.96286735803338L210.36315104166667,161.01478544493847L210.60384114583331,161.08626010521368L210.84453125,161.1497417060712L211.08522135416666,161.1475360759069L211.32591145833334,161.20138036609842L211.5666015625,161.23514220925705L211.80729166666666,161.28311830104383L212.04798177083333,161.3145170776884L212.288671875,161.28402259731394L212.52936197916668,160.83670982920913L212.77005208333335,160.7621934756724L213.0107421875,160.7437387409844L213.25143229166665,160.74894802477715L213.49212239583332,160.77072309888257L213.7328125,160.7873221458374L213.97350260416667,160.80099040138919L214.21419270833334,160.80905761015237L214.45488281250002,160.81915950169355L214.69557291666666,160.86132700825368L214.93626302083334,160.84464706383378L215.176953125,160.85087653485797L215.41764322916666,160.87795024951367L215.65833333333333,160.92465550709775L215.8990234375,160.97598944046518L216.13971354166665,160.9715411319229L216.38040364583333,161.0113506885114L216.62109375,161.05493231635583L216.86178385416667,161.08264438739795L217.10247395833335,161.09643804549313L217.3431640625,161.13520910980588L217.58385416666667,161.17576349104607L217.82454427083334,161.1819663445753L218.065234375,161.21117028807504L218.30592447916666,161.25296733342722L218.54661458333334,161.30519937424955L218.78730468749998,161.33636786383224L219.02799479166666,161.37621157162806L219.26868489583333,161.40843883803512L219.509375,161.42989159518999L219.75006510416668,161.41830161115476L219.99075520833335,161.42645353962823L220.2314453125,161.44959803404635L220.47213541666665,161.47488641231305L220.71282552083332,161.48097000791628L220.953515625,161.52401277984916L221.19420572916667,161.53682527006004L221.43489583333334,161.56458689887933L221.6755859375,161.59555959803427L221.91627604166666,161.61438581990166L222.15696614583334,161.63208948013306L222.39765625,161.68347760354305L222.63834635416669,161.71207337576575L222.87903645833333,161.74811944759148L223.11972656249998,161.7902343107381L223.36041666666665,161.80620397117292L223.60110677083333,161.840823663879L223.841796875,161.88161877768457L224.08248697916667,161.89690924321042L224.32317708333332,161.93715007855093L224.5638671875,161.99820209120543L224.80455729166667,162.0396177119588L225.04524739583334,162.01305673837314L225.28593750000002,162.00539286998188L225.5266276041667,162.02584805069202L225.7673177083333,162.0698827932595L226.00800781249998,162.09876497223658L226.24869791666666,162.1371519424807L226.48938802083333,162.15615084223978L226.730078125,162.14497288902456L226.97076822916668,162.16441296838397L227.21145833333333,162.20806199231419L227.4521484375,162.22487223438787L227.69283854166667,162.26669534471756L227.93352864583335,162.31714303312674L228.17421875000002,162.3533028193662L228.41490885416667,162.37889836399748L228.65559895833331,162.3805554465764L228.8962890625,162.4296480987522L229.13697916666666,162.4636742669985L229.37766927083334,162.4739219867509L229.618359375,162.47333483985003L229.85904947916666,162.48725951583464L230.09973958333333,162.48152789509876L230.3404296875,162.53009770953267L230.58111979166668,162.55870235413357L230.82180989583335,162.56250806286997L231.0625,162.5914269392504L231.30319010416665,162.6414773002766L231.54388020833332,162.65883564253306L231.7845703125,162.6942251609915L232.02526041666667,162.747382120093L232.26595052083334,162.7661305333266L232.50664062500002,162.7922191683645L232.74733072916666,162.85292620426108L232.98802083333334,162.8731294325475L233.2287109375,162.9071300839957L233.46940104166666,162.92566747391734L233.71009114583333,162.94117521556797L233.95078125,162.90458078298167L234.19147135416665,162.90077333158104L234.43216145833333,162.90871591072062L234.6728515625,162.94860078391437L234.91354166666667,162.98541381312228L235.15423177083335,163.00913283046722L235.394921875,163.04037936178216L235.63561197916667,163.04064629108308L235.87630208333334,163.05257761275377L236.1169921875,163.0519583481787L236.35768229166666,163.04077391631458L236.59837239583334,163.0607182772255L236.83906249999998,163.1051869000883L237.07975260416666,163.10306303826786L237.32044270833333,163.14315156165972L237.5611328125,163.14370672178788L237.80182291666668,163.1823533759799L238.04251302083335,163.1997258221605L238.283203125,163.22022602696978L238.52389322916665,163.2346322459908L238.76458333333332,163.25528375377388L239.0052734375,163.29691786380877L239.24596354166667,163.32831077603697L239.48665364583334,163.35235840228404L239.72734375,163.39028125311984L239.96803385416666,163.41173234904392L240.20872395833334,163.41635303157116L240.4494140625,163.40352698054653L240.69010416666669,163.36966451222474L240.93079427083333,163.21272312236943L241.17148437499998,163.1547541549327L241.41217447916665,163.09034128789938L241.65286458333333,163.074116229305L241.8935546875,163.05275462163738L242.13424479166667,163.0670187785993L242.37493489583332,163.07308022369165L242.615625,163.10216970709058L242.85631510416667,163.10063262888028L243.09700520833334,163.13428693605033L243.33769531250002,163.14084148938278L243.5783854166667,163.14836931986537L243.8190755208333,163.17302641951122L244.05976562499998,163.18818339200027L244.30045572916666,163.20270126462353L244.54114583333333,163.2089757582159L244.7818359375,163.15849338810028L245.02252604166668,163.0822671960647L245.26321614583333,163.0511800986552L245.50390625,163.02291846650772L245.74459635416667,162.98968795855328L245.98528645833335,162.96512023604373L246.22597656250002,162.95072725492736L246.46666666666667,162.90626980921022L246.70735677083331,162.90492026439983L246.948046875,162.89073891169772L247.18873697916666,162.88195560986293L247.42942708333334,162.88647304775336L247.6701171875,162.87742969091883L247.91080729166666,162.87262373541304L248.15149739583333,162.87610582945325L248.3921875,162.8723053036396L248.63287760416668,162.84550724624205L248.87356770833335,162.7997611546384L249.1142578125,162.7773252705973L249.35494791666665,162.75718594854303L249.59563802083332,162.73400710153592L249.836328125,162.68901112401386L250.07701822916667,162.69174256795145L250.31770833333334,162.68299696753868L250.55839843750002,162.66136848051664L250.79908854166666,162.66358369499218L251.03977864583334,162.69517923020447L251.28046875,162.7287548832592L251.52115885416666,162.7686607222054L251.76184895833333,162.789816407763L252.0025390625,162.81354812980246L252.24322916666665,162.81917385308748L252.48391927083333,162.85134143236397L252.724609375,162.88336567067321L252.96529947916667,162.92449658057328L253.20598958333335,162.9238109153556L253.4466796875,162.92729973126916L253.68736979166667,162.97320608543424L253.92805989583334,162.98491047414473L254.16875,163.01497264830763L254.40944010416666,163.04573349845913L254.65013020833334,163.069178997429L254.89082031249998,163.1056303255813L255.13151041666666,163.12852878933893L255.37220052083333,163.16234421847716L255.612890625,163.18809367569452L255.85358072916668,163.2299742221263L256.0942708333333,163.23368705301937L256.3349609375,163.2842332544556L256.5756510416667,163.3036917068045L256.81634114583335,163.33617906394093L257.05703125,163.36491086816L257.2977213541667,163.4109994359261L257.53841145833337,163.45380445397464L257.7791015625,163.48735425102836L258.01979166666666,163.53088418241262L258.26048177083334,163.5019058422236L258.501171875,163.5056586165069L258.7418619791667,163.5282439664064L258.9825520833333,163.51560972225266L259.2232421875,163.5472761403928L259.46393229166665,163.56887350663249L259.7046223958333,163.59004973347345L259.9453125,163.60969917870437L260.1860026041667,163.62613196941464L260.4266927083333,163.67338170678582L260.66738281249997,163.713714268881L260.90807291666664,163.74832857147769L261.1487630208333,163.76796479645358L261.389453125,163.8189006494072L261.63014322916666,163.86896505231937L261.87083333333334,163.89776590483933L262.1115234375,163.93304268963925L262.3522135416667,163.96352972412285L262.59290364583336,163.9920941951694L262.83359375000003,164.03529850580824L263.0742838541667,164.07693470119796L263.3149739583333,164.0973786741161L263.5556640625,164.06822470846683L263.7963541666667,164.10911975181614L264.03704427083335,164.13718859765595L264.277734375,164.141460490293L264.5184244791667,164.18579644367614" style="fill: none;" fill="none"></path></g></g></g></g><g opacity="0.2"><g><g><g><path stroke="rgb(51, 187, 238)" stroke-width="2px" d="M24.069010416666664,54.046961545944214L24.309700520833335,75.30539327859879L24.550390625000002,78.16354197263718L24.791080729166666,79.01000189781189L25.031770833333333,80.01680105924606L25.2724609375,79.85636687278748L25.513151041666667,80.51393920183182L25.753841145833334,80.88582748174667L25.994531249999998,81.191799223423L26.23522135416667,81.54149025678635L26.475911458333332,83.120290517807L26.7166015625,82.12438952922821L26.957291666666666,82.27393609285355L27.197981770833334,82.47562086582184L27.438671875,83.9627730846405L27.679361979166668,82.54869031906128L27.92005208333333,84.6191954612732L28.160742187500002,82.71777552366257L28.401432291666666,82.94638395309448L28.642122395833333,83.2268562912941L28.8828125,83.31448477506638L29.123502604166667,84.52503651380539L29.364192708333334,83.49954271316528L29.604882812499998,85.32785099744797L29.845572916666665,83.88241356611252L30.086263020833336,84.57460051774979L30.326953125,84.89754724502563L30.567643229166666,84.32145273685455L30.808333333333334,83.70438194274902L31.0490234375,86.00400191545486L31.289713541666668,85.93314796686172L31.53040364583333,85.151127576828L31.77109375,85.21897476911545L32.011783854166666,87.62334591150284L32.25247395833333,85.8856201171875L32.4931640625,87.03091996908188L32.73385416666667,86.17666357755661L32.974544270833334,87.81019735336304L33.215234375,86.8115217089653L33.45592447916667,87.37736159563065L33.696614583333336,87.16196179389954L33.937304687499996,87.37185448408127L34.17799479166666,87.34975218772888L34.41868489583334,86.83090209960938L34.659375,88.62427926063538L34.900065104166664,86.6588945388794L35.14075520833334,87.61875665187836L35.3814453125,89.45355847477913L35.622135416666666,89.47058093547821L35.86282552083333,88.00278800725937L36.103515625,91.57551607489586L36.34420572916667,92.18844071030617L36.584895833333334,92.17814388871193L36.8255859375,91.4745207130909L37.06627604166666,87.63622748851776L37.306966145833336,91.31889733672142L37.54765625,91.87368607521057L37.78834635416666,91.9487336575985L38.02903645833333,93.54973116517067L38.269726562500004,94.71284472942352L38.510416666666664,95.00759652256966L38.75110677083333,92.68471902608871L38.991796875000006,92.71443843841553L39.232486979166666,93.65446123480797L39.47317708333333,95.56188941001892L39.7138671875,95.34296062588692L39.95455729166667,96.78664675354958L40.195247395833334,95.95069992542267L40.4359375,94.73031556606293L40.67662760416667,94.27990347146988L40.917317708333336,89.88574540615082L41.158007812499996,94.34853136539459L41.39869791666667,95.84748378396034L41.63938802083333,93.63105073571205L41.880078125,94.48351889848709L42.12076822916667,94.58320078253746L42.36145833333333,89.66825142502785L42.6021484375,92.60368958115578L42.84283854166667,91.07318204641342L43.08352864583333,95.02795279026031L43.32421875,96.32017225027084L43.56490885416667,97.64076599478722L43.805598958333334,95.28221887350082L44.0462890625,96.6311499774456L44.28697916666666,96.94518193602562L44.527669270833336,97.08267509937286L44.768359375,97.37665146589279L45.00904947916666,93.32444071769714L45.24973958333334,96.31807279586792L45.4904296875,97.3680848479271L45.731119791666664,97.03545320034027L45.97180989583334,97.3254363834858L46.2125,94.74314966797829L46.453190104166666,99.6153239607811L46.69388020833333,97.77446642518044L46.9345703125,95.8088074028492L47.17526041666667,98.26790151000023L47.41595052083333,99.95918610692024L47.656640625,102.05197289586067L47.89733072916667,100.05798178911209L48.13802083333333,99.06221267580986L48.3787109375,100.16927924752235L48.61940104166667,93.9672219157219L48.86009114583333,98.25059947371483L49.100781250000004,94.6840167939663L49.341471354166664,97.72150531411171L49.58216145833333,98.60671547055244L49.8228515625,81.35576766729355L50.063541666666666,94.87656524777412L50.30423177083333,96.86198446154594L50.544921875,97.27296057343483L50.78561197916667,101.96986734867096L51.026302083333334,100.74603840708733L51.266992187499994,99.2008346915245L51.50768229166667,99.67194592952728L51.748372395833336,101.25441759824753L51.989062499999996,100.58869010210037L52.22975260416667,102.16419875621796L52.47044270833334,102.5004121363163L52.7111328125,100.36420673131943L52.951822916666664,104.53462520241737L53.19251302083334,100.86806523799896L53.433203125,101.26878672838211L53.673893229166666,104.49075821042061L53.91458333333333,105.97247716784477L54.1552734375,103.13568171858788L54.39596354166667,105.7059414088726L54.636653645833334,92.8698508143425L54.87734375,95.14125475287437L55.11803385416666,100.47324648499489L55.358723958333336,100.74422380328178L55.5994140625,102.94716337323189L55.84010416666666,103.15838009119034L56.08079427083333,105.77662128210068L56.321484375000004,104.55240726470947L56.562174479166664,104.56890749931335L56.80286458333333,105.11196461319923L57.043554687500006,103.38459894061089L57.284244791666666,102.03007104992867L57.52493489583333,104.82563173770905L57.765625,90.09734719991684L58.00631510416667,101.96606934070587L58.247005208333334,103.88014402985573L58.4876953125,106.56235527992249L58.72838541666667,107.32048514485359L58.969075520833336,106.88975411653519L59.209765624999996,107.87479385733604L59.45045572916667,105.83287927508354L59.69114583333333,108.01262989640236L59.9318359375,109.28613889217377L60.17252604166667,107.05793729424477L60.41321614583333,110.9487854540348L60.65390625,111.4055697619915L60.89459635416667,110.62173476815224L61.13528645833333,110.22256940603256L61.3759765625,109.11744931340218L61.61666666666667,109.3007401227951L61.857356770833334,108.4329691529274L62.098046875,111.621845215559L62.33873697916666,113.20981872081757L62.579427083333336,114.28038221597672L62.8201171875,113.62671867012978L63.06080729166666,113.47969356179237L63.30149739583334,111.43088981509209L63.5421875,114.37162935733795L63.782877604166664,113.36498844623566L64.02356770833333,112.44927817583084L64.2642578125,113.28425440192223L64.50494791666667,114.86601921916008L64.74563802083333,116.76356729865074L64.986328125,113.97710072994232L65.22701822916666,116.51862743496895L65.46770833333333,117.52592772245407L65.70839843750001,117.92646986246109L65.94908854166667,118.25356802344322L66.18977864583333,115.84838452935219L66.43046875,118.22463458776474L66.67115885416666,115.2646834552288L66.91184895833334,117.7975644171238L67.1525390625,114.1721126139164L67.39322916666667,119.33557829260826L67.63391927083333,119.79019984602928L67.87460937499999,116.74152302742004L68.11529947916667,116.7820192873478L68.35598958333333,114.55282598733902L68.5966796875,116.68509095907211L68.83736979166667,119.33294078707695L69.07805989583333,120.3530224263668L69.31875,119.60018867254257L69.55944010416667,115.65334099531174L69.80013020833333,113.70186647772789L70.0408203125,119.88558259606361L70.28151041666668,120.42468345165253L70.52220052083334,118.31790205836296L70.762890625,120.3616892695427L71.00358072916666,117.67631828784943L71.24427083333333,120.58238518238068L71.4849609375,118.47843119502068L71.72565104166667,119.60974171757698L71.96634114583334,122.58294895291328L72.20703125,122.64168092608452L72.44772135416667,123.74617329239845L72.68841145833333,120.41120579838753L72.9291015625,122.1523286998272L73.16979166666667,123.94690856337547L73.41048177083333,125.26552945375443L73.651171875,124.14571845531464L73.89186197916668,123.67118373513222L74.13255208333332,121.27244630455971L74.3732421875,118.254812926054L74.61393229166667,121.44666409492493L74.85462239583333,124.93196412920952L75.0953125,123.81664216518402L75.33600260416667,124.00471213459969L75.57669270833333,125.42583176493645L75.8173828125,128.6759770810604L76.05807291666666,125.8567685186863L76.29876302083333,121.42116469144821L76.53945312500001,125.42325228452682L76.78014322916665,125.70991748571396L77.02083333333333,125.2631187736988L77.2615234375,127.13340032100677L77.50221354166666,132.29671302437782L77.74290364583334,130.52318572998047L77.98359375000001,122.40194222331047L78.22428385416666,125.59153041243553L78.46497395833333,127.29771164059639L78.7056640625,131.06498211622238L78.94635416666667,130.7032165825367L79.18704427083334,132.48937752842903L79.427734375,132.9490499049425L79.66842447916666,134.26540254056454L79.90911458333333,135.39930573105812L80.14980468750001,132.86027674376965L80.39049479166667,134.71304261684418L80.63118489583333,134.0705884695053L80.871875,133.80160774290562L81.11256510416666,135.73391550779343L81.35325520833334,133.7186845690012L81.5939453125,133.00113536417484L81.83463541666667,131.18595921993256L82.07532552083333,134.39555025100708L82.31601562499999,137.63807581365108L82.55670572916667,137.94458033144474L82.79739583333334,135.83178806304932L83.0380859375,133.06389744579792L83.27877604166666,136.3680061250925L83.51946614583333,133.2384396493435L83.76015625,135.47046826779842L84.00084635416667,127.95137518644333L84.24153645833334,133.22673439979553L84.48222656249999,135.8148130774498L84.72291666666666,132.9515581727028L84.96360677083334,130.71248477697372L85.204296875,132.84700217843056L85.44498697916667,131.1317743062973L85.68567708333335,134.1207828372717L85.92636718749999,137.3350317031145L86.16705729166667,134.41503086686134L86.40774739583334,132.19945764541626L86.6484375,137.68049481511116L86.88912760416667,140.06080926954746L87.12981770833333,135.20251880586147L87.3705078125,139.6819711625576L87.61119791666667,137.6963435858488L87.85188802083333,137.99611455202103L88.092578125,140.30821783840656L88.33326822916668,139.45519316196442L88.57395833333332,137.39455492794514L88.8146484375,139.533371463418L89.05533854166667,140.7010294497013L89.29602864583333,141.3504940867424L89.53671875,139.26702824234962L89.77740885416667,140.6873988211155L90.01809895833333,140.47348657250404L90.2587890625,139.75628024339676L90.49947916666667,141.25825260579586L90.74016927083333,138.49210537970066L90.980859375,140.04147635400295L91.22154947916667,140.44662621617317L91.46223958333333,136.69791586697102L91.7029296875,140.36883299052715L91.94361979166668,137.74362878501415L92.18430989583332,140.36824482679367L92.425,137.16810397803783L92.66569010416667,133.40195180475712L92.90638020833333,140.37566149234772L93.1470703125,139.25230832397938L93.38776041666667,140.65808822214603L93.62845052083333,142.7352346032858L93.869140625,142.9522089958191L94.10983072916666,140.8450135141611L94.35052083333333,140.23681792616844L94.59121093750001,141.86704163253307L94.83190104166665,145.7339491546154L95.07259114583333,139.1436457335949L95.31328125,139.8156373053789L95.55397135416666,141.23949202895164L95.79466145833334,140.08716849982738L96.03535156250001,143.34311105310917L96.27604166666666,147.3705134242773L96.51673177083333,146.9291769862175L96.757421875,146.38057847321033L96.99811197916667,145.91854025423527L97.23880208333334,145.4669544696808L97.4794921875,148.03617234528065L97.72018229166666,145.06378009915352L97.96087239583333,147.35263377428055L98.20156250000001,148.0352597683668L98.44225260416667,141.95283441245556L98.68294270833333,145.69668647646904L98.9236328125,148.9456528276205L99.16432291666666,145.07477849721909L99.40501302083334,150.1891127228737L99.645703125,148.44661304354668L99.88639322916667,147.119465097785L100.12708333333333,151.88207741081715L100.36777343749999,150.14025557041168L100.60846354166667,148.32095700502396L100.84915364583334,146.00522451102734L101.08984375,144.1933795362711L101.33053385416666,150.19623662531376L101.57122395833333,146.63145799934864L101.8119140625,145.28094439208508L102.05260416666667,145.95464506745338L102.29329427083334,141.66626152396202L102.53398437499999,147.98060801625252L102.77467447916666,147.27260921895504L103.01536458333334,148.87769486010075L103.2560546875,146.93872475624084L103.49674479166667,145.51318994164467L103.73743489583335,147.9472251087427L103.97812499999999,142.24651274085045L104.21881510416667,146.582126095891L104.45950520833334,151.05865082144737L104.7001953125,149.46654698252678L104.94088541666667,149.91203221678734L105.18157552083333,148.48572725057602L105.422265625,148.4880166053772L105.66295572916667,149.7535656094551L105.90364583333333,146.96199810504913L106.1443359375,146.61268423497677L106.38502604166668,148.18913447856903L106.62571614583332,148.3770119100809L106.86640625,151.39446066319942L107.10709635416667,150.1589317470789L107.34778645833333,145.23901860415936L107.5884765625,148.3923410922289L107.82916666666667,152.0123780965805L108.06985677083333,150.2504030764103L108.310546875,147.46456423401833L108.55123697916667,151.20412507653236L108.79192708333333,152.6504196971655L109.0326171875,154.81828835606575L109.27330729166667,150.6047651320696L109.51399739583333,149.85674746334553L109.7546875,147.9584450572729L109.99537760416668,147.16325823962688L110.23606770833332,148.36665178835392L110.4767578125,152.8620716035366L110.71744791666667,149.23649583756924L110.95813802083333,147.395883589983L111.198828125,150.1201999783516L111.43951822916667,152.72688625752926L111.68020833333333,150.77965812385082L111.9208984375,153.84622514247894L112.16158854166666,151.26615656912327L112.40227864583333,151.64560130238533L112.64296875000001,154.15842930972576L112.88365885416665,151.96873001754284L113.12434895833333,153.74320417642593L113.3650390625,149.17958901822567L113.60572916666666,148.71950255334377L113.84641927083334,148.29232424497604L114.08710937500001,151.42937859892845L114.32779947916666,147.33824354410172L114.56848958333333,138.87684094905853L114.8091796875,148.33604089915752L115.04986979166667,152.84749411046505L115.29055989583334,147.6358807682991L115.53125,149.18467676639557L115.77194010416666,150.98663373291492L116.01263020833333,153.75104020535946L116.25332031250001,153.63891457021236L116.49401041666667,150.91199232637882L116.73470052083333,151.8835728764534L116.975390625,153.47328186035156L117.21608072916666,152.71485395729542L117.45677083333334,150.8441213965416L117.6974609375,152.07140019536018L117.93815104166667,155.4051504805684L118.17884114583333,149.69917760789394L118.41953124999999,151.79577822983265L118.66022135416667,156.0164174437523L118.90091145833334,154.46640291810036L119.1416015625,145.49530501663685L119.38229166666666,149.76089523732662L119.62298177083333,149.44238479435444L119.863671875,147.43287460505962L120.10436197916667,151.00121122598648L120.34505208333334,152.29515825212002L120.58574218749999,152.02981200814247L120.82643229166666,149.836654946208L121.06712239583334,153.6491771042347L121.3078125,151.71797972917557L121.54850260416667,151.02466128766537L121.78919270833335,154.2716363221407L122.02988281249999,149.25067242980003L122.27057291666667,156.64022838324308L122.51126302083334,154.40726740658283L122.751953125,153.0196678340435L122.99264322916667,150.953409075737L123.23333333333333,155.79969097673893L123.4740234375,156.86968081444502L123.71471354166667,155.078745983541L123.95540364583333,156.1899138763547L124.19609375,156.6895919367671L124.43678385416668,149.30115692317486L124.67747395833332,152.60764990746975L124.9181640625,148.41217249631882L125.15885416666667,155.77924767136574L125.39954427083333,148.15592037141323L125.640234375,152.72046393156052L125.88092447916667,151.15430523455143L126.12161458333333,155.19626004248857L126.3623046875,155.33476468920708L126.60299479166667,156.75492426753044L126.84368489583333,149.8443801999092L127.084375,152.05931250751019L127.32506510416667,153.64228002727032L127.56575520833333,159.16533793509007L127.8064453125,156.16732496023178L128.04713541666666,156.0655541718006L128.28782552083334,156.43935068696737L128.528515625,155.9467978477478L128.76920572916669,156.47932999581099L129.00989583333333,159.24517127126455L129.2505859375,157.00067384541035L129.49127604166665,155.54002460092306L129.73196614583333,152.65586878359318L129.97265625,155.02105055004358L130.21334635416665,153.69751730561256L130.45403645833332,156.28000183403492L130.6947265625,155.23312973231077L130.93541666666667,160.17955376207829L131.17610677083334,157.45103846490383L131.41679687500002,154.6845589131117L131.65748697916666,154.48940987884998L131.89817708333334,151.23937006294727L132.1388671875,153.137429818511L132.37955729166666,157.8377627134323L132.62024739583333,156.51065960526466L132.8609375,156.9648960828781L133.10162760416665,156.27590446919203L133.34231770833333,154.66774217784405L133.5830078125,155.3739567026496L133.82369791666667,154.26768270134926L134.06438802083335,159.08945426344872L134.305078125,158.8815040960908L134.54576822916667,156.18124967068434L134.78645833333334,153.4855330735445L135.02714843750002,152.7631704211235L135.26783854166666,152.87319396436214L135.50852864583334,154.35067181289196L135.74921874999998,155.0467728227377L135.98990885416666,158.15322288125753L136.23059895833333,156.9046660065651L136.4712890625,157.82750413566828L136.71197916666665,155.14619754999876L136.95266927083333,154.25017230212688L137.193359375,153.26437559723854L137.43404947916667,155.9881143718958L137.67473958333335,156.92942954599857L137.9154296875,152.81500267982483L138.15611979166667,157.1893926411867L138.39680989583334,161.35025015473366L138.6375,157.02036809921265L138.87819010416666,156.1237085312605L139.11888020833334,153.56466087698936L139.35957031249998,157.67694872617722L139.60026041666666,156.01176488399506L139.84095052083333,155.82176162302494L140.081640625,154.51635199785233L140.32233072916668,156.17345056682825L140.56302083333335,144.53985545039177L140.8037109375,143.95646296441555L141.04440104166667,150.8311923444271L141.28509114583335,151.54833537340164L141.52578125,153.918334543705L141.76647135416667,153.55552192032337L142.00716145833331,154.63941273093224L142.2478515625,158.6601132005453L142.48854166666666,155.78795539587736L142.72923177083334,157.50527085363865L142.969921875,158.83645022660494L143.21061197916666,152.8844534754753L143.45130208333333,157.79114348441362L143.6919921875,159.71196886897087L143.93268229166668,158.27584842592478L144.17337239583333,158.32627093791962L144.4140625,156.14383929222822L144.65475260416667,158.21813848614693L144.89544270833335,153.24807053804398L145.1361328125,151.85972191393375L145.37682291666667,153.80778086185455L145.61751302083334,159.39561063051224L145.858203125,157.2798089683056L146.09889322916666,156.74645259976387L146.33958333333334,155.91344395279884L146.58027343749998,155.789398111403L146.82096354166666,155.46002773940563L147.06165364583333,156.76675479859114L147.30234375,156.7069744169712L147.54303385416668,156.59121034294367L147.78372395833335,158.57879363000393L148.0244140625,153.17946901917458L148.26510416666665,161.7523233667016L148.50579427083332,156.24854958057404L148.746484375,144.39260351657867L148.98717447916667,147.53272265195847L149.22786458333334,149.7764011323452L149.4685546875,149.73163475096226L149.70924479166666,150.8430848568678L149.94993489583334,153.18686458468437L150.190625,154.787184253335L150.43131510416669,154.37338864803314L150.67200520833333,154.2593719214201L150.91269531249998,157.68433901667595L151.15338541666665,154.23479564487934L151.39407552083333,159.57819590717554L151.634765625,160.19526670128107L151.87545572916667,159.20814464986324L152.11614583333332,159.45805621147156L152.3568359375,160.28088804334402L152.59752604166667,158.70533587038517L152.83821614583334,158.61290448904037L153.07890625000002,153.84118223190308L153.3195963541667,157.2907321974635L153.5602864583333,157.0403406098485L153.80097656249998,158.99485880881548L154.04166666666666,159.38797768950462L154.28235677083333,160.62030863016844L154.523046875,160.8446495756507L154.76373697916668,161.24740853905678L155.00442708333333,158.11342424154282L155.2451171875,159.23815550655127L155.48580729166667,159.78958010673523L155.72649739583335,160.15614853799343L155.96718750000002,160.8406788110733L156.20787760416667,162.15286946296692L156.44856770833331,155.4139096364379L156.6892578125,152.47391518950462L156.92994791666666,157.6310983300209L157.17063802083334,159.58320980519056L157.411328125,162.41904915869236L157.65201822916666,156.14922639727592L157.89270833333333,157.02282493561506L158.1333984375,157.55685914307833L158.37408854166668,154.8959919065237L158.61477864583335,157.41004107892513L158.85546875,162.75747672468424L159.09615885416665,162.9079780653119L159.33684895833332,160.59447426348925L159.5775390625,157.6628459841013L159.81822916666667,158.95868410170078L160.05891927083334,156.21429102122784L160.29960937500002,157.63145307451487L160.54029947916666,160.57458087801933L160.78098958333334,161.7931981086731L161.0216796875,157.0377136543393L161.26236979166666,144.68145520985126L161.50305989583333,156.96693355590105L161.74375,156.6740029603243L161.98444010416665,157.75002609193325L162.22513020833333,157.57533223181963L162.4658203125,157.9711690619588L162.70651041666667,160.69177843630314L162.94720052083335,158.31627479195595L163.187890625,159.750853613019L163.42858072916667,157.61558847874403L163.66927083333334,159.81598417460918L163.9099609375,162.018520206213L164.15065104166666,159.8742018342018L164.39134114583334,162.32250194996595L164.63203124999998,146.62573197484016L164.87272135416666,154.40664759278297L165.11341145833333,156.5153965651989L165.3541015625,160.96793845295906L165.59479166666668,163.03893153369427L165.83548177083335,158.931767039001L166.076171875,162.11919247359037L166.31686197916665,165.61880361288786L166.55755208333332,160.56988348066807L166.7982421875,159.71295002102852L167.03893229166667,156.62911393493414L167.27962239583334,160.19700745493174L167.5203125,159.9467899426818L167.76100260416666,159.60377311706543L168.00169270833334,159.73007798194885L168.2423828125,161.59379741549492L168.48307291666669,159.65652586519718L168.72376302083333,165.05715208500624L168.96445312499998,164.47231820225716L169.20514322916665,163.90148551762104L169.44583333333333,162.4713719934225L169.6865234375,161.949511192739L169.92721354166667,160.97586283832788L170.16790364583332,158.292251072824L170.40859375,159.13553544133902L170.64928385416667,160.36953460425138L170.88997395833334,161.32675393670797L171.13066406250002,163.86284210532904L171.3713541666667,160.94766922295094L171.6120442708333,164.01738146692514L171.85273437499998,163.6999787762761L172.09342447916666,161.14610854536295L172.33411458333333,163.57159423828125L172.5748046875,161.209731772542L172.81549479166668,115.80036082863808L173.05618489583333,124.98733592033386L173.296875,126.03905180096626L173.53756510416667,138.70261788368225L173.77825520833335,148.30570431053638L174.01894531250002,156.73589466512203L174.25963541666667,156.79057938605547L174.50032552083331,161.04943341761827L174.741015625,159.80978339910507L174.98170572916666,160.8462729603052L175.22239583333334,159.65344789624214L175.4630859375,161.66113425046206L175.70377604166666,164.6645778492093L175.94446614583333,162.73777323961258L176.18515625,162.2972847595811L176.42584635416668,162.60442359745502L176.66653645833335,158.5477541461587L176.9072265625,157.32359815388918L177.14791666666665,160.28146565705538L177.38860677083332,164.66087479144335L177.629296875,161.3541075065732L177.86998697916667,160.36305952817202L178.11067708333334,160.5294030457735L178.35136718750002,163.35713075101376L178.59205729166666,163.0174042135477L178.83274739583334,163.0055895075202L179.0734375,162.12912795692682L179.31412760416666,164.22049444913864L179.55481770833333,164.31604731827974L179.7955078125,163.9890454262495L180.03619791666665,164.7696956321597L180.27688802083333,162.23858048021793L180.517578125,164.26986855268478L180.75826822916667,162.96069916337729L180.99895833333335,162.24776954948902L181.2396484375,161.5760812908411L181.48033854166667,162.67730051279068L181.72102864583334,161.45402017235756L181.96171875,160.60230765491724L182.20240885416666,159.64942306280136L182.44309895833334,161.68786273151636L182.68378906249998,162.4136831536889L182.92447916666666,161.8830869346857L183.16516927083333,153.66032320261002L183.405859375,157.67539259791374L183.64654947916668,162.2166100591421L183.88723958333335,161.51503095030785L184.1279296875,158.59607588499784L184.36861979166665,164.06558715552092L184.60930989583332,159.29328332841396L184.85,161.5642929598689L185.09069010416667,162.09834035485983L185.33138020833334,158.87437096238136L185.5720703125,164.20801113545895L185.81276041666666,164.09621255099773L186.05345052083334,163.00533103197813L186.294140625,163.46785982698202L186.53483072916669,162.67844123393297L186.77552083333333,162.7203973531723L187.01621093749998,158.906561717391L187.25690104166665,161.65269950777292L187.49759114583333,156.84464297443628L187.73828125,162.57666912674904L187.97897135416667,162.39889861643314L188.21966145833332,161.3662795946002L188.4603515625,161.25676772743464L188.70104166666667,162.91709196567535L188.94173177083334,159.66157536953688L189.18242187500002,162.11386734992266L189.4231119791667,159.2607246413827L189.6638020833333,158.3484114781022L189.90449218749998,158.96962183713913L190.14518229166666,160.74820786714554L190.38587239583333,163.52238234132528L190.6265625,164.22522085905075L190.86725260416668,165.33090801537037L191.10794270833333,164.96110072731972L191.3486328125,166.64954736828804L191.58932291666667,166.55738039687276L191.83001302083335,166.02666944637895L192.07070312500002,161.05011521279812L192.31139322916667,163.69626780599356L192.55208333333331,165.5621117502451L192.7927734375,160.90441413223743L193.03346354166666,155.47324691712856L193.27415364583334,161.62179453670979L193.51484375,163.06095602363348L193.75553385416666,162.72089716047049L193.99622395833333,164.27750808745623L194.2369140625,164.8083891570568L194.47760416666668,161.94154724478722L194.71829427083335,160.91541516780853L194.958984375,163.22662038356066L195.19967447916665,163.70192789286375L195.44036458333332,162.5085265338421L195.6810546875,163.49731021374464L195.92174479166667,162.47268019616604L196.16243489583334,162.2977990731597L196.40312500000002,167.61619182676077L196.64381510416666,164.6616066992283L196.88450520833334,166.74513782188296L197.1251953125,163.1494469717145L197.36588541666666,163.19927340745926L197.60657552083333,162.89461382478476L197.847265625,163.71963214874268L198.08795572916665,164.28095135092735L198.32864583333333,164.77762793004513L198.5693359375,161.92544922977686L198.81002604166667,163.01823898404837L199.05071614583335,161.36610947549343L199.29140625,159.5267447680235L199.53209635416667,160.94261048734188L199.77278645833334,162.4027862995863L200.0134765625,161.5852743163705L200.25416666666666,163.93381210416555L200.49485677083334,167.68676488101482L200.73554687499998,164.01065319031477L200.97623697916666,159.7540173009038L201.21692708333333,161.61855172365904L201.4576171875,165.88730563223362L201.69830729166668,163.1622256860137L201.93899739583335,162.3296192586422L202.1796875,159.63230301439762L202.42037760416665,158.2119917795062L202.66106770833332,161.46873085945845L202.9017578125,145.96529531478882L203.14244791666667,154.0329895466566L203.38313802083334,160.1787585541606L203.623828125,162.51183528453112L203.86451822916666,165.1675475165248L204.10520833333334,165.82627902925014L204.3458984375,165.5297693386674L204.58658854166669,163.96285235881805L204.82727864583333,166.9351325109601L205.06796874999998,165.1576370894909L205.30865885416665,167.54429936036468L205.54934895833333,162.8066081777215L205.7900390625,159.55904366075993L206.03072916666667,163.9900015220046L206.27141927083332,161.09314215928316L206.512109375,166.37300689145923L206.75279947916667,164.19237995892763L206.99348958333334,165.24706039577723L207.23417968750002,168.5031572431326L207.4748697916667,167.35954869166017L207.7155598958333,165.25233013182878L207.95624999999998,162.3790566623211L208.19694010416666,162.04131089150906L208.43763020833333,163.39758217334747L208.6783203125,165.72193667292595L208.91901041666668,166.31113101169467L209.15970052083333,164.09381637722254L209.400390625,160.95742931216955L209.64108072916667,161.86456241458654L209.88177083333335,160.54524917900562L210.12246093750002,165.51852829009295L210.36315104166667,166.15252527594566L210.60384114583331,168.159320153296L210.84453125,167.4318427182734L211.08522135416666,160.92926734685898L211.32591145833334,166.52982242032886L211.5666015625,164.57623460143805L211.80729166666666,166.03088022395968L212.04798177083333,164.42178359627724L212.288671875,158.26623471826315L212.52936197916668,116.56967371702194L212.77005208333335,153.38786624372005L213.0107421875,158.91740450263023L213.25143229166665,161.2644758373499L213.49212239583332,162.92566385865211L213.7328125,162.43003041297197L213.97350260416667,162.1536607146263L214.21419270833334,161.60742672532797L214.45488281250002,161.8188940063119L214.69557291666666,165.034452393651L214.93626302083334,159.19390343874693L215.176953125,161.46738309413195L215.41764322916666,163.55733983963728L215.65833333333333,165.5469249933958L215.8990234375,166.05636116489768L216.13971354166665,160.53130336850882L216.38040364583333,164.9512140378356L216.62109375,165.36812321841717L216.86178385416667,163.82526424527168L217.10247395833335,162.46157893538475L217.3431640625,164.9723444133997L217.58385416666667,165.18940452486277L217.82454427083334,161.79586067050695L218.065234375,164.10148360580206L218.30592447916666,165.389632076025L218.54661458333334,166.47463393583894L218.78730468749998,164.4211400449276L219.02799479166666,165.31958916038275L219.26868489583333,164.59801775962114L219.509375,163.5531079620123L219.75006510416668,160.27121762931347L219.99075520833335,162.23326854407787L220.2314453125,163.74026799201965L220.47213541666665,163.9777489900589L220.71282552083332,162.0830823853612L220.953515625,165.78410135954618L221.19420572916667,162.80492413043976L221.43489583333334,164.31226381659508L221.6755859375,164.661056779325L221.91627604166666,163.47770036011934L222.15696614583334,163.3843036517501L222.39765625,166.76961387321353L222.63834635416669,164.54234529286623L222.87903645833333,165.31579510867596L223.11972656249998,165.95858158171177L223.36041666666665,163.38681587576866L223.60110677083333,165.26734808832407L223.841796875,165.9193724244833L224.08248697916667,163.41030813753605L224.32317708333332,165.92006213217974L224.5638671875,168.04095352068543L224.80455729166667,166.13882541283965L225.04524739583334,159.38411638140678L225.28593750000002,161.24684015661478L225.5266276041667,164.05046106129885L225.7673177083333,166.42836351692677L226.00800781249998,164.95747811347246L226.24869791666666,165.93664281070232L226.48938802083333,164.03664053231478L226.730078125,161.0385893136263L226.97076822916668,164.08857829123735L227.21145833333333,166.52842058613896L227.4521484375,163.88874504715204L227.69283854166667,166.40634298324585L227.93352864583335,167.31046075746417L228.17421875000002,165.93240961432457L228.41490885416667,164.91235830634832L228.65559895833331,162.54457464069128L228.8962890625,167.28888266533613L229.13697916666666,165.83162129670382L229.37766927083334,163.48825433850288L229.618359375,162.41521818190813L229.85904947916666,163.8655468672514L230.09973958333333,161.91420158743858L230.3404296875,167.33763563632965L230.58111979166668,165.39005275815725L230.82180989583335,162.93920613080263L231.0625,165.4538909420371L231.30319010416665,167.5955981835723L231.54388020833332,164.37701457738876L231.7845703125,166.1971881352365L232.02526041666667,168.00902981311083L232.26595052083334,164.62191224098206L232.50664062500002,165.3745653256774L232.74733072916666,168.86193514242768L232.98802083333334,164.87292364239693L233.2287109375,166.27265244349837L233.46940104166666,164.7605764567852L233.71009114583333,164.47619929164648L233.95078125,159.28229811787605L234.19147135416665,162.52389395982027L234.43216145833333,163.6949108093977L234.6728515625,166.8966044895351L234.91354166666667,166.62935660406947L235.15423177083335,165.35696657001972L235.394921875,166.13333082944155L235.63561197916667,163.0670684427023L235.87630208333334,164.23360812664032L236.1169921875,162.9906599074602L236.35768229166666,161.93367165327072L236.59837239583334,165.03493373841047L236.83906249999998,167.50697074458003L237.07975260416666,162.89282955229282L237.32044270833333,167.11137656494975L237.5611328125,163.19866018742323L237.80182291666668,167.00786304473877L238.04251302083335,164.91937143355608L238.283203125,165.24948162585497L238.52389322916665,164.66066379100084L238.76458333333332,165.29952169954777L239.0052734375,167.418173186481L239.24596354166667,166.43581974506378L239.48665364583334,165.7327781394124L239.72734375,167.14418251812458L239.96803385416666,165.5351327061653L240.20872395833334,163.87374555319548L240.4494140625,162.13389920443296L240.69010416666669,160.0176755413413L240.93079427083333,147.67733971774578L241.17148437499998,157.4164897799492L241.41217447916665,156.7141972258687L241.65286458333333,161.46801741421223L241.8935546875,160.93819266557693L242.13424479166667,164.4790135100484L242.37493489583332,163.673097319901L242.615625,165.9817151427269L242.85631510416667,162.94847828149796L243.09700520833334,166.4657079577446L243.33769531250002,163.78967374563217L243.5783854166667,163.8935466259718L243.8190755208333,165.61382663995028L244.05976562499998,164.68856991827488L244.30045572916666,164.63982485979795L244.54114583333333,163.83008824288845L244.7818359375,158.16123562306166L245.02252604166668,155.5366169437766L245.26321614583333,159.97385734319687L245.50390625,160.22528678923845L245.74459635416667,159.70018185675144L245.98528645833335,160.53314566612244L246.22597656250002,161.52595549821854L246.46666666666667,158.50539053231478L246.70735677083331,162.77132758498192L246.948046875,161.48691250383854L247.18873697916666,162.01248691231012L247.42942708333334,163.33365958929062L247.6701171875,161.98221626132727L247.91080729166666,162.39687564969063L248.15149739583333,163.22080336511135L248.3921875,162.4960854202509L248.63287760416668,160.1927241459489L248.87356770833335,158.27127762883902L249.1142578125,160.55635703355074L249.35494791666665,160.763556830585L249.59563802083332,160.43948784470558L249.836328125,158.23476795852184L250.07701822916667,162.96213396638632L250.31770833333334,161.8172508403659L250.55839843750002,160.52031552046537L250.79908854166666,162.88287296891212L251.03977864583334,165.822897747159L251.28046875,166.05249260365963L251.52115885416666,166.71904234215617L251.76184895833333,164.88407369703054L252.0025390625,165.16281583160162L252.24322916666665,163.37607990950346L252.48391927083333,166.0357022434473L252.724609375,166.05353903397918L252.96529947916667,166.99616900458932L253.20598958333335,162.85593480616808L253.4466796875,163.27266859263182L253.68736979166667,167.517623629421L253.92805989583334,164.1435663253069L254.16875,165.99092794954777L254.40944010416666,166.09085512161255L254.65013020833334,165.39013056457043L254.89082031249998,166.7140765786171L255.13151041666666,165.3953304067254L255.37220052083333,166.5098578222096L255.612890625,165.7371287047863L255.85358072916668,167.37588869780302L256.0942708333333,163.60123452544212L256.3349609375,168.28800009191036L256.5756510416667,165.22996144741774L256.81634114583335,166.5522339642048L257.05703125,166.20919010415673L257.2977213541667,167.97349865734577L257.53841145833337,167.69125391542912L257.7791015625,166.808592248708L258.01979166666666,167.84010088071227L258.26048177083334,160.63321262598038L258.501171875,163.8771624416113L258.7418619791667,165.76406950503588L258.9825520833333,162.26488827914L259.2232421875,166.68208099901676L259.46393229166665,165.7068976163864L259.7046223958333,165.68638441711664L259.9453125,165.55489157885313L260.1860026041667,165.25289323925972L260.4266927083333,168.3508637174964L260.66738281249997,167.7064334191382L260.90807291666664,167.17497077956796L261.1487630208333,165.71185348927975L261.389453125,168.86129950359464L261.63014322916666,168.82509710267186L261.87083333333334,166.7489114329219L262.1115234375,167.42527598887682L262.3522135416667,166.9816020615399L262.59290364583336,166.8198431879282L262.83359375000003,168.31232514604926L263.0742838541667,168.1987271234393L263.3149739583333,166.12123918533325L263.5556640625,161.18211313337088L263.7963541666667,168.15754709020257L264.03704427083335,166.91588069871068L264.277734375,164.56435923278332L264.5184244791667,168.5748644247651" style="fill: none;" fill="none"></path></g></g></g></g></g></g><g transform="translate(41, 177)" clip-path="url(#clip_1)"><clipPath id="clip_1"><rect width="288" height="23"></rect></clipPath><g><g><line x1="0" y1="0" x2="0" y2="5" style="visibility: inherit;" fill="rgb(0, 0, 0)" stroke="rgb(204, 204, 204)" stroke-width="1px"></line><line x1="24.069010416666664" y1="0" x2="24.069010416666664" y2="5" style="visibility: inherit;" fill="rgb(0, 0, 0)" stroke="rgb(204, 204, 204)" stroke-width="1px"></line><line x1="48.13802083333333" y1="0" x2="48.13802083333333" y2="5" style="visibility: inherit;" fill="rgb(0, 0, 0)" stroke="rgb(204, 204, 204)" stroke-width="1px"></line><line x1="72.20703125" y1="0" x2="72.20703125" y2="5" style="visibility: inherit;" fill="rgb(0, 0, 0)" stroke="rgb(204, 204, 204)" stroke-width="1px"></line><line x1="96.27604166666666" y1="0" x2="96.27604166666666" y2="5" style="visibility: inherit;" fill="rgb(0, 0, 0)" stroke="rgb(204, 204, 204)" stroke-width="1px"></line><line x1="120.34505208333334" y1="0" x2="120.34505208333334" y2="5" style="visibility: inherit;" fill="rgb(0, 0, 0)" stroke="rgb(204, 204, 204)" stroke-width="1px"></line><line x1="144.4140625" y1="0" x2="144.4140625" y2="5" style="visibility: inherit;" fill="rgb(0, 0, 0)" stroke="rgb(204, 204, 204)" stroke-width="1px"></line><line x1="168.48307291666669" y1="0" x2="168.48307291666669" y2="5" style="visibility: inherit;" fill="rgb(0, 0, 0)" stroke="rgb(204, 204, 204)" stroke-width="1px"></line><line x1="192.55208333333331" y1="0" x2="192.55208333333331" y2="5" style="visibility: inherit;" fill="rgb(0, 0, 0)" stroke="rgb(204, 204, 204)" stroke-width="1px"></line><line x1="216.62109375" y1="0" x2="216.62109375" y2="5" style="visibility: inherit;" fill="rgb(0, 0, 0)" stroke="rgb(204, 204, 204)" stroke-width="1px"></line><line x1="240.69010416666669" y1="0" x2="240.69010416666669" y2="5" style="visibility: inherit;" fill="rgb(0, 0, 0)" stroke="rgb(204, 204, 204)" stroke-width="1px"></line><line x1="264.7591145833333" y1="0" x2="264.7591145833333" y2="5" style="visibility: inherit;" fill="rgb(0, 0, 0)" stroke="rgb(204, 204, 204)" stroke-width="1px"></line><line x1="288.828125" y1="0" x2="288.828125" y2="5" style="visibility: inherit;" fill="rgb(0, 0, 0)" stroke="rgb(204, 204, 204)" stroke-width="1px"></line></g><g transform="translate(0, 8)"><text x="0" y="0" dx="0em" dy="0.95em" style="text-anchor: middle; visibility: hidden; font-family: Roboto, sans-serif; font-size: 12px; font-weight: 200;" fill="rgb(33, 33, 33)" stroke="none" stroke-width="1px">-100</text><text x="24.069010416666664" y="0" dx="0em" dy="0.95em" style="text-anchor: middle; visibility: inherit; font-family: Roboto, sans-serif; font-size: 12px; font-weight: 200;" fill="rgb(33, 33, 33)" stroke="none" stroke-width="1px">0</text><text x="48.13802083333333" y="0" dx="0em" dy="0.95em" style="text-anchor: middle; visibility: hidden; font-family: Roboto, sans-serif; font-size: 12px; font-weight: 200;" fill="rgb(33, 33, 33)" stroke="none" stroke-width="1px">100</text><text x="72.20703125" y="0" dx="0em" dy="0.95em" style="text-anchor: middle; visibility: inherit; font-family: Roboto, sans-serif; font-size: 12px; font-weight: 200;" fill="rgb(33, 33, 33)" stroke="none" stroke-width="1px">200</text><text x="96.27604166666666" y="0" dx="0em" dy="0.95em" style="text-anchor: middle; visibility: hidden; font-family: Roboto, sans-serif; font-size: 12px; font-weight: 200;" fill="rgb(33, 33, 33)" stroke="none" stroke-width="1px">300</text><text x="120.34505208333334" y="0" dx="0em" dy="0.95em" style="text-anchor: middle; visibility: inherit; font-family: Roboto, sans-serif; font-size: 12px; font-weight: 200;" fill="rgb(33, 33, 33)" stroke="none" stroke-width="1px">400</text><text x="144.4140625" y="0" dx="0em" dy="0.95em" style="text-anchor: middle; visibility: hidden; font-family: Roboto, sans-serif; font-size: 12px; font-weight: 200;" fill="rgb(33, 33, 33)" stroke="none" stroke-width="1px">500</text><text x="168.48307291666669" y="0" dx="0em" dy="0.95em" style="text-anchor: middle; visibility: inherit; font-family: Roboto, sans-serif; font-size: 12px; font-weight: 200;" fill="rgb(33, 33, 33)" stroke="none" stroke-width="1px">600</text><text x="192.55208333333331" y="0" dx="0em" dy="0.95em" style="text-anchor: middle; visibility: hidden; font-family: Roboto, sans-serif; font-size: 12px; font-weight: 200;" fill="rgb(33, 33, 33)" stroke="none" stroke-width="1px">700</text><text x="216.62109375" y="0" dx="0em" dy="0.95em" style="text-anchor: middle; visibility: inherit; font-family: Roboto, sans-serif; font-size: 12px; font-weight: 200;" fill="rgb(33, 33, 33)" stroke="none" stroke-width="1px">800</text><text x="240.69010416666669" y="0" dx="0em" dy="0.95em" style="text-anchor: middle; visibility: hidden; font-family: Roboto, sans-serif; font-size: 12px; font-weight: 200;" fill="rgb(33, 33, 33)" stroke="none" stroke-width="1px">900</text><text x="264.7591145833333" y="0" dx="0em" dy="0.95em" style="text-anchor: middle; visibility: inherit; font-family: Roboto, sans-serif; font-size: 12px; font-weight: 200;" fill="rgb(33, 33, 33)" stroke="none" stroke-width="1px">1k</text><text x="288.828125" y="0" dx="0em" dy="0.95em" style="text-anchor: middle; visibility: hidden; font-family: Roboto, sans-serif; font-size: 12px; font-weight: 200;" fill="rgb(33, 33, 33)" stroke="none" stroke-width="1px">1.1k</text></g><line x1="0" y1="0" x2="288.828125" y2="0" fill="rgb(0, 0, 0)" stroke="rgb(204, 204, 204)" stroke-width="1px"></line></g></g></g></g></svg>