<svg viewBox="0 0 330 200" xmlns="http://www.w3.org/2000/svg"><g><g><g><g><g><line x1="51.5625" y1="177" x2="46.5625" y2="177" style="visibility: inherit;" fill="rgb(0, 0, 0)" stroke="rgb(204, 204, 204)" stroke-width="1px"></line><line x1="51.5625" y1="159.29999999999998" x2="46.5625" y2="159.29999999999998" style="visibility: inherit;" fill="rgb(0, 0, 0)" stroke="rgb(204, 204, 204)" stroke-width="1px"></line><line x1="51.5625" y1="141.6" x2="46.5625" y2="141.6" style="visibility: inherit;" fill="rgb(0, 0, 0)" stroke="rgb(204, 204, 204)" stroke-width="1px"></line><line x1="51.5625" y1="123.89999999999999" x2="46.5625" y2="123.89999999999999" style="visibility: inherit;" fill="rgb(0, 0, 0)" stroke="rgb(204, 204, 204)" stroke-width="1px"></line><line x1="51.5625" y1="106.20000000000002" x2="46.5625" y2="106.20000000000002" style="visibility: inherit;" fill="rgb(0, 0, 0)" stroke="rgb(204, 204, 204)" stroke-width="1px"></line><line x1="51.5625" y1="88.5" x2="46.5625" y2="88.5" style="visibility: inherit;" fill="rgb(0, 0, 0)" stroke="rgb(204, 204, 204)" stroke-width="1px"></line><line x1="51.5625" y1="70.79999999999998" x2="46.5625" y2="70.79999999999998" style="visibility: inherit;" fill="rgb(0, 0, 0)" stroke="rgb(204, 204, 204)" stroke-width="1px"></line><line x1="51.5625" y1="53.10000000000001" x2="46.5625" y2="53.10000000000001" style="visibility: inherit;" fill="rgb(0, 0, 0)" stroke="rgb(204, 204, 204)" stroke-width="1px"></line><line x1="51.5625" y1="35.39999999999999" x2="46.5625" y2="35.39999999999999" style="visibility: inherit;" fill="rgb(0, 0, 0)" stroke="rgb(204, 204, 204)" stroke-width="1px"></line><line x1="51.5625" y1="17.700000000000017" x2="46.5625" y2="17.700000000000017" style="visibility: inherit;" fill="rgb(0, 0, 0)" stroke="rgb(204, 204, 204)" stroke-width="1px"></line><line x1="51.5625" y1="0" x2="46.5625" y2="0" style="visibility: inherit;" fill="rgb(0, 0, 0)" stroke="rgb(204, 204, 204)" stroke-width="1px"></line></g><g transform="translate(41.5625, 0)"><text x="0" y="177" dx="0em" dy="0.3em" style="text-anchor: end; visibility: hidden; font-family: Roboto, sans-serif; font-size: 12px; font-weight: 200;" fill="rgb(33, 33, 33)" stroke="none" stroke-width="1px">0.5</text><text x="0" y="159.29999999999998" dx="0em" dy="0.3em" style="text-anchor: end; visibility: inherit; font-family: Roboto, sans-serif; font-size: 12px; font-weight: 200;" fill="rgb(33, 33, 33)" stroke="none" stroke-width="1px">0.55</text><text x="0" y="141.6" dx="0em" dy="0.3em" style="text-anchor: end; visibility: hidden; font-family: Roboto, sans-serif; font-size: 12px; font-weight: 200;" fill="rgb(33, 33, 33)" stroke="none" stroke-width="1px">0.6</text><text x="0" y="123.89999999999999" dx="0em" dy="0.3em" style="text-anchor: end; visibility: inherit; font-family: Roboto, sans-serif; font-size: 12px; font-weight: 200;" fill="rgb(33, 33, 33)" stroke="none" stroke-width="1px">0.65</text><text x="0" y="106.20000000000002" dx="0em" dy="0.3em" style="text-anchor: end; visibility: hidden; font-family: Roboto, sans-serif; font-size: 12px; font-weight: 200;" fill="rgb(33, 33, 33)" stroke="none" stroke-width="1px">0.7</text><text x="0" y="88.5" dx="0em" dy="0.3em" style="text-anchor: end; visibility: inherit; font-family: Roboto, sans-serif; font-size: 12px; font-weight: 200;" fill="rgb(33, 33, 33)" stroke="none" stroke-width="1px">0.75</text><text x="0" y="70.79999999999998" dx="0em" dy="0.3em" style="text-anchor: end; visibility: hidden; font-family: Roboto, sans-serif; font-size: 12px; font-weight: 200;" fill="rgb(33, 33, 33)" stroke="none" stroke-width="1px">0.8</text><text x="0" y="53.10000000000001" dx="0em" dy="0.3em" style="text-anchor: end; visibility: inherit; font-family: Roboto, sans-serif; font-size: 12px; font-weight: 200;" fill="rgb(33, 33, 33)" stroke="none" stroke-width="1px">0.85</text><text x="0" y="35.39999999999999" dx="0em" dy="0.3em" style="text-anchor: end; visibility: hidden; font-family: Roboto, sans-serif; font-size: 12px; font-weight: 200;" fill="rgb(33, 33, 33)" stroke="none" stroke-width="1px">0.9</text><text x="0" y="17.700000000000017" dx="0em" dy="0.3em" style="text-anchor: end; visibility: inherit; font-family: Roboto, sans-serif; font-size: 12px; font-weight: 200;" fill="rgb(33, 33, 33)" stroke="none" stroke-width="1px">0.95</text><text x="0" y="0" dx="0em" dy="0.3em" style="text-anchor: end; visibility: hidden; font-family: Roboto, sans-serif; font-size: 12px; font-weight: 200;" fill="rgb(33, 33, 33)" stroke="none" stroke-width="1px">1</text></g><line x1="51.5625" y1="0" x2="51.5625" y2="177" fill="rgb(0, 0, 0)" stroke="rgb(204, 204, 204)" stroke-width="1px"></line></g></g><g transform="translate(51, 0)" clip-path="url(#clip_0)"><clipPath id="clip_0"><rect width="278" height="177"></rect></clipPath><g><g><g><line x1="0" y1="0" x2="0" y2="177" fill="rgb(0, 0, 0)" stroke="rgb(66, 66, 66)" stroke-width="1px" opacity="0.25"></line><line x1="23.203125" y1="0" x2="23.203125" y2="177" fill="rgb(0, 0, 0)" stroke="rgb(66, 66, 66)" stroke-width="1px" opacity="0.25"></line><line x1="46.40625" y1="0" x2="46.40625" y2="177" fill="rgb(0, 0, 0)" stroke="rgb(66, 66, 66)" stroke-width="1px" opacity="0.25"></line><line x1="69.609375" y1="0" x2="69.609375" y2="177" fill="rgb(0, 0, 0)" stroke="rgb(66, 66, 66)" stroke-width="1px" opacity="0.25"></line><line x1="92.8125" y1="0" x2="92.8125" y2="177" fill="rgb(0, 0, 0)" stroke="rgb(66, 66, 66)" stroke-width="1px" opacity="0.25"></line><line x1="116.015625" y1="0" x2="116.015625" y2="177" fill="rgb(0, 0, 0)" stroke="rgb(66, 66, 66)" stroke-width="1px" opacity="0.25"></line><line x1="139.21875" y1="0" x2="139.21875" y2="177" fill="rgb(0, 0, 0)" stroke="rgb(66, 66, 66)" stroke-width="1px" opacity="0.25"></line><line x1="162.421875" y1="0" x2="162.421875" y2="177" fill="rgb(0, 0, 0)" stroke="rgb(66, 66, 66)" stroke-width="1px" opacity="0.25"></line><line x1="185.625" y1="0" x2="185.625" y2="177" fill="rgb(0, 0, 0)" stroke="rgb(66, 66, 66)" stroke-width="1px" opacity="0.25"></line><line x1="208.828125" y1="0" x2="208.828125" y2="177" fill="rgb(0, 0, 0)" stroke="rgb(66, 66, 66)" stroke-width="1px" opacity="0.25"></line><line x1="232.03125" y1="0" x2="232.03125" y2="177" fill="rgb(0, 0, 0)" stroke="rgb(66, 66, 66)" stroke-width="1px" opacity="0.25"></line><line x1="255.234375" y1="0" x2="255.234375" y2="177" fill="rgb(0, 0, 0)" stroke="rgb(66, 66, 66)" stroke-width="1px" opacity="0.25"></line><line x1="278.4375" y1="0" x2="278.4375" y2="177" fill="rgb(0, 0, 0)" stroke="rgb(66, 66, 66)" stroke-width="1px" opacity="0.25"></line></g><g><line x1="0" y1="177" x2="278.4375" y2="177" fill="rgb(0, 0, 0)" stroke="rgb(66, 66, 66)" stroke-width="1px" opacity="0.25"></line><line x1="0" y1="159.29999999999998" x2="278.4375" y2="159.29999999999998" fill="rgb(0, 0, 0)" stroke="rgb(66, 66, 66)" stroke-width="1px" opacity="0.25"></line><line x1="0" y1="141.6" x2="278.4375" y2="141.6" fill="rgb(0, 0, 0)" stroke="rgb(66, 66, 66)" stroke-width="1px" opacity="0.25"></line><line x1="0" y1="123.89999999999999" x2="278.4375" y2="123.89999999999999" fill="rgb(0, 0, 0)" stroke="rgb(66, 66, 66)" stroke-width="1px" opacity="0.25"></line><line x1="0" y1="106.20000000000002" x2="278.4375" y2="106.20000000000002" fill="rgb(0, 0, 0)" stroke="rgb(66, 66, 66)" stroke-width="1px" opacity="0.25"></line><line x1="0" y1="88.5" x2="278.4375" y2="88.5" fill="rgb(0, 0, 0)" stroke="rgb(66, 66, 66)" stroke-width="1px" opacity="0.25"></line><line x1="0" y1="70.79999999999998" x2="278.4375" y2="70.79999999999998" fill="rgb(0, 0, 0)" stroke="rgb(66, 66, 66)" stroke-width="1px" opacity="0.25"></line><line x1="0" y1="53.10000000000001" x2="278.4375" y2="53.10000000000001" fill="rgb(0, 0, 0)" stroke="rgb(66, 66, 66)" stroke-width="1px" opacity="0.25"></line><line x1="0" y1="35.39999999999999" x2="278.4375" y2="35.39999999999999" fill="rgb(0, 0, 0)" stroke="rgb(66, 66, 66)" stroke-width="1px" opacity="0.25"></line><line x1="0" y1="17.700000000000017" x2="278.4375" y2="17.700000000000017" fill="rgb(0, 0, 0)" stroke="rgb(66, 66, 66)" stroke-width="1px" opacity="0.25"></line><line x1="0" y1="0" x2="278.4375" y2="0" fill="rgb(0, 0, 0)" stroke="rgb(66, 66, 66)" stroke-width="1px" opacity="0.25"></line></g></g></g><g><g><line x1="0" y1="354" x2="278.4375" y2="354" fill="rgb(0, 0, 0)" stroke="rgb(153, 153, 153)" stroke-width="1.5px"></line></g></g><g><g><line x1="23.203125" y1="0" x2="23.203125" y2="177" fill="rgb(0, 0, 0)" stroke="rgb(153, 153, 153)" stroke-width="1.5px"></line></g></g><g><g><g><g><g><path stroke="rgb(204, 51, 17)" stroke-width="2px" d="M23.203125,124.39166057109833L23.43515625,119.45029528356687L23.6671875,110.85060064657573L23.89921875,107.38280636221893L24.13125,104.29907176828277L24.36328125,103.53168512823612L24.5953125,101.4155150426462L24.82734375,100.52863270169942L25.059375,100.0473845472614L25.29140625,99.04540581537736L25.523437499999996,98.46062577066877L25.75546875,97.33870309134167L25.9875,95.34585892813506L26.21953125,94.3123456432526L26.4515625,93.79160399998382L26.683593750000004,94.46145090061171L26.915625,94.87493792233151L27.14765625,94.80662403510227L27.3796875,94.57581506310957L27.61171875,94.82716809200798L27.84375,94.89946528283758L28.07578125,95.00647564218804L28.3078125,94.81827237834352L28.53984375,94.7758161333516L28.771875,94.66300701626454L29.00390625,94.46626905013251L29.2359375,94.53244118771022L29.46796875,94.50699691456067L29.700000000000003,94.65185659902842L29.932031249999998,94.49107324220809L30.1640625,94.72031425596093L30.39609375,94.61332089270024L30.628125,94.51867195672054L30.860156250000003,94.37301878062091L31.092187499999998,94.37392842091865L31.32421875,94.23982704094415L31.55625,93.98111690398413L31.78828125,93.69487330988453L32.0203125,93.30723864078729L32.25234375,92.89466869987352L32.484375,92.61895526911255L32.71640625,92.27088085611759L32.9484375,91.84114787175344L33.18046875,91.60550225550823L33.4125,91.28139177282787L33.64453125,90.81665087986744L33.8765625,90.66805022585139L34.10859375,90.27737867452117L34.340625,89.66273639400953L34.57265625,89.57521159886143L34.8046875,89.3032077838941L35.03671875,89.19086701373786L35.268750000000004,88.80505720111296L35.50078125,88.30865062664232L35.7328125,87.61845937661178L35.96484375000001,87.03730306238077L36.196875,86.28540048801929L36.42890625,86.04614475919266L36.660937499999996,85.45616922500902L36.89296875,84.89366043689432L37.125,84.18922513891444L37.35703125,83.50467444432526L37.589062500000004,83.21287811586788L37.82109375,82.74394776916633L38.053124999999994,82.4710216202365L38.28515625,82.12215055696038L38.5171875,81.9947746352522L38.74921875,81.88783394497439L38.98125,82.16748597556868L39.21328125,82.46154524552927L39.4453125,82.1429779171835L39.67734375,81.5790458841871L39.909375000000004,81.05329086556215L40.14140625,80.63920331392431L40.373437499999994,80.10663705769674L40.60546875,79.59793921874427L40.8375,79.1456677763872L41.06953125,78.51253174933444L41.3015625,78.07568050000297L41.53359375,77.55835119108824L41.765625,76.99267295721961L41.997656250000006,76.52035881344155L42.229687500000004,75.94997801398068L42.461718749999996,75.38244754962686L42.693749999999994,74.8604297664269L42.92578125,74.3257826689431L43.1578125,73.82104293164123L43.38984375,73.18890052038137L43.621875,72.61345034256176L43.85390625,72.05161933766384L44.0859375,71.55217984636391L44.317968750000006,70.96382731252102L44.550000000000004,70.5401327757878L44.782031249999996,70.0054315245173L45.014062499999994,69.66131809954098L45.24609375,69.19516002254866L45.478125,68.7024966344316L45.71015625,68.2965210259686L45.9421875,68.0060042606227L46.17421875,67.47617688188365L46.40625,66.98340347721565L46.638281250000006,66.51898945306839L46.8703125,66.03132104026709L47.102343749999996,65.59175963655245L47.334375,65.13868582220363L47.56640625,64.66492370544027L47.7984375,64.4048105520297L48.03046875,64.08562178062942L48.2625,63.65712512163927L48.49453125,63.188177876800395L48.7265625,62.81383884158875L48.958593750000006,62.422597184435276L49.190625,62.06796209802405L49.422656249999996,61.64330007087126L49.6546875,61.20049613748662L49.88671875,60.799483282709474L50.11875,60.38000541215442L50.350781250000004,59.99910642198574L50.5828125,59.60654069299919L50.81484375,59.16513156511613L51.04687499999999,58.73886188138475L51.27890625,58.41551152741352L51.5109375,58.00335067570598L51.742968749999996,57.6124584839993L51.975,57.23547640585207L52.20703125,56.80133873140181L52.4390625,56.42720376249105L52.671093750000004,56.07100286862588L52.903125,55.68722161483127L53.13515625,55.325874112489444L53.36718750000001,54.9461704823181L53.59921875,54.61094580486894L53.83125,54.29258896471069L54.063281249999996,54.09927338629747L54.2953125,53.7459047787819L54.52734375,53.42709455516112L54.759375,53.118019589075416L54.991406250000004,52.781333946617444L55.2234375,52.445884372802645L55.455468749999994,52.092102062478666L55.6875,51.82201226812336L55.91953125,51.56496341487235L56.1515625,51.73987038981793L56.38359375,51.64622161846307L56.615625,51.51776262917065L56.84765625,51.291256065853986L57.0796875,51.07897869533437L57.311718750000004,50.779026327392835L57.54375,50.47958867517806L57.775781249999994,50.16380668805091L58.0078125,49.93063125649506L58.23984375,49.659222595665774L58.471875,49.37532169049152L58.70390625,49.15409023736657L58.9359375,48.88850662254671L59.16796875,48.58971445381984L59.400000000000006,48.31405867767153L59.632031250000004,48.04258250905494L59.864062499999996,47.7628779985074L60.096093749999994,47.45663885926734L60.328125,47.23879662574767L60.56015625,46.95079263916345L60.7921875,46.63044965608649L61.02421875,46.35948850460925L61.25625,46.05405324110028L61.48828125,45.779355371368716L61.720312500000006,45.51270201306442L61.952343750000004,45.21374269242203L62.184374999999996,44.967259537522025L62.416406249999994,44.74034832250336L62.6484375,44.584600124995994L62.88046875,44.36333584748354L63.1125,44.11540765624202L63.34453125,43.843230851858436L63.5765625,43.55511505954535L63.80859375,43.278974358745074L64.040625,43.09348019343273L64.27265625,42.835813873159026L64.5046875,42.61317246837009L64.73671875000001,42.399514089410616L64.96875,42.18882358330826L65.20078125,42.00057320753126L65.4328125,41.80517744829458L65.66484375,41.63580830577002L65.896875,41.400815406980946L66.12890625,41.26785776887054L66.3609375,41.08835640794106L66.59296875,40.909361645180965L66.825,40.67304397487999L67.05703125000001,40.46300251802964L67.2890625,40.28843676551586L67.52109374999999,40.11237802585295L67.753125,39.944416116038774L67.98515625,39.81117782435729L68.2171875,39.603405294837785L68.44921875,39.44980949814759L68.68125,39.24500401459903L68.91328125,39.08656159973342L69.1453125,38.91882953957036L69.37734375000001,38.74572688454495L69.609375,38.550323677224455L69.84140625,38.387654136151596L70.0734375,38.294915940218885L70.30546875,38.22595218281175L70.53750000000001,38.110925513264796L70.76953125,38.00488471286443L71.0015625,37.88335371109866L71.23359375000001,37.791434057541004L71.465625,37.67081198054828L71.69765625000001,37.5573250460807L71.92968750000001,37.43411008042638L72.16171874999999,37.28270522741897L72.39375,37.06821633501498L72.62578124999999,36.90466439321794L72.8578125,36.71724327222388L73.08984375,36.546980911600386L73.32187499999999,36.41211269598501L73.55390625,36.26417305623796L73.7859375,36.12545447046887L74.01796875,35.98294440411778L74.25,35.809118241503796L74.48203125,35.61725367753701L74.7140625,35.4937863204987L74.94609375,35.36451902603774L75.17812500000001,35.22586924268487L75.41015625,35.06334267740763L75.6421875,34.89368642881395L75.87421875000001,34.74798943412623L76.10624999999999,34.640499097532114L76.33828125,34.528863745104424L76.5703125,34.43130920923016L76.80234374999999,34.26959388313459L77.034375,34.138853455222915L77.26640625,33.97528182023899L77.4984375,33.85711428992236L77.73046875,33.70060695687022L77.9625,33.63446331918992L78.19453125,33.673738050193556L78.4265625,33.651272239248684L78.65859375,33.57326806858668L78.890625,33.51957674829709L79.12265625,33.41981150085407L79.3546875,33.36251969915761L79.58671875,33.2879765241671L79.81875000000001,33.16594531607725L80.05078125,33.065049818951216L80.2828125,32.94388871440396L80.51484375000001,32.84202526458217L80.74687499999999,32.682456519154L80.97890625,32.569352772525285L81.2109375,32.432632138079136L81.44296874999999,32.34914547177653L81.675,32.23817617088823L81.90703125,32.12495046692857L82.1390625,32.046786780046034L82.37109375,31.941145759932695L82.603125,31.84205325455812L82.83515625,31.731712940752512L83.0671875,31.597874136986512L83.29921875000001,31.55047629108437L83.53125,31.455914283010358L83.76328125,31.38010253801419L83.99531250000001,31.268113355178652L84.22734375,31.138021262626513L84.45937500000001,31.05170689265529L84.69140624999999,30.93645768739397L84.92343749999999,30.831326480779826L85.15546875,30.723884196550955L85.38749999999999,30.636993168276458L85.61953125,30.540563370424607L85.8515625,30.44698821901566L86.08359374999999,30.27385142127417L86.315625,30.192015179731133L86.54765625,30.077852161916823L86.7796875,29.96848366165957L87.01171875,29.869095151973326L87.24375,29.786553597137054L87.47578125,29.689234436870777L87.7078125,29.62616089092619L87.93984375000001,29.56031220519972L88.171875,29.4812670055873L88.40390625,29.406593782447835L88.63593750000001,29.37800330090832L88.86796875,29.30104048767285L89.10000000000001,29.21625093305636L89.33203125000001,29.094198583697874L89.56406249999999,28.970040059694817L89.79609375,28.83165543644395L90.02812499999999,28.76070253675571L90.26015625,28.678410870088925L90.4921875,28.614354729500963L90.72421874999999,28.506008548281848L90.95625,28.47498273461025L91.18828125,28.380330249442483L91.4203125,28.302279712151606L91.65234375,28.263089387850343L91.884375,28.17427524668506L92.11640625,28.112321371992017L92.3484375,28.020014489417797L92.58046875000001,27.94251364803777L92.8125,27.829694391825036L93.04453125,27.743942547652388L93.27656250000001,27.64020575918798L93.50859374999999,27.532449623380558L93.740625,27.510111184108567L93.97265625,27.47083549991206L94.20468749999999,27.399360065625093L94.43671875,27.399046653351135L94.66875,27.405599705330467L94.90078125,27.37263732936597L95.1328125,27.322893528185332L95.36484375,27.23428499540546L95.596875,27.15349301897301L95.82890625,27.020514856099606L96.0609375,26.91807218740585L96.29296875,26.818453931002914L96.525,26.726756461706472L96.75703125,26.65485177711236L96.9890625,26.573478470819367L97.22109375000001,26.434936738681362L97.453125,26.34568196669599L97.68515625,26.363162289097534L97.91718750000001,26.279843553108854L98.14921874999999,26.260493970335524L98.38125,26.226018370155952L98.61328125,26.16125700521035L98.84531249999999,26.112516657308433L99.07734375,26.057493834546484L99.309375,25.992856039813958L99.54140625,25.979930903761204L99.7734375,25.95524504194289L100.00546875,25.915530596692335L100.2375,25.867749055840477L100.46953125,25.83236629252794L100.70156250000001,25.776993571498476L100.93359375,25.732394896675945L101.165625,25.689969771006364L101.39765625000001,25.63104202087301L101.6296875,25.549013347422648L101.86171875000001,25.488194698614667L102.09374999999999,25.45173989928505L102.32578124999999,25.39535389973144L102.5578125,25.331105187014426L102.78984374999999,25.240465428501214L103.021875,25.149099123989096L103.25390625,25.09421863367095L103.48593749999999,25.05851805402913L103.71796875,24.99277599544503L103.95,24.905768377302074L104.18203125,24.809550385532173L104.4140625,24.702533620518484L104.64609375,24.613531349279413L104.878125,24.540659339196345L105.11015625,24.478680754470375L105.34218750000001,24.425790467857805L105.57421875,24.332996111707487L105.80625,24.21927124023183L106.03828125000001,24.1623535381719L106.2703125,24.09929868122941L106.50234375000001,24.03185723645725L106.73437500000001,24.02236988898137L106.96640624999999,23.969220547938626L107.1984375,23.88634269216182L107.43046874999999,23.81443132691985L107.6625,23.739913199874298L107.89453125,23.67290455273136L108.12656249999999,23.586429340210028L108.35859375,23.479016532707366L108.590625,23.434894865129873L108.82265625,23.372760224969245L109.0546875,23.276013984629163L109.28671875,23.197070709035195L109.51875,23.14077446080288L109.75078125,23.041440046502444L109.98281250000001,22.97837588089168L110.21484375,22.892490909012356L110.446875,22.802474438578905L110.67890625000001,22.777103700865815L110.91093749999999,22.68328049774676L111.14296875,22.62897807107537L111.375,22.607073533837585L111.60703124999999,22.61219624258245L111.8390625,22.573727214913085L112.07109375,22.517243617008248L112.303125,22.48813030809152L112.53515625,22.442585656857087L112.7671875,22.355687878136095L112.99921875,22.27304061280577L113.23125,22.179546790708507L113.46328125,22.133844241714577L113.6953125,22.060197557613876L113.92734375,21.985645356016583L114.159375,21.940276347014688L114.39140625,21.893707844317756L114.62343750000001,21.85931605393615L114.85546875,21.79020925332935L115.0875,21.706791699451323L115.31953125000001,21.629248066685236L115.55156249999999,21.57587676103992L115.78359375,21.516383378247713L116.015625,21.472523416886744L116.24765624999999,21.45914611305528L116.4796875,21.40587689673588L116.71171875,21.401520707944496L116.94375,21.408881149472226L117.17578125,21.35781826740011L117.4078125,21.327284842230057L117.63984375,21.29373398798706L117.871875,21.26719474978535L118.10390625000001,21.21927256304732L118.3359375,21.191833293888653L118.56796875,21.1580157696148L118.80000000000001,21.129542719730438L119.03203125,21.142984592257918L119.26406250000001,21.108014908253637L119.49609374999999,21.041783487893078L119.72812499999999,20.994539689791534L119.96015625,20.989378146691656L120.19218749999999,21.06578415644466L120.42421875,21.098157170333504L120.65625,21.160131936320944L120.88828124999999,21.154956152989833L121.1203125,21.13154521988588L121.35234375,21.115024478779212L121.584375,21.088701154602273L121.81640625,21.042706104392806L122.0484375,20.997183832161195L122.28046875,21.028553699400145L122.5125,20.99149325236513L122.74453125000001,20.91162891161517L122.9765625,20.85583483850483L123.20859375,20.81555796402034L123.44062500000001,20.739168290182675L123.67265625,20.673522646702974L123.90468750000001,20.628468566223955L124.13671875000001,20.550683684075807L124.36874999999999,20.47701521116357L124.60078125,20.394146350268905L124.83281249999999,20.31378559429179L125.06484375,20.232589319711753L125.296875,20.170469422318554L125.52890624999999,20.11396067029913L125.7609375,20.0381320388927L125.99296875,19.9862916381312L126.225,19.920061304022436L126.45703125,19.879372844564692L126.6890625,19.835785745547824L126.92109375,19.80755959201718L127.153125,19.748137802599405L127.38515625000001,19.672754365628386L127.6171875,19.637902161570914L127.84921875,19.623284107793786L128.08125,19.58397031628488L128.31328125,19.545057993662155L128.5453125,19.559534622362108L128.77734375,19.583798525785046L129.009375,19.619404209483765L129.24140625,19.64305836969258L129.47343750000002,19.635020175537882L129.70546875,19.60554707349395L129.9375,19.642573940291143L130.16953125,19.687497366015563L130.4015625,19.78160262840058L130.63359375,19.800296239308825L130.865625,19.812181989520855L131.09765625,19.794171348368028L131.3296875,19.81934896447022L131.56171874999998,19.837654646564147L131.79375,19.822699532510725L132.02578125,19.79797506930917L132.2578125,19.78507634518241L132.48984375,19.769002205980833L132.721875,19.749785441011973L132.95390625,19.710928197023534L133.1859375,19.72370453543699L133.41796875,19.713213047504045L133.65,19.68299733298024L133.88203125,19.67126565755938L134.11406250000002,19.709222141852653L134.34609375,19.670793375428854L134.578125,19.654231448465502L134.81015625,19.65931242039704L135.04218749999998,19.685814713859795L135.27421875,19.67240873111059L135.50625,19.6426236761208L135.73828125,19.6213981082816L135.9703125,19.585526754452562L136.20234375,19.554972737045546L136.434375,19.498312865619155L136.66640625,19.4785473389563L136.8984375,19.421014666888954L137.13046875,19.388825369825742L137.3625,19.399876191198935L137.59453125,19.433920594056385L137.8265625,19.41646079888757L138.05859375,19.37937585358382L138.290625,19.36246764148865L138.52265625,19.342430790545635L138.75468750000002,19.307748465590244L138.98671875,19.24042313262776L139.21875,19.17213013068499L139.45078125,19.172159043703605L139.6828125,19.18043465435983L139.91484375,19.13255026010008L140.146875,19.132977454944086L140.37890625,19.11855852740667L140.6109375,19.069656800130137L140.84296875,19.064121125391456L141.07500000000002,19.01247558184362L141.30703125,18.964649973421604L141.5390625,18.960171583579267L141.77109375,18.944198994079112L142.003125,18.9267396480296L142.23515625000002,18.868249417619275L142.46718750000002,18.88122352184638L142.69921875,18.897362750995143L142.93125,18.91169060110519L143.16328125,18.866548351442546L143.39531250000002,18.859762596140765L143.62734375000002,18.829977065831418L143.85937500000003,18.838388808640143L144.09140624999998,18.828592203489865L144.32343749999998,18.866671575957646L144.55546875,18.878007822450634L144.7875,18.81839527717906L145.01953125,18.777504505615404L145.25156249999998,18.730438204932817L145.48359374999998,18.659141317898953L145.715625,18.57538864077838L145.94765625,18.560004453769704L146.1796875,18.510192499963065L146.41171875,18.447709559063888L146.64374999999998,18.39409063838391L146.87578125,18.383823950466514L147.1078125,18.32920545729559L147.33984375,18.27678456969558L147.571875,18.236417197277742L147.80390625,18.214566245880466L148.0359375,18.217628635406815L148.26796875,18.210783463082798L148.5,18.199069122800765L148.73203125,18.147969326726955L148.9640625,18.11878174245593L149.19609375000002,18.084951153530344L149.428125,18.049815793471687L149.66015625,18.02161753586895L149.8921875,18.023324918935707L150.12421875,17.997040706839286L150.35625000000002,17.992412919415084L150.58828125000002,17.979604451807266L150.8203125,17.978442718003848L151.05234375,17.944386624592358L151.284375,17.92548105320919L151.51640625000002,17.91005623904821L151.74843750000002,17.888206400387094L151.98046874999997,17.863286716175097L152.21249999999998,17.815588152621586L152.44453124999998,17.74698610771149L152.6765625,17.741579924523528L152.90859375,17.686884109035493L153.140625,17.69688415525788L153.37265624999998,17.683757959717187L153.60468749999998,17.69214408888885L153.83671875,17.68071090151055L154.06875,17.62992467168625L154.30078125,17.633916659724015L154.5328125,17.655956947766953L154.76484374999998,17.677775358347994L154.996875,17.691152726020313L155.22890625,17.712616585711633L155.4609375,17.669741337167153L155.69296875,17.650315344346602L155.925,17.61464415439895L156.15703125,17.584263847561015L156.3890625,17.664335493314546L156.62109375,17.745245353071713L156.853125,17.766161886956027L157.08515625,17.755635264252685L157.3171875,17.750145917341964L157.54921875,17.710193586299948L157.78125,17.685436172277278L158.01328125,17.683938696699546L158.2453125,17.662733291907763L158.47734375000002,17.622018722767233L158.709375,17.62773107268124L158.94140625,17.58243941086827L159.1734375,17.5458203124698L159.40546875,17.502995999444146L159.63750000000002,17.475391961305913L159.86953125000002,17.495719808229673L160.1015625,17.501054377497667L160.33359375,17.529339677725982L160.565625,17.578701329750192L160.79765625000002,17.553628017931604L161.02968750000002,17.56659667112786L161.26171875000003,17.544932106716317L161.49374999999998,17.511984458741857L161.72578124999998,17.490868441894026L161.9578125,17.44039259660189L162.18984375,17.434780803235647L162.421875,17.44072487085969L162.65390624999998,17.476178887513104L162.88593749999998,17.480065049938535L163.11796875,17.46091464087209L163.35,17.422244816438837L163.58203125,17.39053390427695L163.8140625,17.354213754760167L164.04609374999998,17.334683919497017L164.278125,17.353127629588656L164.51015625,17.40587781976238L164.7421875,17.408825430846388L164.97421875,17.477439003152636L165.20625,17.481311668810683L165.43828125,17.449014410133817L165.6703125,17.46302538326564L165.90234375,17.452261985239318L166.134375,17.47773544870672L166.36640625,17.557145334661826L166.59843750000002,17.573356119357253L166.83046875,17.540140558727373L167.0625,17.53353191245721L167.29453125,17.51549514367832L167.5265625,17.502565570482012L167.75859375000002,17.494691614016162L167.99062500000002,17.5000324118073L168.22265625,17.500393959023675L168.4546875,17.50075187741893L168.68671875,17.4715523773268L168.91875000000002,17.457422678939523L169.15078125000002,17.43686752790029L169.38281249999997,17.450995871668642L169.61484374999998,17.463340733082465L169.84687499999998,17.441085501559172L170.07890625,17.440395617936133L170.3109375,17.39374609226017L170.54296875,17.352489616080202L170.77499999999998,17.328063128362164L171.00703124999998,17.294032290900795L171.2390625,17.296457110413108L171.47109375,17.26930988148194L171.703125,17.211246506237128L171.93515625,17.184953599666848L172.16718749999998,17.154000240032246L172.39921875,17.141412948530608L172.63125,17.124027862388765L172.86328125,17.072348241910085L173.0953125,17.047448439031918L173.32734375,17.05070093358345L173.559375,17.139268480799945L173.79140625,17.615930534461004L174.0234375,17.698835037670623L174.25546875,17.80060292073152L174.4875,17.838984347220634L174.71953125,17.85400436595855L174.9515625,17.89677350338801L175.18359375,17.906290942516787L175.415625,17.91899529082688L175.64765625,17.91844347967452L175.87968750000002,17.904768605253636L176.11171875,17.855127788541864L176.34375,17.819112930046618L176.57578125,17.799869145851616L176.8078125,17.78574131221597L177.03984375000002,17.766832161100847L177.27187500000002,17.728421428533647L177.50390625,17.68055009852609L177.7359375,17.684026584596083L177.96796875,17.680904678284744L178.20000000000002,17.67289162792726L178.43203125000002,17.64034615801762L178.66406250000003,17.578592145028782L178.89609374999998,17.54371003436463L179.12812499999998,17.507536820343507L179.36015625,17.542278864088356L179.5921875,17.599643303585882L179.82421875,17.643306952943945L180.05624999999998,17.614341824378414L180.28828124999998,17.574182069946872L180.5203125,17.588567075878935L180.75234375,17.594604466659533L180.984375,17.587456434532978L181.21640625,17.60170809166029L181.44843749999998,17.62894157368857L181.68046875,17.641136902803893L181.9125,17.649928988284397L182.14453125,17.647149031762037L182.3765625,17.6247106748243L182.60859375,17.605778089175868L182.840625,17.605080824485224L183.07265625,17.58962618877272L183.3046875,17.603854826012164L183.53671875,17.594974383264656L183.76875,17.563216823712313L184.00078125000002,17.546541227702864L184.2328125,17.57268329633594L184.46484375,17.564115188949312L184.696875,17.539229210272836L184.92890625,17.526075159665087L185.16093750000002,17.472044142855424L185.39296875000002,17.443159292666383L185.625,17.41948481845169L185.85703125,17.44689690297696L186.0890625,17.44943013994981L186.32109375000002,17.42569351751407L186.55312500000002,17.415316791988687L186.78515624999997,17.38208057562743L187.01718749999998,17.365579554614364L187.24921874999998,17.32136003196649L187.48125,17.30382681531293L187.71328125,17.265146677282583L187.9453125,17.23997544147236L188.17734374999998,17.27574245036206L188.40937499999998,17.265226958996823L188.64140625,17.22529423459107L188.8734375,17.189041609968847L189.10546875,17.151511988461134L189.3375,17.147160216912L189.56953124999998,17.16253320405017L189.8015625,17.203993612377413L190.03359375,17.177795832417495L190.265625,17.171541152820158L190.49765625,17.142388506747487L190.7296875,17.129928080876017L190.96171875,17.107752373203454L191.19375,17.10055882057094L191.42578125,17.090157397303393L191.6578125,17.053620228116486L191.88984375,17.009249057821897L192.121875,16.96368205603858L192.35390625,16.9316910096912L192.5859375,16.94593889951378L192.81796875,16.89936640734546L193.05,16.86473979010468L193.28203125000002,16.820620255298447L193.5140625,16.86221750690354L193.74609375,16.868960667562032L193.978125,16.87235643176556L194.21015625,16.85276000349972L194.44218750000002,16.85631782973304L194.67421875000002,16.858200229439085L194.90625,16.842025388625704L195.13828125,16.909644149149116L195.3703125,16.978225722382504L195.60234375000002,16.97724854138409L195.83437500000002,16.95496364584412L196.06640625000003,16.906665009992878L196.29843749999998,16.885086585907633L196.53046874999998,16.880121918915442L196.7625,16.881766053678827L196.99453125,16.84895868542158L197.2265625,16.836156832082526L197.45859374999998,16.851358814068462L197.69062499999998,16.79753962010407L197.92265625,16.770494885204737L198.1546875,16.72896341267848L198.38671875,16.71244324611293L198.61875,16.715764932028584L198.85078124999998,16.72069301449304L199.0828125,16.702616200143783L199.31484375,16.673242495476497L199.546875,16.704830734300096L199.77890625,16.722985452874802L200.0109375,16.74259806035732L200.24296875,16.78824878863407L200.475,16.803929098243376L200.70703125,16.817812666705823L200.9390625,16.83319706175205L201.17109375,16.840229418475715L201.40312500000002,16.870145888782247L201.63515625,16.865331229274684L201.8671875,16.857285663114023L202.09921875,16.88703110698324L202.33125,16.91811837700934L202.56328125000002,16.921021718022843L202.79531250000002,16.91897723146574L203.02734375,16.964500556431464L203.259375,16.955463097318155L203.49140625,17.00390025520651L203.72343750000002,17.04693396426394L203.95546875000002,17.143641521737376L204.18749999999997,17.254136986141432L204.41953124999998,17.30286443091568L204.65156249999998,17.369138998443646L204.88359375,17.380646418667745L205.115625,17.35105104498182L205.34765625,17.37585533545456L205.57968749999998,17.382376899867452L205.81171874999998,17.406867634725504L206.04375,17.40160269259861L206.27578125,17.36687995145272L206.5078125,17.3292256355116L206.73984375,17.339492579320574L206.97187499999998,17.323425422939792L207.20390625,17.31079806281581L207.4359375,17.291739267609678L207.66796875,17.27123158748082L207.9,17.298472759326497L208.13203125,17.33199906806951L208.3640625,17.365189894310532L208.59609375,17.396409228564835L208.828125,17.412561476544983L209.06015625,17.38264859344704L209.2921875,17.385823142241748L209.52421875,17.392244621504968L209.75625,17.377289757059376L209.98828125,17.360845194723918L210.2203125,17.32489255074746L210.45234375,17.31880839382141L210.68437500000002,17.261964624626057L210.91640625,17.251592011941455L211.1484375,17.229847569801105L211.38046875,17.229632342520237L211.6125,17.235976695641636L211.84453125000002,17.227503453479937L212.07656250000002,17.202721621488593L212.30859375,17.168351581264005L212.540625,17.152358204926664L212.77265625,17.123410176803937L213.00468750000002,17.104587655936736L213.23671875000002,17.082674915090788L213.46875000000003,17.070817236516703L213.70078124999998,17.070553465470503L213.93281249999998,17.070292333490986L214.16484375,17.045444138406868L214.396875,17.05199138016751L214.62890625,17.081423210460823L214.86093749999998,17.05154613682152L215.09296874999998,17.074425107901867L215.325,17.095435943431603L215.55703125,17.094925931889016L215.7890625,17.06983177013432L216.02109375,17.104002608537215L216.25312499999998,17.100128264014337L216.48515625,17.08645717524997L216.7171875,17.066365800661686L216.94921875,17.069424979460276L217.18125,17.10359949536621L217.41328125,17.09153301097059L217.6453125,17.123846838904942L217.87734375,17.121413475000644L218.109375,17.148510723741563L218.34140625,17.117963660470497L218.5734375,17.099196690297248L218.80546875000002,17.093731328856318L219.0375,17.09979530084077L219.26953125,17.15169672131268L219.5015625,17.17849073826955L219.73359375,17.214851917799603L219.96562500000002,17.23117874988922L220.19765625000002,17.23095022772961L220.4296875,17.25367281985216L220.66171875,17.284364077934125L220.89375,17.286882115220703L221.12578125000002,17.24347735841063L221.35781250000002,17.25132176219142L221.58984374999997,17.2656444691562L221.82187499999998,17.30277246566852L222.05390624999998,17.331333160431655L222.2859375,17.33665966004453L222.51796875,17.353407203834816L222.75,17.36015203213328L222.98203124999998,17.370107847101288L223.21406249999998,17.46192243311823L223.44609375,17.554457678695183L223.678125,17.596892535889634L223.91015625,17.624150257196828L224.1421875,17.639661331674677L224.37421874999998,17.666491205382396L224.60625,17.652074027583897L224.83828125,17.63944016956736L225.0703125,17.61381947476007L225.30234375,17.585176874221684L225.534375,17.53879012140341L225.76640625,17.50598053292473L225.9984375,17.46530348442774L226.23046875,17.4430637026539L226.4625,17.40629420680172L226.69453125,17.35186219506264L226.9265625,17.371735336375696L227.15859375,17.39304876545807L227.390625,17.368253648823845L227.62265625,17.33387191023145L227.8546875,17.29491666538567L228.08671875000002,17.26618569738148L228.31875,17.244298590134147L228.55078125,17.24066073936113L228.7828125,17.222307308243845L229.01484375,17.153324957791334L229.24687500000002,17.157153414302947L229.47890625000002,17.154387148415932L229.7109375,17.169678547019622L229.94296875,17.20448622467987L230.175,17.20288562934522L230.40703125000002,17.176714513364605L230.63906250000002,17.191782532820916L230.87109375000003,17.24275980701635L231.10312499999998,17.268640955787106L231.33515624999998,17.26639874585682L231.5671875,17.2936824501652L231.79921875,17.297746147151493L232.03125,17.264070410702264L232.26328124999998,17.229092268947692L232.49531249999998,17.2190502533091L232.72734375,17.22058207465156L232.959375,17.20734693379931L233.19140625,17.218830354548782L233.4234375,17.207251994008544L233.65546874999998,17.203984747502368L233.8875,17.18435937716163L234.11953125,17.120675624326356L234.3515625,17.118274243513195L234.58359375,17.084754602524978L234.815625,17.053209448782365L235.04765625,17.012145339260876L235.2796875,16.966574723465428L235.51171875,16.975548760077924L235.74375,16.982794035001916L235.97578125,16.95390774908348L236.20781250000002,16.944979017393752L236.43984375,16.970559403891656L236.671875,16.9909669465182L236.90390625,17.02756075096743L237.1359375,17.104764660882275L237.36796875000002,17.15824965138052L237.60000000000002,17.16366769411379L237.83203125,17.17722670401181L238.0640625,17.174259799221606L238.29609375,17.186073867800634L238.52812500000002,17.201047744507548L238.76015625000002,17.248652579817822L238.99218749999997,17.272834903107178L239.22421874999998,17.314804570025725L239.45624999999998,17.341603234201028L239.68828125,17.36157774440018L239.9203125,17.371518406654364L240.15234375,17.332188916994074L240.38437499999998,17.293252786521165L240.61640624999998,17.29732062832984L240.8484375,17.278401557315004L241.08046875,17.24819849671015L241.3125,17.24288267409081L241.54453125,17.262205369725535L241.77656249999998,17.296085923910073L242.00859375,17.293569343386082L242.240625,17.276326839694427L242.47265625,17.229754623388466L242.7046875,17.227901410319376L242.93671875,17.219510682028318L243.16875,17.160394680430475L243.40078125,17.165791160901346L243.6328125,17.115407469370343L243.86484375,17.129448832068693L244.096875,17.14171080768303L244.32890625,17.132543127474587L244.5609375,17.14477414113891L244.79296875,17.151965765504556L245.025,17.173836431018675L245.25703125,17.14959654098984L245.48906250000002,17.155100976589907L245.72109375,17.162189306897446L245.953125,17.169206744798363L246.18515625,17.159764136376722L246.4171875,17.168444761641812L246.64921875000002,17.13770290589689L246.88125000000002,17.135131348034022L247.11328125,17.132585508890436L247.3453125,17.121870225110747L247.57734375,17.091594217564296L247.80937500000002,17.07801079856517L248.04140625000002,17.05145131894366L248.27343750000003,17.028435546247362L248.50546874999998,16.99581593059746L248.73749999999998,16.98319038026577L248.96953125,16.941189473837834L249.2015625,16.94713911108399L249.43359375,16.956307106370897L249.66562499999998,16.950632623328822L249.89765624999998,16.96140460028666L250.1296875,16.96551292364791L250.36171875,16.997442761506445L250.59375,17.02905326744635L250.82578125,17.039040974532064L251.05781249999998,17.070235444163682L251.28984375,17.063421640947208L251.521875,17.066509729872347L251.75390625,17.04826031733594L251.9859375,17.046583260671703L252.21796875,17.08589703777745L252.45,17.10678910290262L252.68203125,17.097970847195427L252.9140625,17.079406853065457L253.14609375,17.05611176499149L253.378125,17.0264937730857L253.61015625000002,17.013561566308475L253.8421875,17.002397608237633L254.07421875,16.988067471646733L254.30625,16.97551956259514L254.53828125,16.98112581567542L254.77031250000002,17.02109399536446L255.00234375000002,17.0606624585713" style="fill: none;" fill="none"></path></g></g></g></g><g opacity="0.2"><g><g><g><path stroke="rgb(204, 51, 17)" stroke-width="2px" d="M23.203125,124.39166057109833L23.43515625,114.55834364891052L23.6671875,93.9083422422409L23.89921875,97.18610751628876L24.13125,92.26943850517273L24.36328125,99.80833661556244L24.5953125,89.15555727481842L24.82734375,94.56387841701508L25.059375,96.3666661977768L25.29140625,90.46667182445526L25.523437499999996,92.92499577999115L25.75546875,85.71388685703278L25.9875,72.93055164813995L26.21953125,81.7805643081665L26.4515625,87.02500140666962L26.683593750000004,103.74165916442871L26.915625,100.95554602146149L27.14765625,93.74443709850311L27.3796875,90.79443991184235L27.61171875,99.15277934074402L27.84375,96.20278215408325L28.07578125,97.02222347259521L28.3078125,91.12222909927368L28.53984375,93.9083422422409L28.771875,92.26943850517273L29.00390625,90.13888263702393L29.2359375,96.03889811038971L29.46796875,93.9083422422409L29.700000000000003,98.16945397853851L29.932031249999998,90.46667182445526L30.1640625,100.6277779340744L30.39609375,91.7777863740921L30.628125,91.94167041778564L30.860156250000003,90.30278778076172L31.092187499999998,94.39999437332153L31.32421875,90.30278778076172L31.55625,86.20556008815765L31.78828125,84.89444553852081L32.0203125,81.12500703334808L32.25234375,79.6500084400177L32.484375,83.58333098888397L32.71640625,80.6333338022232L32.9484375,77.19166338443756L33.18046875,83.41944694519043L33.4125,79.81389248371124L33.64453125,74.07778215408325L33.8765625,85.2222136259079L34.10859375,75.71666479110718L34.340625,66.375L34.57265625,86.20556008815765L34.8046875,78.66666197776794L35.03671875,84.73056149482727L35.268750000000004,73.25834083557129L35.50078125,68.01388263702393L35.7328125,59.00000703334808L35.96484375000001,62.60556149482727L36.196875,54.2472220659256L36.42890625,75.71666479110718L36.660937499999996,59.655564308166504L36.89296875,59.98333239555359L37.125,52.60833942890167L37.35703125,52.44443428516388L37.589062500000004,69.81667041778564L37.82109375,60.966657757759094L38.053124999999994,69.6527863740921L38.28515625,65.55555868148804L38.5171875,75.88054883480072L38.74921875,76.69999015331268L38.98125,95.87499296665192L39.21328125,97.02222347259521L39.4453125,66.21111595630646L39.67734375,53.0999915599823L39.909375000000004,54.2472220659256L40.14140625,59.32777512073517L40.373437499999994,52.44443428516388L40.60546875,52.93610751628876L40.8375,55.2305474281311L41.06953125,44.74167323112488L41.3015625,54.57499015331268L41.53359375,49.49443709850311L41.765625,46.05278778076172L41.997656250000006,50.47778356075287L42.229687500000004,44.25L42.461718749999996,43.59444272518158L42.693749999999994,45.3972305059433L42.92578125,43.922231912612915L43.1578125,44.90555727481842L43.38984375,36.71110188961029L43.621875,39.16944694519043L43.85390625,39.16944694519043L44.0859375,42.119444131851196L44.317968750000006,36.05556571483612L44.550000000000004,45.233325362205505L44.782031249999996,37.85833239555359L45.014062499999994,48.83887982368469L45.24609375,40.808329582214355L45.478125,38.51388967037201L45.71015625,43.266674637794495L45.9421875,49.98611032962799L46.17421875,34.416661977767944L46.40625,36.05556571483612L46.638281250000006,37.20277512073517L46.8703125,35.072219252586365L47.102343749999996,37.530564308166504L47.334375,36.05556571483612L47.56640625,34.08889389038086L47.7984375,47.5277863740921L48.03046875,43.266674637794495L48.2625,35.56389248371124L48.49453125,32.28610610961914L48.7265625,38.02221643924713L48.958593750000006,36.383333802223206L49.190625,38.35000562667847L49.422656249999996,33.1055474281311L49.6546875,31.302780747413635L49.88671875,33.59722065925598L50.11875,31.794453978538513L50.350781250000004,33.92500984668732L50.5828125,32.613895297050476L50.81484375,28.680551648139954L51.04687499999999,29.17222487926483L51.27890625,35.89166057109833L51.5109375,29.17222487926483L51.742968749999996,30.155550241470337L51.975,30.647223472595215L52.20703125,26.058343648910522L52.4390625,29.827782154083252L52.671093750000004,30.647223472595215L52.903125,28.188878417015076L53.13515625,29.336108922958374L53.36718750000001,27.533342242240906L53.59921875,30.31943428516388L53.83125,31.138896703720093L54.063281249999996,39.98888826370239L54.2953125,27.86111032962799L54.52734375,29.991666197776794L54.759375,30.31943428516388L54.991406250000004,27.86111032962799L55.2234375,27.533342242240906L55.455468749999994,25.730554461479187L55.6875,31.63054883480072L55.91953125,32.28610610961914L56.1515625,64.90000140666962L56.38359375,44.577768087387085L56.615625,41.79167604446411L56.84765625,34.08889389038086L57.0796875,34.90833520889282L57.311718750000004,27.86111032962799L57.54375,27.533342242240906L57.775781249999994,25.89443850517273L58.0078125,31.958338022232056L58.23984375,28.680551648139954L58.471875,27.369437098503113L58.70390625,31.958338022232056L58.9359375,28.188878417015076L59.16796875,25.23888123035431L59.400000000000006,26.713879823684692L59.632031250000004,26.713879823684692L59.864062499999996,25.730554461479187L60.096093749999994,23.2722305059433L60.328125,29.991666197776794L60.56015625,24.09167182445526L60.7921875,21.141674637794495L61.02421875,24.74722909927368L61.25625,21.633326768875122L61.48828125,23.763882637023926L61.720312500000006,24.09167182445526L61.952343750000004,21.141674637794495L62.184374999999996,25.074997186660767L62.416406249999994,26.386111736297607L62.6484375,31.958338022232056L62.88046875,26.386111736297607L63.1125,23.92778778076172L63.34453125,21.633326768875122L63.5765625,19.994444131851196L63.80859375,20.650001406669617L64.040625,27.86111032962799L64.27265625,21.633326768875122L64.5046875,24.255555868148804L64.73671875000001,24.74722909927368L64.96875,24.74722909927368L65.20078125,26.386111736297607L65.4328125,25.566670417785645L65.66484375,27.533342242240906L65.896875,21.797231912612915L66.12890625,30.155550241470337L66.3609375,26.058343648910522L66.59296875,25.89443850517273L66.825,20.81388545036316L67.05703125000001,22.78055727481842L67.2890625,25.566670417785645L67.52109374999999,25.23888123035431L67.753125,25.730554461479187L67.98515625,28.51666760444641L68.2171875,21.961115956306458L68.44921875,26.386111736297607L68.68125,21.797231912612915L68.91328125,25.566670417785645L69.1453125,24.58332395553589L69.37734375000001,23.92778778076172L69.609375,21.797231912612915L69.84140625,24.419439911842346L70.0734375,30.31943428516388L70.30546875,32.28610610961914L70.53750000000001,28.188878417015076L70.76953125,28.844435691833496L71.0015625,27.369437098503113L71.23359375000001,29.827782154083252L71.465625,27.20555305480957L71.69765625000001,27.69722628593445L71.92968750000001,26.713879823684692L72.16171874999999,24.09167182445526L72.39375,18.35556149482727L72.62578124999999,22.616673231124878L72.8578125,20.32221221923828L73.08984375,21.633326768875122L73.32187499999999,24.58332395553589L73.55390625,23.2722305059433L73.7859375,23.92778778076172L74.01796875,23.43611454963684L74.25,20.486117362976074L74.48203125,18.683329582214355L74.7140625,24.58332395553589L74.94609375,23.92778778076172L75.17812500000001,22.944441318511963L75.41015625,20.650001406669617L75.6421875,19.830560088157654L75.87421875000001,21.797231912612915L76.10624999999999,25.074997186660767L76.33828125,24.58332395553589L76.5703125,25.730554461479187L76.80234374999999,19.830560088157654L77.034375,22.452768087387085L77.26640625,19.338886857032776L77.4984375,23.2722305059433L77.73046875,19.66667604446411L77.9625,27.69722628593445L78.19453125,37.20277512073517L78.4265625,31.63054883480072L78.65859375,26.54999577999115L78.890625,28.680551648139954L79.12265625,24.419439911842346L79.3546875,28.188878417015076L79.58671875,26.54999577999115L79.81875000000001,22.125L80.05078125,23.92778778076172L80.2828125,21.961115956306458L80.51484375000001,23.599998593330383L80.74687499999999,18.191656351089478L80.97890625,22.288884043693542L81.2109375,19.994444131851196L81.44296874999999,24.74722909927368L81.675,22.125L81.90703125,21.797231912612915L82.1390625,24.911113142967224L82.37109375,22.288884043693542L82.603125,22.78055727481842L82.83515625,21.633326768875122L83.0671875,19.338886857032776L83.29921875000001,27.20555305480957L83.53125,22.78055727481842L83.76328125,24.419439911842346L83.99531250000001,20.9777694940567L84.22734375,19.175002813339233L84.45937500000001,23.108325362205505L84.69140624999999,20.32221221923828L84.92343749999999,21.141674637794495L85.15546875,20.81388545036316L85.38749999999999,22.616673231124878L85.61953125,21.633326768875122L85.8515625,21.797231912612915L86.08359374999999,14.258333802223206L86.315625,22.616673231124878L86.54765625,19.50277090072632L86.7796875,19.830560088157654L87.01171875,20.650001406669617L87.24375,22.125L87.47578125,20.650001406669617L87.7078125,23.763882637023926L87.93984375000001,23.43611454963684L88.171875,22.125L88.40390625,22.452768087387085L88.63593750000001,26.713879823684692L88.86796875,22.125L89.10000000000001,21.305558681488037L89.33203125000001,17.70000422000885L89.56406249999999,17.372215032577515L89.79609375,15.897216439247131L90.02812499999999,22.125L90.26015625,20.9777694940567L90.4921875,22.616673231124878L90.72421874999999,18.35556149482727L90.95625,25.566670417785645L91.18828125,19.50277090072632L91.4203125,20.9777694940567L91.65234375,24.58332395553589L91.884375,19.830560088157654L92.11640625,22.288884043693542L92.3484375,19.338886857032776L92.58046875000001,20.650001406669617L92.8125,17.208330988883972L93.04453125,19.66667604446411L93.27656250000001,17.863888263702393L93.50859374999999,17.372215032577515L93.740625,25.402786374092102L93.97265625,23.763882637023926L94.20468749999999,20.650001406669617L94.43671875,27.369437098503113L94.66875,28.024994373321533L94.90078125,24.255555868148804L95.1328125,22.616673231124878L95.36484375,18.847213625907898L95.596875,19.50277090072632L95.82890625,14.422217845916748L96.0609375,17.208330988883972L96.29296875,17.372215032577515L96.525,18.027772307395935L96.75703125,19.830560088157654L96.9890625,18.847213625907898L97.22109375000001,13.2750084400177L97.453125,17.863888263702393L97.68515625,28.024994373321533L97.91718750000001,18.35556149482727L98.14921874999999,24.419439911842346L98.38125,22.944441318511963L98.61328125,19.994444131851196L98.84531249999999,21.46944272518158L99.07734375,20.81388545036316L99.309375,19.830560088157654L99.54140625,24.74722909927368L99.7734375,23.599998593330383L100.00546875,22.125L100.2375,21.305558681488037L100.46953125,22.452768087387085L100.70156250000001,20.486117362976074L100.93359375,21.46944272518158L101.165625,21.633326768875122L101.39765625000001,19.994444131851196L101.6296875,17.70000422000885L101.86171875000001,19.66667604446411L102.09374999999999,21.961115956306458L102.32578124999999,19.994444131851196L102.5578125,19.175002813339233L102.78984374999999,16.55277371406555L103.021875,16.38888967037201L103.25390625,19.830560088157654L103.48593749999999,21.633326768875122L103.71796875,18.683329582214355L103.95,16.55277371406555L104.18203125,15.569448351860046L104.4140625,14.422217845916748L104.64609375,16.061121582984924L104.878125,17.536120176315308L105.11015625,18.519445538520813L105.34218750000001,19.338886857032776L105.57421875,15.405564308166504L105.80625,13.2750084400177L106.03828125000001,18.683329582214355L106.2703125,18.027772307395935L106.50234375000001,17.536120176315308L106.73437500000001,23.108325362205505L106.96640624999999,18.847213625907898L107.1984375,15.897216439247131L107.43046874999999,16.880562901496887L107.6625,16.55277371406555L107.89453125,17.208330988883972L108.12656249999999,15.241659164428711L108.35859375,13.111103296279907L108.590625,19.175002813339233L108.82265625,17.372215032577515L109.0546875,13.93056571483612L109.28671875,15.569448351860046L109.51875,17.70000422000885L109.75078125,13.438892483711243L109.98281250000001,16.880562901496887L110.21484375,14.58610188961029L110.446875,14.094449758529663L110.67890625000001,20.32221221923828L110.91093749999999,13.602776527404785L111.14296875,17.372215032577515L111.375,20.486117362976074L111.60703124999999,23.108325362205505L111.8390625,18.847213625907898L112.07109375,17.04444694519043L112.303125,19.66667604446411L112.53515625,18.027772307395935L112.7671875,13.93056571483612L112.99921875,14.258333802223206L113.23125,13.111103296279907L113.46328125,17.70000422000885L113.6953125,14.913891077041626L113.92734375,14.750007033348083L114.159375,17.536120176315308L114.39140625,17.372215032577515L114.62343750000001,18.519445538520813L114.85546875,15.077775120735168L115.0875,13.602776527404785L115.31953125000001,14.094449758529663L115.55156249999999,16.38888967037201L115.78359375,15.733332395553589L116.015625,17.208330988883972L116.24765624999999,20.15832817554474L116.4796875,16.225005626678467L116.71171875,20.9777694940567L116.94375,22.125L117.17578125,16.38888967037201L117.4078125,18.35556149482727L117.63984375,18.027772307395935L117.871875,18.683329582214355L118.10390625000001,16.55277371406555L118.3359375,18.519445538520813L118.56796875,17.863888263702393L118.80000000000001,18.35556149482727L119.03203125,22.452768087387085L119.26406250000001,17.70000422000885L119.49609374999999,14.58610188961029L119.72812499999999,16.38888967037201L119.96015625,20.486117362976074L120.19218749999999,28.51666760444641L120.42421875,24.255555868148804L120.65625,27.20555305480957L120.88828124999999,20.650001406669617L121.1203125,18.847213625907898L121.35234375,19.50277090072632L121.584375,18.519445538520813L121.81640625,16.55277371406555L122.0484375,16.55277371406555L122.28046875,24.09167182445526L122.5125,17.372215032577515L122.74453125000001,13.111103296279907L122.9765625,15.405564308166504L123.20859375,16.880562901496887L123.44062500000001,13.2750084400177L123.67265625,14.258333802223206L123.90468750000001,16.225005626678467L124.13671875000001,12.947219252586365L124.36874999999999,13.2750084400177L124.60078125,12.291661977767944L124.83281249999999,12.455546021461487L125.06484375,12.291661977767944L125.296875,14.094449758529663L125.52890624999999,14.58610188961029L125.7609375,12.61945116519928L125.99296875,14.913891077041626L126.225,13.438892483711243L126.45703125,15.897216439247131L126.6890625,15.569448351860046L126.92109375,17.04444694519043L127.153125,13.93056571483612L127.38515625000001,12.291661977767944L127.6171875,16.225005626678467L127.84921875,18.191656351089478L128.08125,15.733332395553589L128.31328125,15.733332395553589L128.5453125,20.9777694940567L128.77734375,21.961115956306458L129.009375,23.108325362205505L129.24140625,21.961115956306458L129.47343750000002,18.847213625907898L129.70546875,16.716657757759094L129.9375,23.2722305059433L130.16953125,24.09167182445526L130.4015625,29.00834083557129L130.63359375,21.633326768875122L130.865625,20.9777694940567L131.09765625,18.027772307395935L131.3296875,22.288884043693542L131.56171874999998,21.633326768875122L131.79375,18.35556149482727L132.02578125,17.372215032577515L132.2578125,18.519445538520813L132.48984375,18.191656351089478L132.721875,17.863888263702393L132.95390625,15.897216439247131L133.1859375,20.9777694940567L133.41796875,18.683329582214355L133.65,16.716657757759094L133.88203125,18.519445538520813L134.11406250000002,23.43611454963684L134.34609375,15.897216439247131L134.578125,18.027772307395935L134.81015625,20.15832817554474L135.04218749999998,22.288884043693542L135.27421875,18.35556149482727L135.50625,16.716657757759094L135.73828125,17.536120176315308L135.9703125,16.061121582984924L136.20234375,16.55277371406555L136.434375,13.93056571483612L136.66640625,17.536120176315308L136.8984375,13.766660571098328L137.13046875,16.225005626678467L137.3625,20.486117362976074L137.59453125,22.78055727481842L137.8265625,17.70000422000885L138.05859375,15.733332395553589L138.290625,17.70000422000885L138.52265625,17.372215032577515L138.75468750000002,15.897216439247131L138.98671875,12.61945116519928L139.21875,12.455546021461487L139.45078125,19.175002813339233L139.6828125,19.994444131851196L139.91484375,14.422217845916748L140.146875,19.175002813339233L140.37890625,17.70000422000885L140.6109375,14.258333802223206L140.84296875,18.519445538520813L141.07500000000002,13.93056571483612L141.30703125,14.258333802223206L141.5390625,18.519445538520813L141.77109375,17.372215032577515L142.003125,17.208330988883972L142.23515625000002,13.111103296279907L142.46718750000002,20.15832817554474L142.69921875,20.486117362976074L142.93125,20.32221221923828L143.16328125,14.422217845916748L143.39531250000002,18.191656351089478L143.62734375000002,15.897216439247131L143.85937500000003,19.66667604446411L144.09140624999998,17.863888263702393L144.32343749999998,22.616673231124878L144.55546875,19.994444131851196L144.7875,12.947219252586365L145.01953125,14.750007033348083L145.25156249999998,14.094449758529663L145.48359374999998,11.636104702949524L145.715625,10.324990153312683L145.94765625,17.04444694519043L146.1796875,13.602776527404785L146.41171875,12.291661977767944L146.64374999999998,13.111103296279907L146.87578125,17.372215032577515L147.1078125,12.947219252586365L147.33984375,13.111103296279907L147.571875,14.258333802223206L147.80390625,16.061121582984924L148.0359375,18.519445538520813L148.26796875,17.536120176315308L148.5,17.04444694519043L148.73203125,13.111103296279907L148.9640625,15.241659164428711L149.19609375000002,14.750007033348083L149.428125,14.58610188961029L149.66015625,15.241659164428711L149.8921875,18.191656351089478L150.12421875,15.405564308166504L150.35625000000002,17.536120176315308L150.58828125000002,16.716657757759094L150.8203125,17.863888263702393L151.05234375,14.58610188961029L151.284375,16.061121582984924L151.51640625000002,16.38888967037201L151.74843750000002,15.733332395553589L151.98046874999997,15.405564308166504L152.21249999999998,13.111103296279907L152.44453124999998,10.980547428131104L152.6765625,17.208330988883972L152.90859375,12.291661977767944L153.140625,18.683329582214355L153.37265624999998,16.38888967037201L153.60468749999998,18.519445538520813L153.83671875,16.55277371406555L154.06875,12.61945116519928L154.30078125,18.027772307395935L154.5328125,19.830560088157654L154.76484374999998,19.830560088157654L154.996875,19.01111876964569L155.22890625,19.830560088157654L155.4609375,13.438892483711243L155.69296875,15.733332395553589L155.925,14.094449758529663L156.15703125,14.58610188961029L156.3890625,25.566670417785645L156.62109375,25.730554461479187L156.853125,19.830560088157654L157.08515625,16.716657757759094L157.3171875,17.208330988883972L157.54921875,13.766660571098328L157.78125,15.241659164428711L158.01328125,17.536120176315308L158.2453125,15.569448351860046L158.47734375000002,13.602776527404785L158.709375,18.191656351089478L158.94140625,13.111103296279907L159.1734375,13.93056571483612L159.40546875,13.2750084400177L159.63750000000002,14.750007033348083L159.86953125000002,19.50277090072632L160.1015625,18.027772307395935L160.33359375,20.32221221923828L160.565625,22.452768087387085L160.79765625000002,15.077775120735168L161.02968750000002,18.847213625907898L161.26171875000003,15.405564308166504L161.49374999999998,14.258333802223206L161.72578124999998,15.405564308166504L161.9578125,12.455546021461487L162.18984375,16.880562901496887L162.421875,18.027772307395935L162.65390624999998,20.9777694940567L162.88593749999998,17.863888263702393L163.11796875,15.569448351860046L163.35,13.602776527404785L163.58203125,14.258333802223206L163.8140625,13.766660571098328L164.04609374999998,15.405564308166504L164.278125,19.175002813339233L164.51015625,22.616673231124878L164.7421875,17.70000422000885L164.97421875,24.255555868148804L165.20625,17.863888263702393L165.43828125,14.258333802223206L165.6703125,18.847213625907898L165.90234375,16.38888967037201L166.134375,19.994444131851196L166.36640625,25.402786374092102L166.59843750000002,19.175002813339233L166.83046875,14.258333802223206L167.0625,16.880562901496887L167.29453125,15.733332395553589L167.5265625,16.225005626678467L167.75859375000002,16.716657757759094L167.99062500000002,18.027772307395935L168.22265625,17.536120176315308L168.4546875,17.536120176315308L168.68671875,14.58610188961029L168.91875000000002,16.061121582984924L169.15078125000002,15.405564308166504L169.38281249999997,18.847213625907898L169.61484374999998,18.683329582214355L169.84687499999998,15.241659164428711L170.07890625,17.372215032577515L170.3109375,12.783335208892822L170.54296875,13.2750084400177L170.77499999999998,14.913891077041626L171.00703124999998,13.93056571483612L171.2390625,17.536120176315308L171.47109375,14.58610188961029L171.703125,11.472220659255981L171.93515625,14.58610188961029L172.16718749999998,14.094449758529663L172.39921875,15.897216439247131L172.63125,15.405564308166504L172.86328125,11.96389389038086L173.0953125,14.58610188961029L173.32734375,17.372215032577515L173.559375,25.89443850517273L173.79140625,64.73611736297607L174.0234375,25.89443850517273L174.25546875,27.86111032962799L174.4875,21.633326768875122L174.71953125,19.338886857032776L174.9515625,22.125L175.18359375,18.847213625907898L175.415625,19.175002813339233L175.64765625,17.863888263702393L175.87968750000002,16.55277371406555L176.11171875,12.947219252586365L176.34375,14.258333802223206L176.57578125,15.897216439247131L176.8078125,16.38888967037201L177.03984375000002,15.897216439247131L177.27187500000002,13.93056571483612L177.50390625,12.947219252586365L177.7359375,18.027772307395935L177.96796875,17.372215032577515L178.20000000000002,16.880562901496887L178.43203125000002,14.422217845916748L178.66406250000003,11.472220659255981L178.89609374999998,14.094449758529663L179.12812499999998,13.93056571483612L179.36015625,20.9777694940567L179.5921875,23.2722305059433L179.82421875,21.961115956306458L180.05624999999998,14.750007033348083L180.28828124999998,13.602776527404785L180.5203125,19.01111876964569L180.75234375,18.191656351089478L180.984375,16.880562901496887L181.21640625,19.01111876964569L181.44843749999998,20.32221221923828L181.68046875,18.847213625907898L181.9125,18.519445538520813L182.14453125,17.372215032577515L182.3765625,15.405564308166504L182.60859375,15.733332395553589L182.840625,17.536120176315308L183.07265625,16.061121582984924L183.3046875,19.01111876964569L183.53671875,16.716657757759094L183.76875,14.422217845916748L184.00078125000002,15.897216439247131L184.2328125,20.15832817554474L184.46484375,16.716657757759094L184.696875,15.077775120735168L184.92890625,16.225005626678467L185.16093750000002,12.127777934074402L185.39296875000002,14.58610188961029L185.625,15.077775120735168L185.85703125,20.15832817554474L186.0890625,17.70000422000885L186.32109375000002,15.077775120735168L186.55312500000002,16.38888967037201L186.78515624999997,14.094449758529663L187.01718749999998,15.733332395553589L187.24921874999998,12.947219252586365L187.48125,15.569448351860046L187.71328125,13.438892483711243L187.9453125,14.750007033348083L188.17734374999998,20.81388545036316L188.40937499999998,16.225005626678467L188.64140625,13.2750084400177L188.8734375,13.602776527404785L189.10546875,13.438892483711243L189.3375,16.716657757759094L189.56953124999998,18.683329582214355L189.8015625,21.305558681488037L190.03359375,14.58610188961029L190.265625,16.55277371406555L190.49765625,14.258333802223206L190.7296875,15.897216439247131L190.96171875,14.913891077041626L191.19375,16.38888967037201L191.42578125,16.061121582984924L191.6578125,13.438892483711243L191.88984375,12.61945116519928L192.121875,12.455546021461487L192.35390625,13.766660571098328L192.5859375,18.35556149482727L192.81796875,12.291661977767944L193.05,13.438892483711243L193.28203125000002,12.455546021461487L193.5140625,20.9777694940567L193.74609375,17.536120176315308L193.978125,17.208330988883972L194.21015625,14.913891077041626L194.44218750000002,17.208330988883972L194.67421875000002,17.04444694519043L194.90625,15.241659164428711L195.13828125,23.599998593330383L195.3703125,23.763882637023926L195.60234375000002,16.880562901496887L195.83437500000002,14.750007033348083L196.06640625000003,12.127777934074402L196.29843749999998,14.750007033348083L196.53046874999998,16.38888967037201L196.7625,17.04444694519043L196.99453125,13.602776527404785L197.2265625,15.569448351860046L197.45859374999998,18.35556149482727L197.69062499999998,11.472220659255981L197.92265625,14.094449758529663L198.1546875,12.61945116519928L198.38671875,15.077775120735168L198.61875,17.04444694519043L198.85078124999998,17.208330988883972L199.0828125,14.913891077041626L199.31484375,13.766660571098328L199.546875,19.830560088157654L199.77890625,18.519445538520813L200.0109375,18.683329582214355L200.24296875,21.305558681488037L200.475,18.35556149482727L200.70703125,18.191656351089478L200.9390625,18.35556149482727L201.17109375,17.536120176315308L201.40312500000002,19.830560088157654L201.63515625,16.38888967037201L201.8671875,16.061121582984924L202.09921875,19.830560088157654L202.33125,19.994444131851196L202.56328125000002,17.208330988883972L202.79531250000002,16.716657757759094L203.02734375,21.46944272518158L203.259375,16.061121582984924L203.49140625,21.797231912612915L203.72343750000002,21.305558681488037L203.95546875000002,26.713879823684692L204.18749999999997,28.188878417015076L204.41953124999998,22.125L204.65156249999998,23.92778778076172L204.88359375,18.519445538520813L205.115625,14.422217845916748L205.34765625,19.830560088157654L205.57968749999998,18.027772307395935L205.81171874999998,19.830560088157654L206.04375,16.880562901496887L206.27578125,13.93056571483612L206.5078125,13.602776527404785L206.73984375,18.35556149482727L206.97187499999998,15.733332395553589L207.20390625,16.061121582984924L207.4359375,15.405564308166504L207.66796875,15.241659164428711L207.9,19.994444131851196L208.13203125,20.650001406669617L208.3640625,20.650001406669617L208.59609375,20.486117362976074L208.828125,19.01111876964569L209.06015625,14.422217845916748L209.2921875,17.70000422000885L209.52421875,18.027772307395935L209.75625,15.897216439247131L209.98828125,15.733332395553589L210.2203125,13.766660571098328L210.45234375,16.716657757759094L210.68437500000002,11.636104702949524L210.91640625,16.225005626678467L211.1484375,15.077775120735168L211.38046875,17.208330988883972L211.6125,17.863888263702393L211.84453125000002,16.38888967037201L212.07656250000002,14.750007033348083L212.30859375,13.766660571098328L212.540625,15.569448351860046L212.77265625,14.258333802223206L213.00468750000002,15.241659164428711L213.23671875000002,14.913891077041626L213.46875000000003,15.897216439247131L213.70078124999998,17.04444694519043L213.93281249999998,17.04444694519043L214.16484375,14.58610188961029L214.396875,17.70000422000885L214.62890625,19.994444131851196L214.86093749999998,14.094449758529663L215.09296874999998,19.338886857032776L215.325,19.175002813339233L215.55703125,17.04444694519043L215.7890625,14.58610188961029L216.02109375,20.486117362976074L216.25312499999998,16.716657757759094L216.48515625,15.733332395553589L216.7171875,15.077775120735168L216.94921875,17.372215032577515L217.18125,20.486117362976074L217.41328125,15.897216439247131L217.6453125,20.32221221923828L217.87734375,16.880562901496887L218.109375,19.830560088157654L218.34140625,14.094449758529663L218.5734375,15.241659164428711L218.80546875000002,16.55277371406555L219.0375,17.70000422000885L219.26953125,22.288884043693542L219.5015625,19.830560088157654L219.73359375,20.81388545036316L219.96562500000002,18.847213625907898L220.19765625000002,17.208330988883972L220.4296875,19.50277090072632L220.66171875,20.32221221923828L220.89375,17.536120176315308L221.12578125000002,12.947219252586365L221.35781250000002,18.027772307395935L221.58984374999997,18.683329582214355L221.82187499999998,20.9777694940567L222.05390624999998,20.15832817554474L222.2859375,17.863888263702393L222.51796875,19.01111876964569L222.75,18.027772307395935L222.98203124999998,18.35556149482727L223.21406249999998,26.54999577999115L223.44609375,26.713879823684692L223.678125,21.797231912612915L223.91015625,20.32221221923828L224.1421875,19.175002813339233L224.37421874999998,20.32221221923828L224.60625,16.225005626678467L224.83828125,16.38888967037201L225.0703125,15.077775120735168L225.30234375,14.750007033348083L225.534375,12.947219252586365L225.76640625,14.258333802223206L225.9984375,13.438892483711243L226.23046875,15.241659164428711L226.4625,13.766660571098328L226.69453125,11.96389389038086L226.9265625,19.338886857032776L227.15859375,19.50277090072632L227.390625,14.913891077041626L227.62265625,13.93056571483612L227.8546875,13.438892483711243L228.08671875000002,14.422217845916748L228.31875,15.077775120735168L228.55078125,16.880562901496887L228.7828125,15.405564308166504L229.01484375,10.324990153312683L229.24687500000002,17.536120176315308L229.47890625000002,16.880562901496887L229.7109375,18.683329582214355L229.94296875,20.650001406669617L230.175,17.04444694519043L230.40703125000002,14.58610188961029L230.63906250000002,18.683329582214355L230.87109375000003,22.288884043693542L231.10312499999998,19.830560088157654L231.33515624999998,17.04444694519043L231.5671875,19.994444131851196L231.79921875,17.70000422000885L232.03125,13.93056571483612L232.26328124999998,13.766660571098328L232.49531249999998,16.225005626678467L232.72734375,17.372215032577515L232.959375,15.897216439247131L233.19140625,18.35556149482727L233.4234375,16.061121582984924L233.65546874999998,16.880562901496887L233.8875,15.241659164428711L234.11953125,10.816663384437561L234.3515625,16.880562901496887L234.58359375,13.766660571098328L234.815625,13.93056571483612L235.04765625,12.947219252586365L235.2796875,12.455546021461487L235.51171875,17.863888263702393L235.74375,17.70000422000885L235.97578125,14.094449758529663L236.20781250000002,16.061121582984924L236.43984375,19.50277090072632L236.671875,19.01111876964569L236.90390625,20.650001406669617L237.1359375,24.74722909927368L237.36796875000002,22.452768087387085L237.60000000000002,17.70000422000885L237.83203125,18.519445538520813L238.0640625,16.880562901496887L238.29609375,18.35556149482727L238.52812500000002,18.683329582214355L238.76015625000002,21.961115956306458L238.99218749999997,19.66667604446411L239.22421874999998,21.46944272518158L239.45624999999998,19.994444131851196L239.68828125,19.338886857032776L239.9203125,18.35556149482727L240.15234375,13.438892483711243L240.38437499999998,13.438892483711243L240.61640624999998,17.70000422000885L240.8484375,15.405564308166504L241.08046875,14.258333802223206L241.3125,16.716657757759094L241.54453125,19.175002813339233L241.77656249999998,20.650001406669617L242.00859375,17.04444694519043L242.240625,15.569448351860046L242.47265625,12.61945116519928L242.7046875,17.04444694519043L242.93671875,16.38888967037201L243.16875,11.308336615562439L243.40078125,17.70000422000885L243.6328125,12.127777934074402L243.86484375,18.519445538520813L244.096875,18.35556149482727L244.32890625,16.225005626678467L244.5609375,18.35556149482727L244.79296875,17.863888263702393L245.025,19.338886857032776L245.25703125,14.750007033348083L245.48906250000002,17.70000422000885L245.72109375,17.863888263702393L245.953125,17.863888263702393L246.18515625,16.225005626678467L246.4171875,18.027772307395935L246.64921875000002,14.094449758529663L246.88125000000002,16.880562901496887L247.11328125,16.880562901496887L247.3453125,16.061121582984924L247.57734375,14.094449758529663L247.80937500000002,15.733332395553589L248.04140625000002,14.422217845916748L248.27343750000003,14.750007033348083L248.50546874999998,13.766660571098328L248.73749999999998,15.733332395553589L248.96953125,12.783335208892822L249.2015625,17.536120176315308L249.43359375,17.863888263702393L249.66562499999998,16.38888967037201L249.89765624999998,18.027772307395935L250.1296875,17.372215032577515L250.36171875,20.15832817554474L250.59375,20.15832817554474L250.82578125,18.027772307395935L251.05781249999998,20.15832817554474L251.28984375,16.38888967037201L251.521875,17.372215032577515L251.75390625,15.241659164428711L251.9859375,16.880562901496887L252.21796875,20.9777694940567L252.45,19.175002813339233L252.68203125,16.225005626678467L252.9140625,15.241659164428711L253.14609375,14.750007033348083L253.378125,14.094449758529663L253.61015625000002,15.733332395553589L253.8421875,15.897216439247131L254.07421875,15.569448351860046L254.30625,15.733332395553589L254.53828125,17.536120176315308L254.77031250000002,20.9777694940567L255.00234375000002,20.9777694940567" style="fill: none;" fill="none"></path></g></g></g></g></g></g><g transform="translate(51, 177)" clip-path="url(#clip_1)"><clipPath id="clip_1"><rect width="278" height="23"></rect></clipPath><g><g><line x1="0" y1="0" x2="0" y2="5" style="visibility: inherit;" fill="rgb(0, 0, 0)" stroke="rgb(204, 204, 204)" stroke-width="1px"></line><line x1="23.203125" y1="0" x2="23.203125" y2="5" style="visibility: inherit;" fill="rgb(0, 0, 0)" stroke="rgb(204, 204, 204)" stroke-width="1px"></line><line x1="46.40625" y1="0" x2="46.40625" y2="5" style="visibility: inherit;" fill="rgb(0, 0, 0)" stroke="rgb(204, 204, 204)" stroke-width="1px"></line><line x1="69.609375" y1="0" x2="69.609375" y2="5" style="visibility: inherit;" fill="rgb(0, 0, 0)" stroke="rgb(204, 204, 204)" stroke-width="1px"></line><line x1="92.8125" y1="0" x2="92.8125" y2="5" style="visibility: inherit;" fill="rgb(0, 0, 0)" stroke="rgb(204, 204, 204)" stroke-width="1px"></line><line x1="116.015625" y1="0" x2="116.015625" y2="5" style="visibility: inherit;" fill="rgb(0, 0, 0)" stroke="rgb(204, 204, 204)" stroke-width="1px"></line><line x1="139.21875" y1="0" x2="139.21875" y2="5" style="visibility: inherit;" fill="rgb(0, 0, 0)" stroke="rgb(204, 204, 204)" stroke-width="1px"></line><line x1="162.421875" y1="0" x2="162.421875" y2="5" style="visibility: inherit;" fill="rgb(0, 0, 0)" stroke="rgb(204, 204, 204)" stroke-width="1px"></line><line x1="185.625" y1="0" x2="185.625" y2="5" style="visibility: inherit;" fill="rgb(0, 0, 0)" stroke="rgb(204, 204, 204)" stroke-width="1px"></line><line x1="208.828125" y1="0" x2="208.828125" y2="5" style="visibility: inherit;" fill="rgb(0, 0, 0)" stroke="rgb(204, 204, 204)" stroke-width="1px"></line><line x1="232.03125" y1="0" x2="232.03125" y2="5" style="visibility: inherit;" fill="rgb(0, 0, 0)" stroke="rgb(204, 204, 204)" stroke-width="1px"></line><line x1="255.234375" y1="0" x2="255.234375" y2="5" style="visibility: inherit;" fill="rgb(0, 0, 0)" stroke="rgb(204, 204, 204)" stroke-width="1px"></line><line x1="278.4375" y1="0" x2="278.4375" y2="5" style="visibility: inherit;" fill="rgb(0, 0, 0)" stroke="rgb(204, 204, 204)" stroke-width="1px"></line></g><g transform="translate(0, 8)"><text x="0" y="0" dx="0em" dy="0.95em" style="text-anchor: middle; visibility: hidden; font-family: Roboto, sans-serif; font-size: 12px; font-weight: 200;" fill="rgb(33, 33, 33)" stroke="none" stroke-width="1px">-100</text><text x="23.203125" y="0" dx="0em" dy="0.95em" style="text-anchor: middle; visibility: inherit; font-family: Roboto, sans-serif; font-size: 12px; font-weight: 200;" fill="rgb(33, 33, 33)" stroke="none" stroke-width="1px">0</text><text x="46.40625" y="0" dx="0em" dy="0.95em" style="text-anchor: middle; visibility: hidden; font-family: Roboto, sans-serif; font-size: 12px; font-weight: 200;" fill="rgb(33, 33, 33)" stroke="none" stroke-width="1px">100</text><text x="69.609375" y="0" dx="0em" dy="0.95em" style="text-anchor: middle; visibility: inherit; font-family: Roboto, sans-serif; font-size: 12px; font-weight: 200;" fill="rgb(33, 33, 33)" stroke="none" stroke-width="1px">200</text><text x="92.8125" y="0" dx="0em" dy="0.95em" style="text-anchor: middle; visibility: hidden; font-family: Roboto, sans-serif; font-size: 12px; font-weight: 200;" fill="rgb(33, 33, 33)" stroke="none" stroke-width="1px">300</text><text x="116.015625" y="0" dx="0em" dy="0.95em" style="text-anchor: middle; visibility: inherit; font-family: Roboto, sans-serif; font-size: 12px; font-weight: 200;" fill="rgb(33, 33, 33)" stroke="none" stroke-width="1px">400</text><text x="139.21875" y="0" dx="0em" dy="0.95em" style="text-anchor: middle; visibility: hidden; font-family: Roboto, sans-serif; font-size: 12px; font-weight: 200;" fill="rgb(33, 33, 33)" stroke="none" stroke-width="1px">500</text><text x="162.421875" y="0" dx="0em" dy="0.95em" style="text-anchor: middle; visibility: inherit; font-family: Roboto, sans-serif; font-size: 12px; font-weight: 200;" fill="rgb(33, 33, 33)" stroke="none" stroke-width="1px">600</text><text x="185.625" y="0" dx="0em" dy="0.95em" style="text-anchor: middle; visibility: hidden; font-family: Roboto, sans-serif; font-size: 12px; font-weight: 200;" fill="rgb(33, 33, 33)" stroke="none" stroke-width="1px">700</text><text x="208.828125" y="0" dx="0em" dy="0.95em" style="text-anchor: middle; visibility: inherit; font-family: Roboto, sans-serif; font-size: 12px; font-weight: 200;" fill="rgb(33, 33, 33)" stroke="none" stroke-width="1px">800</text><text x="232.03125" y="0" dx="0em" dy="0.95em" style="text-anchor: middle; visibility: hidden; font-family: Roboto, sans-serif; font-size: 12px; font-weight: 200;" fill="rgb(33, 33, 33)" stroke="none" stroke-width="1px">900</text><text x="255.234375" y="0" dx="0em" dy="0.95em" style="text-anchor: middle; visibility: inherit; font-family: Roboto, sans-serif; font-size: 12px; font-weight: 200;" fill="rgb(33, 33, 33)" stroke="none" stroke-width="1px">1k</text><text x="278.4375" y="0" dx="0em" dy="0.95em" style="text-anchor: middle; visibility: hidden; font-family: Roboto, sans-serif; font-size: 12px; font-weight: 200;" fill="rgb(33, 33, 33)" stroke="none" stroke-width="1px">1.1k</text></g><line x1="0" y1="0" x2="278.4375" y2="0" fill="rgb(0, 0, 0)" stroke="rgb(204, 204, 204)" stroke-width="1px"></line></g></g></g></g></svg>