<svg viewBox="0 0 330 200" xmlns="http://www.w3.org/2000/svg"><g><g><g><g><g><line x1="41.171875" y1="177" x2="36.171875" y2="177" style="visibility: inherit;" fill="rgb(0, 0, 0)" stroke="rgb(204, 204, 204)" stroke-width="1px"></line><line x1="41.171875" y1="159.3" x2="36.171875" y2="159.3" style="visibility: inherit;" fill="rgb(0, 0, 0)" stroke="rgb(204, 204, 204)" stroke-width="1px"></line><line x1="41.171875" y1="141.6" x2="36.171875" y2="141.6" style="visibility: inherit;" fill="rgb(0, 0, 0)" stroke="rgb(204, 204, 204)" stroke-width="1px"></line><line x1="41.171875" y1="123.89999999999999" x2="36.171875" y2="123.89999999999999" style="visibility: inherit;" fill="rgb(0, 0, 0)" stroke="rgb(204, 204, 204)" stroke-width="1px"></line><line x1="41.171875" y1="106.2" x2="36.171875" y2="106.2" style="visibility: inherit;" fill="rgb(0, 0, 0)" stroke="rgb(204, 204, 204)" stroke-width="1px"></line><line x1="41.171875" y1="88.5" x2="36.171875" y2="88.5" style="visibility: inherit;" fill="rgb(0, 0, 0)" stroke="rgb(204, 204, 204)" stroke-width="1px"></line><line x1="41.171875" y1="70.8" x2="36.171875" y2="70.8" style="visibility: inherit;" fill="rgb(0, 0, 0)" stroke="rgb(204, 204, 204)" stroke-width="1px"></line><line x1="41.171875" y1="53.10000000000001" x2="36.171875" y2="53.10000000000001" style="visibility: inherit;" fill="rgb(0, 0, 0)" stroke="rgb(204, 204, 204)" stroke-width="1px"></line><line x1="41.171875" y1="35.39999999999999" x2="36.171875" y2="35.39999999999999" style="visibility: inherit;" fill="rgb(0, 0, 0)" stroke="rgb(204, 204, 204)" stroke-width="1px"></line><line x1="41.171875" y1="17.699999999999996" x2="36.171875" y2="17.699999999999996" style="visibility: inherit;" fill="rgb(0, 0, 0)" stroke="rgb(204, 204, 204)" stroke-width="1px"></line><line x1="41.171875" y1="0" x2="36.171875" y2="0" style="visibility: inherit;" fill="rgb(0, 0, 0)" stroke="rgb(204, 204, 204)" stroke-width="1px"></line></g><g transform="translate(31.171875, 0)"><text x="0" y="177" dx="0em" dy="0.3em" style="text-anchor: end; visibility: hidden; font-family: Roboto, sans-serif; font-size: 12px; font-weight: 200;" fill="rgb(33, 33, 33)" stroke="none" stroke-width="1px">0</text><text x="0" y="159.3" dx="0em" dy="0.3em" style="text-anchor: end; visibility: inherit; font-family: Roboto, sans-serif; font-size: 12px; font-weight: 200;" fill="rgb(33, 33, 33)" stroke="none" stroke-width="1px">0.1</text><text x="0" y="141.6" dx="0em" dy="0.3em" style="text-anchor: end; visibility: hidden; font-family: Roboto, sans-serif; font-size: 12px; font-weight: 200;" fill="rgb(33, 33, 33)" stroke="none" stroke-width="1px">0.2</text><text x="0" y="123.89999999999999" dx="0em" dy="0.3em" style="text-anchor: end; visibility: inherit; font-family: Roboto, sans-serif; font-size: 12px; font-weight: 200;" fill="rgb(33, 33, 33)" stroke="none" stroke-width="1px">0.3</text><text x="0" y="106.2" dx="0em" dy="0.3em" style="text-anchor: end; visibility: hidden; font-family: Roboto, sans-serif; font-size: 12px; font-weight: 200;" fill="rgb(33, 33, 33)" stroke="none" stroke-width="1px">0.4</text><text x="0" y="88.5" dx="0em" dy="0.3em" style="text-anchor: end; visibility: inherit; font-family: Roboto, sans-serif; font-size: 12px; font-weight: 200;" fill="rgb(33, 33, 33)" stroke="none" stroke-width="1px">0.5</text><text x="0" y="70.8" dx="0em" dy="0.3em" style="text-anchor: end; visibility: hidden; font-family: Roboto, sans-serif; font-size: 12px; font-weight: 200;" fill="rgb(33, 33, 33)" stroke="none" stroke-width="1px">0.6</text><text x="0" y="53.10000000000001" dx="0em" dy="0.3em" style="text-anchor: end; visibility: inherit; font-family: Roboto, sans-serif; font-size: 12px; font-weight: 200;" fill="rgb(33, 33, 33)" stroke="none" stroke-width="1px">0.7</text><text x="0" y="35.39999999999999" dx="0em" dy="0.3em" style="text-anchor: end; visibility: hidden; font-family: Roboto, sans-serif; font-size: 12px; font-weight: 200;" fill="rgb(33, 33, 33)" stroke="none" stroke-width="1px">0.8</text><text x="0" y="17.699999999999996" dx="0em" dy="0.3em" style="text-anchor: end; visibility: inherit; font-family: Roboto, sans-serif; font-size: 12px; font-weight: 200;" fill="rgb(33, 33, 33)" stroke="none" stroke-width="1px">0.9</text><text x="0" y="0" dx="0em" dy="0.3em" style="text-anchor: end; visibility: hidden; font-family: Roboto, sans-serif; font-size: 12px; font-weight: 200;" fill="rgb(33, 33, 33)" stroke="none" stroke-width="1px">1</text></g><line x1="41.171875" y1="0" x2="41.171875" y2="177" fill="rgb(0, 0, 0)" stroke="rgb(204, 204, 204)" stroke-width="1px"></line></g></g><g transform="translate(41, 0)" clip-path="url(#clip_0)"><clipPath id="clip_0"><rect width="288" height="177"></rect></clipPath><g><g><g><line x1="0" y1="0" x2="0" y2="177" fill="rgb(0, 0, 0)" stroke="rgb(66, 66, 66)" stroke-width="1px" opacity="0.25"></line><line x1="24.069010416666664" y1="0" x2="24.069010416666664" y2="177" fill="rgb(0, 0, 0)" stroke="rgb(66, 66, 66)" stroke-width="1px" opacity="0.25"></line><line x1="48.13802083333333" y1="0" x2="48.13802083333333" y2="177" fill="rgb(0, 0, 0)" stroke="rgb(66, 66, 66)" stroke-width="1px" opacity="0.25"></line><line x1="72.20703125" y1="0" x2="72.20703125" y2="177" fill="rgb(0, 0, 0)" stroke="rgb(66, 66, 66)" stroke-width="1px" opacity="0.25"></line><line x1="96.27604166666666" y1="0" x2="96.27604166666666" y2="177" fill="rgb(0, 0, 0)" stroke="rgb(66, 66, 66)" stroke-width="1px" opacity="0.25"></line><line x1="120.34505208333334" y1="0" x2="120.34505208333334" y2="177" fill="rgb(0, 0, 0)" stroke="rgb(66, 66, 66)" stroke-width="1px" opacity="0.25"></line><line x1="144.4140625" y1="0" x2="144.4140625" y2="177" fill="rgb(0, 0, 0)" stroke="rgb(66, 66, 66)" stroke-width="1px" opacity="0.25"></line><line x1="168.48307291666669" y1="0" x2="168.48307291666669" y2="177" fill="rgb(0, 0, 0)" stroke="rgb(66, 66, 66)" stroke-width="1px" opacity="0.25"></line><line x1="192.55208333333331" y1="0" x2="192.55208333333331" y2="177" fill="rgb(0, 0, 0)" stroke="rgb(66, 66, 66)" stroke-width="1px" opacity="0.25"></line><line x1="216.62109375" y1="0" x2="216.62109375" y2="177" fill="rgb(0, 0, 0)" stroke="rgb(66, 66, 66)" stroke-width="1px" opacity="0.25"></line><line x1="240.69010416666669" y1="0" x2="240.69010416666669" y2="177" fill="rgb(0, 0, 0)" stroke="rgb(66, 66, 66)" stroke-width="1px" opacity="0.25"></line><line x1="264.7591145833333" y1="0" x2="264.7591145833333" y2="177" fill="rgb(0, 0, 0)" stroke="rgb(66, 66, 66)" stroke-width="1px" opacity="0.25"></line><line x1="288.828125" y1="0" x2="288.828125" y2="177" fill="rgb(0, 0, 0)" stroke="rgb(66, 66, 66)" stroke-width="1px" opacity="0.25"></line></g><g><line x1="0" y1="177" x2="288.828125" y2="177" fill="rgb(0, 0, 0)" stroke="rgb(66, 66, 66)" stroke-width="1px" opacity="0.25"></line><line x1="0" y1="159.3" x2="288.828125" y2="159.3" fill="rgb(0, 0, 0)" stroke="rgb(66, 66, 66)" stroke-width="1px" opacity="0.25"></line><line x1="0" y1="141.6" x2="288.828125" y2="141.6" fill="rgb(0, 0, 0)" stroke="rgb(66, 66, 66)" stroke-width="1px" opacity="0.25"></line><line x1="0" y1="123.89999999999999" x2="288.828125" y2="123.89999999999999" fill="rgb(0, 0, 0)" stroke="rgb(66, 66, 66)" stroke-width="1px" opacity="0.25"></line><line x1="0" y1="106.2" x2="288.828125" y2="106.2" fill="rgb(0, 0, 0)" stroke="rgb(66, 66, 66)" stroke-width="1px" opacity="0.25"></line><line x1="0" y1="88.5" x2="288.828125" y2="88.5" fill="rgb(0, 0, 0)" stroke="rgb(66, 66, 66)" stroke-width="1px" opacity="0.25"></line><line x1="0" y1="70.8" x2="288.828125" y2="70.8" fill="rgb(0, 0, 0)" stroke="rgb(66, 66, 66)" stroke-width="1px" opacity="0.25"></line><line x1="0" y1="53.10000000000001" x2="288.828125" y2="53.10000000000001" fill="rgb(0, 0, 0)" stroke="rgb(66, 66, 66)" stroke-width="1px" opacity="0.25"></line><line x1="0" y1="35.39999999999999" x2="288.828125" y2="35.39999999999999" fill="rgb(0, 0, 0)" stroke="rgb(66, 66, 66)" stroke-width="1px" opacity="0.25"></line><line x1="0" y1="17.699999999999996" x2="288.828125" y2="17.699999999999996" fill="rgb(0, 0, 0)" stroke="rgb(66, 66, 66)" stroke-width="1px" opacity="0.25"></line><line x1="0" y1="0" x2="288.828125" y2="0" fill="rgb(0, 0, 0)" stroke="rgb(66, 66, 66)" stroke-width="1px" opacity="0.25"></line></g></g></g><g><g><line x1="0" y1="177" x2="288.828125" y2="177" fill="rgb(0, 0, 0)" stroke="rgb(153, 153, 153)" stroke-width="1.5px"></line></g></g><g><g><line x1="24.069010416666664" y1="0" x2="24.069010416666664" y2="177" fill="rgb(0, 0, 0)" stroke="rgb(153, 153, 153)" stroke-width="1.5px"></line></g></g><g><g><g><g><g><path stroke="rgb(204, 51, 17)" stroke-width="2px" d="M24.069010416666664,27.569170117378235L24.309700520833335,44.626339859099915L24.550390625000002,54.814036161404644L24.791080729166666,58.55129933624493L25.031770833333333,62.18249417363666L25.2724609375,63.96611244449798L25.513151041666667,66.52350167866989L25.753841145833334,67.98272837402365L25.994531249999998,69.16846652469084L26.23522135416667,70.68247720261694L26.475911458333332,71.79397816653683L26.7166015625,73.11639857695003L26.957291666666666,74.71342342244147L27.197981770833334,75.78081188764071L27.438671875,75.89410962035038L27.679361979166668,75.87908286150426L27.92005208333333,75.72633480412199L28.160742187500002,75.67246937881741L28.401432291666666,76.04308346602498L28.642122395833333,76.004084501963L28.8828125,76.27415776338682L29.123502604166667,76.36066435942398L29.364192708333334,76.73242886467622L29.604882812499998,76.9987133303328L29.845572916666665,77.27500806130867L30.086263020833336,77.62005715828076L30.326953125,77.89140972091363L30.567643229166666,78.27920684408421L30.808333333333334,78.5615721935083L31.0490234375,78.95968941928918L31.289713541666668,79.18393122630572L31.53040364583333,79.43410877777572L31.77109375,79.77537289765712L32.011783854166666,80.10341085445907L32.25247395833333,80.37826589833587L32.4931640625,80.71836358822175L32.73385416666667,81.07590970621173L32.974544270833334,81.55149785061732L33.215234375,81.9487404375474L33.45592447916667,82.3421975662136L33.696614583333336,82.7115157781688L33.937304687499996,83.00514524469521L34.17799479166666,83.4908743432592L34.41868489583334,83.88432018321241L34.659375,84.38928745393146L34.900065104166664,84.95942976894038L35.14075520833334,85.24723567489156L35.3814453125,85.72490759813152L35.622135416666666,86.29875166440904L35.86282552083333,86.1950980263009L36.103515625,86.50436447901035L36.34420572916667,86.73904122700411L36.584895833333334,87.16280289668019L36.8255859375,87.57924441404616L37.06627604166666,88.12585005091529L37.306966145833336,88.67601927850556L37.54765625,89.37173396093655L37.78834635416666,89.39468748300312L38.02903645833333,89.82934287634842L38.269726562500004,90.29862334047826L38.510416666666664,90.7673289478134L38.75110677083333,91.30887968230104L38.991796875000006,91.6286021030546L39.232486979166666,92.03064629447212L39.47317708333333,92.27260143446077L39.7138671875,92.54673929808155L39.95455729166667,92.69081527782114L40.195247395833334,92.84255497421965L40.4359375,92.60220976083423L40.67662760416667,92.37951849964124L40.917317708333336,92.58761891925624L41.158007812499996,92.97822239179519L41.39869791666667,93.38169516920647L41.63938802083333,93.67992918287476L41.880078125,94.08151966751062L42.12076822916667,94.46182926120537L42.36145833333333,94.85281640936262L42.6021484375,95.29411794134786L42.84283854166667,95.56902001575747L43.08352864583333,95.89760468723375L43.32421875,96.27142033028076L43.56490885416667,96.61333684057561L43.805598958333334,97.00753744725783L44.0462890625,97.40170568432485L44.28697916666666,97.70595952722167L44.527669270833336,98.06380993542822L44.768359375,98.49825793084722L45.00904947916666,98.97066230204919L45.24973958333334,99.35322496629578L45.4904296875,99.73650748477314L45.731119791666664,100.10562565573984L45.97180989583334,100.52395519271064L46.2125,100.87245665118836L46.453190104166666,101.29433057082937L46.69388020833333,101.57250776875169L46.9345703125,101.86399303783482L47.17526041666667,102.20177547318119L47.41595052083333,102.55717875890899L47.656640625,102.7952382030641L47.89733072916667,103.20653048983351L48.13802083333333,103.67393084868276L48.3787109375,104.00765759633101L48.61940104166667,104.37938755425122L48.86009114583333,104.69286766308173L49.100781250000004,105.10638819424166L49.341471354166664,105.42659312420874L49.58216145833333,105.58957295441088L49.8228515625,105.84918123854777L50.063541666666666,106.24474446243885L50.30423177083333,106.5471357043962L50.544921875,106.82215513979564L50.78561197916667,107.13439163668394L51.026302083333334,107.34956986771091L51.266992187499994,107.66812927671744L51.50768229166667,108.03089715506283L51.748372395833336,108.33768121298665L51.989062499999996,108.66527856282487L52.22975260416667,109.012854010033L52.47044270833334,109.32864440793566L52.7111328125,109.67104155269271L52.951822916666664,110.02579501492228L53.19251302083334,110.30344892652272L53.433203125,110.6570489992496L53.673893229166666,110.91461735943237L53.91458333333333,111.25626611637142L54.1552734375,111.59603212697571L54.39596354166667,111.86780554835973L54.636653645833334,112.17981408271771L54.87734375,112.51248385080517L55.11803385416666,112.76197216665122L55.358723958333336,113.08718695134715L55.5994140625,113.40601944764688L55.84010416666666,113.72772990164358L56.08079427083333,113.87365127816489L56.321484375000004,114.17206100902138L56.562174479166664,114.49001554795771L56.80286458333333,114.71238134925127L57.043554687500006,115.03523835250405L57.284244791666666,115.33770767155265L57.52493489583333,115.677485242533L57.765625,115.94813876382385L58.00631510416667,116.16231599496315L58.247005208333334,116.03503296809218L58.4876953125,116.08439274222908L58.72838541666667,116.15110071092565L58.969075520833336,116.29521792227203L59.209765624999996,116.41404940762811L59.45045572916667,116.66427676421878L59.69114583333333,116.91808554315026L59.9318359375,117.17366063625283L60.17252604166667,117.38076148038414L60.41321614583333,117.60102428847959L60.65390625,117.89508860332764L60.89459635416667,118.03310242296695L61.13528645833333,118.31356659389708L61.3759765625,118.63309022391819L61.61666666666667,118.82424587189307L61.857356770833334,119.0626417513132L62.098046875,119.34450489910574L62.33873697916666,119.63800837031646L62.579427083333336,119.8366172728083L62.8201171875,120.12400264356613L63.06080729166666,120.44205192371511L63.30149739583334,120.75827680940516L63.5421875,121.11746536208278L63.782877604166664,121.36373782439358L64.02356770833333,121.64517110201791L64.2642578125,121.94680849137785L64.50494791666667,122.16457709522741L64.74563802083333,122.40660339551422L64.986328125,122.55431134003133L65.22701822916666,122.76856737296508L65.46770833333333,122.9841124988475L65.70839843750001,123.26367440537283L65.94908854166667,123.56463128871225L66.18977864583333,123.87854317243983L66.43046875,124.10597054406877L66.67115885416666,124.39473603697553L66.91184895833334,124.60139822905222L67.1525390625,124.77466938319594L67.39322916666667,124.9919528890042L67.63391927083333,125.2029482422956L67.87460937499999,125.37900860446115L68.11529947916667,125.5993577775801L68.35598958333333,125.8187557425015L68.5966796875,125.98588860240544L68.83736979166667,126.18703549018409L69.07805989583333,126.38555160462292L69.31875,126.60664838471926L69.55944010416667,126.81075348326574L69.80013020833333,126.9888613633542L70.0408203125,127.19755543581076L70.28151041666668,127.34853277821644L70.52220052083334,127.49049914007038L70.762890625,127.63398004186833L71.00358072916666,127.75603914124378L71.24427083333333,127.94932457683562L71.4849609375,128.0849835115452L71.72565104166667,128.2829852242804L71.96634114583334,128.45019444016927L72.20703125,128.6706684036546L72.44772135416667,128.83329695457672L72.68841145833333,128.96667868705293L72.9291015625,129.06745222220118L73.16979166666667,129.17553250096225L73.41048177083333,129.28303345048468L73.651171875,129.38794940807733L73.89186197916668,129.455574336484L74.13255208333332,129.55009623301115L74.3732421875,129.6323573790029L74.61393229166667,129.7598307461386L74.85462239583333,129.9378650509587L75.0953125,130.1801653757978L75.33600260416667,130.33149998747732L75.57669270833333,130.56148013942027L75.8173828125,130.70853172704943L76.05807291666666,130.8487280886366L76.29876302083333,130.99641833224666L76.53945312500001,131.19160448482228L76.78014322916665,131.3342448116129L77.02083333333333,131.51763077047454L77.2615234375,131.74276115820052L77.50221354166666,131.90405700356723L77.74290364583334,132.04637354231883L77.98359375000001,132.18986126001312L78.22428385416666,132.39233713431952L78.46497395833333,132.54429290435814L78.7056640625,132.7191571753195L78.94635416666667,132.8304809153338L79.18704427083334,132.93128999466518L79.427734375,133.0453327079646L79.66842447916666,133.22318911443747L79.90911458333333,133.3617690147325L80.14980468750001,133.5437794881178L80.39049479166667,133.69316752533712L80.63118489583333,133.91422686211448L80.871875,134.01383654115548L81.11256510416666,133.9507124163077L81.35325520833334,133.97028499079917L81.5939453125,134.02442336738096L81.83463541666667,134.1276331537609L82.07532552083333,134.26017300854303L82.31601562499999,134.33123655520598L82.55670572916667,134.41328706440194L82.79739583333334,134.51759758941884L83.0380859375,134.612222083195L83.27877604166666,134.76105730914153L83.51946614583333,134.89027177996724L83.76015625,135.1018751354651L84.00084635416667,135.28450746530942L84.24153645833334,135.3719326929529L84.48222656249999,135.45612932638036L84.72291666666666,135.55428871047647L84.96360677083334,135.67205910262885L85.204296875,135.78383156920563L85.44498697916667,135.92515683098168L85.68567708333335,136.04403242095114L85.92636718749999,136.16354804440203L86.16705729166667,136.34085248913638L86.40774739583334,136.37578321784812L86.6484375,136.4122358679199L86.88912760416667,136.5057051273987L87.12981770833333,136.64743767657131L87.3705078125,136.81328600573588L87.61119791666667,136.90103308858218L87.85188802083333,137.0664715208893L88.092578125,137.17524298753324L88.33326822916668,137.33966694250722L88.57395833333332,137.4626729166924L88.8146484375,137.5678063007488L89.05533854166667,137.59493350694908L89.29602864583333,137.77157127225186L89.53671875,137.90269416386414L89.77740885416667,138.0362808354535L90.01809895833333,138.15284590937424L90.2587890625,138.26964588625333L90.49947916666667,138.37047405486527L90.74016927083333,138.46247953046242L90.980859375,138.56054681331057L91.22154947916667,138.66490803970524L91.46223958333333,138.73776767059414L91.7029296875,138.71845383062103L91.94361979166668,138.7009553716936L92.18430989583332,138.78390480821093L92.425,138.90544544044783L92.66569010416667,139.03198481825928L92.90638020833333,139.16927131059717L93.1470703125,139.3134065337392L93.38776041666667,139.42167983172334L93.62845052083333,139.46420485769346L93.869140625,139.5725616530253L94.10983072916666,139.71069931622372L94.35052083333333,139.78502332386267L94.59121093750001,139.89009106327458L94.83190104166665,139.981747434492L95.07259114583333,140.03872273858968L95.31328125,140.1400240761073L95.55397135416666,140.25228902423208L95.79466145833334,140.37378968360622L96.03535156250001,140.49641812709814L96.27604166666666,140.652975888961L96.51673177083333,140.8212130249222L96.757421875,140.9488886751676L96.99811197916667,141.12279159058264L97.23880208333334,141.13026452613687L97.4794921875,141.118667933705L97.72018229166666,141.2107059459656L97.96087239583333,141.25678454246147L98.20156250000001,141.267109374135L98.44225260416667,141.3547661496887L98.68294270833333,141.44746954623648L98.9236328125,141.53080373312292L99.16432291666666,141.63477877527998L99.40501302083334,141.79582717772197L99.645703125,141.95909626538725L99.88639322916667,142.08344574879365L100.12708333333333,142.21124244300302L100.36777343749999,142.28375723959502L100.60846354166667,142.4224535750415L100.84915364583334,142.57869687789463L101.08984375,142.6796015576982L101.33053385416666,142.6804555819404L101.57122395833333,142.76113792363034L101.8119140625,142.77771879325377L102.05260416666667,142.83038791295002L102.29329427083334,142.89256934495026L102.53398437499999,142.93812122207623L102.77467447916666,142.9622312926351L103.01536458333334,143.04075016855876L103.2560546875,143.08118242781185L103.49674479166667,143.1324205376477L103.73743489583335,143.18839142443016L103.97812499999999,143.25710887325386L104.21881510416667,143.2968824132381L104.45950520833334,143.35187757572933L104.7001953125,143.45873654870132L104.94088541666667,143.52103828096443L105.18157552083333,143.5806961920767L105.422265625,143.6862545706619L105.66295572916667,143.7913168776992L105.90364583333333,143.86835267255404L106.1443359375,143.9603104200828L106.38502604166668,144.08763736170303L106.62571614583332,144.24515320408977L106.86640625,144.36894514457688L107.10709635416667,144.41673240201592L107.34778645833333,144.48526333603684L107.5884765625,144.56746787344335L107.82916666666667,144.67936998554825L108.06985677083333,144.8134660421573L108.310546875,144.9359757355585L108.55123697916667,145.07019806979852L108.79192708333333,145.19070525535534L109.0326171875,145.25614151246538L109.27330729166667,145.3593473692558L109.51399739583333,145.47670254148466L109.7546875,145.63184355513658L109.99537760416668,145.7709090786144L110.23606770833332,145.9116696671446L110.4767578125,146.00661718151466L110.71744791666667,146.07071661972654L110.95813802083333,146.12550652397405L111.198828125,146.26969833675955L111.43951822916667,146.38348049424133L111.68020833333333,146.482538007509L111.9208984375,146.60041974659734L112.16158854166666,146.7318481660457L112.40227864583333,146.88883098907147L112.64296875000001,146.9299156041428L112.88365885416665,147.011698148277L113.12434895833333,147.16092185864747L113.3650390625,147.29775792457875L113.60572916666666,147.43027408740602L113.84641927083334,147.5806404802646L114.08710937500001,147.70086792087207L114.32779947916666,147.8116476784579L114.56848958333333,147.93050919942425L114.8091796875,147.99893192169625L115.04986979166667,148.11783920052642L115.29055989583334,148.15094520030888L115.53125,148.14737330113334L115.77194010416666,148.11599848040422L116.01263020833333,148.1391418011348L116.25332031250001,148.21484166603875L116.49401041666667,148.31220367956996L116.73470052083333,148.39298678045657L116.975390625,148.53483894860682L117.21608072916666,148.64753516690973L117.45677083333334,148.76716006390333L117.6974609375,148.87118722423338L117.93815104166667,148.9517120731352L118.17884114583333,149.07164466593403L118.41953124999999,149.14017539121485L118.66022135416667,149.20684473270506L118.90091145833334,149.26279182600345L119.1416015625,149.33648451408493L119.38229166666666,149.44120218408523L119.62298177083333,149.53968437505543L119.863671875,149.64600135852163L120.10436197916667,149.7096831152591L120.34505208333334,149.7233538330446L120.58574218749999,149.74089333200706L120.82643229166666,149.83724307119348L121.06712239583334,149.87492982053516L121.3078125,149.9167739544652L121.54850260416667,149.98203375597762L121.78919270833335,149.94780240075067L122.02988281249999,149.96707779221668L122.27057291666667,150.00553120628098L122.51126302083334,150.0864433642736L122.751953125,150.12698086121313L122.99264322916667,150.1856859361207L123.23333333333333,150.19535395768088L123.4740234375,150.2306494365457L123.71471354166667,150.29832863928587L123.95540364583333,150.34454322749858L124.19609375,150.34770250000187L124.43678385416668,150.35643520512687L124.67747395833332,150.2365996162793L124.9181640625,150.14823247973922L125.15885416666667,150.06015487586686L125.39954427083333,150.08890881486013L125.640234375,150.09082228384563L125.88092447916667,150.1428223428528L126.12161458333333,150.16687370393294L126.3623046875,150.22893111076397L126.60299479166667,150.29306054180805L126.84368489583333,150.28589507286173L127.084375,150.33079420783469L127.32506510416667,150.4119232428021L127.56575520833333,150.4886502374592L127.8064453125,150.5547781958748L128.04713541666666,150.6548253422989L128.28782552083334,150.72333294604726L128.528515625,150.7822150931542L128.76920572916669,150.8574463365958L129.00989583333333,150.94488432686896L129.2505859375,151.03560009276086L129.49127604166665,151.1081857816961L129.73196614583333,151.18062938584166L129.97265625,151.25388162123093L130.21334635416665,151.34337978307394L130.45403645833332,151.4457248691799L130.6947265625,151.51704869277896L130.93541666666667,151.6267282744534L131.17610677083334,151.6770173037907L131.41679687500002,151.76044135088816L131.65748697916666,151.79015157714468L131.89817708333334,151.8831068117328L132.1388671875,152.01908518086327L132.37955729166666,152.06786606172724L132.62024739583333,152.11596931730708L132.8609375,152.15919183476376L133.10162760416665,152.21041812480448L133.34231770833333,152.23921604736228L133.5830078125,152.19321860292845L133.82369791666667,152.17772552558614L134.06438802083335,152.17933798612856L134.305078125,152.18647282295618L134.54576822916667,152.23055597736982L134.78645833333334,152.18874477310266L135.02714843750002,152.10258628502976L135.26783854166666,151.93749297313178L135.50852864583334,151.8878382701716L135.74921874999998,151.87487418464184L135.98990885416666,151.89167193791647L136.23059895833333,151.85181453866397L136.4712890625,151.86366360133053L136.71197916666665,151.9113584715439L136.95266927083333,151.92464479450257L137.193359375,151.8859950360391L137.43404947916667,151.89212797502313L137.67473958333335,151.91997353732648L137.9154296875,151.9353102741177L138.15611979166667,151.93901458116207L138.39680989583334,151.98151073959158L138.6375,152.02386253910916L138.87819010416666,152.08316884062106L139.11888020833334,152.04998628234864L139.35957031249998,152.0889984120993L139.60026041666666,152.14031627138996L139.84095052083333,152.1509935823172L140.081640625,152.15215111929535L140.32233072916668,152.17623114579936L140.56302083333335,152.21869562199194L140.8037109375,152.2449821974401L141.04440104166667,152.31751695640259L141.28509114583335,152.3419880320256L141.52578125,152.42012562449733L141.76647135416667,152.46245221332595L142.00716145833331,152.54134572728177L142.2478515625,152.55622487077238L142.48854166666666,152.52841325234797L142.72923177083334,152.4982637328775L142.969921875,152.51909008122686L143.21061197916666,152.5893990360382L143.45130208333333,152.61711975573024L143.6919921875,152.63015607667L143.93268229166668,152.69598797456635L144.17337239583333,152.80751754431748L144.4140625,152.89730166323935L144.65475260416667,152.90721873707724L144.89544270833335,152.9208846539382L145.1361328125,152.98618313915804L145.37682291666667,152.99146049338594L145.61751302083334,153.01389401400237L145.858203125,153.05010326395478L146.09889322916666,153.08027677721776L146.33958333333334,153.14546515203102L146.58027343749998,153.18073748127483L146.82096354166666,153.19382149691873L147.06165364583333,153.24442171191842L147.30234375,153.28057358995366L147.54303385416668,153.3480545327981L147.78372395833335,153.29376585473142L148.0244140625,153.2210165878463L148.26510416666665,153.19907008408435L148.50579427083332,153.25024740212046L148.746484375,153.28669334227249L148.98717447916667,153.28105401981196L149.22786458333334,153.27478591024203L149.4685546875,153.32231595492925L149.70924479166666,153.21740638178514L149.94993489583334,153.2131226178825L150.190625,153.28957997113255L150.43131510416669,153.3534387130747L150.67200520833333,153.40714351611453L150.91269531249998,153.50939444042658L151.15338541666665,153.62780755123777L151.39407552083333,153.7078579076005L151.634765625,153.80893688315467L151.87545572916667,153.89101319634986L152.11614583333332,153.94954288177084L152.3568359375,153.9401117174143L152.59752604166667,154.02694621266807L152.83821614583334,154.11965121058594L153.07890625000002,154.20403434090045L153.3195963541667,154.17774399486498L153.5602864583333,154.16941898598614L153.80097656249998,154.16916729839386L154.04166666666666,154.20663772828223L154.28235677083333,154.2565350071674L154.523046875,154.2775268886104L154.76373697916668,154.29083865961667L155.00442708333333,154.3033517015547L155.2451171875,154.37575087669103L155.48580729166667,154.3951666293723L155.72649739583335,154.4283157498981L155.96718750000002,154.42167433992012L156.20787760416667,154.4001342065674L156.44856770833331,154.41906029989894L156.6892578125,154.43465673117538L156.92994791666666,154.4866312900704L157.17063802083334,154.5089985712026L157.411328125,154.53670975755784L157.65201822916666,154.59463306118542L157.89270833333333,154.66683819888217L158.1333984375,154.73587290579036L158.37408854166668,154.7874680335393L158.61477864583335,154.84111481148847L158.85546875,154.8678403614128L159.09615885416665,154.88127448961575L159.33684895833332,154.8401781375696L159.5775390625,154.8721201337509L159.81822916666667,154.873062661282L160.05891927083334,154.8319053854628L160.29960937500002,154.77098045489433L160.54029947916666,154.81798281767328L160.78098958333334,154.82308629378036L161.0216796875,154.8354149618314L161.26236979166666,154.88118777933258L161.50305989583333,154.95007053078052L161.74375,154.97653544084758L161.98444010416665,155.0252818195234L162.22513020833333,154.95370689323738L162.4658203125,154.88301211343997L162.70651041666667,154.87349300011323L162.94720052083335,154.88393273194725L163.187890625,154.92939853178103L163.42858072916667,154.98451210815222L163.66927083333334,155.0130534534006L163.9099609375,155.01640681699192L164.15065104166666,155.03059841195278L164.39134114583334,155.1045405666465L164.63203124999998,155.11494263606963L164.87272135416666,155.17716028767651L165.11341145833333,155.22183137497166L165.3541015625,155.2843460928536L165.59479166666668,155.3243170361511L165.83548177083335,155.3293950302901L166.076171875,155.31269576970755L166.31686197916665,155.24612052568608L166.55755208333332,155.2434400778678L166.7982421875,155.25455003987076L167.03893229166667,155.22136875673507L167.27962239583334,155.2223759604254L167.5203125,155.2780704029287L167.76100260416666,155.30138241189132L168.00169270833334,155.35811874342536L168.2423828125,155.37713267076202L168.48307291666669,155.37401173968337L168.72376302083333,155.3382663671483L168.96445312499998,155.32570069955958L169.20514322916665,155.3556969710592L169.44583333333333,155.40689537991764L169.6865234375,155.47544637613552L169.92721354166667,155.52663192805088L170.16790364583332,155.5377104649634L170.40859375,155.4527613099226L170.64928385416667,155.39336584395076L170.88997395833334,155.38296268527353L171.13066406250002,155.33108133220827L171.3713541666667,155.36787881888785L171.6120442708333,155.39289315757503L171.85273437499998,155.3971318725443L172.09342447916666,155.38655591331764L172.33411458333333,155.34023076174162L172.5748046875,155.2095334777672L172.81549479166668,155.15280615179898L173.05618489583333,155.18049317610206L173.296875,155.17464676995158L173.53756510416667,155.22003780555272L173.77825520833335,155.2675811046293L174.01894531250002,155.28632763506116L174.25963541666667,155.27616527216145L174.50032552083331,155.25011549039536L174.741015625,155.25609003997596L174.98170572916666,155.29608464846905L175.22239583333334,155.28644289056805L175.4630859375,155.30482455963397L175.70377604166666,155.24112970981707L175.94446614583333,155.2243599943746L176.18515625,155.2785868035651L176.42584635416668,155.31066409236558L176.66653645833335,155.338263384733L176.9072265625,155.3945945460522L177.14791666666665,155.43587935976223L177.38860677083332,155.47092928226766L177.629296875,155.48354614940482L177.86998697916667,155.49896906551265L178.11067708333334,155.58183250481034L178.35136718750002,155.6141980396706L178.59205729166666,155.60276152606247L178.83274739583334,155.62654123496034L179.0734375,155.66037528214432L179.31412760416666,155.72013139414898L179.55481770833333,155.7539586552862L179.7955078125,155.73216984737536L180.03619791666665,155.63171944178126L180.27688802083333,155.2292553997961L180.517578125,155.10464692166826L180.75826822916667,154.97034676731136L180.99895833333335,154.90008350190675L181.2396484375,154.8770774778442L181.48033854166667,154.84524186605873L181.72102864583334,154.8688954700437L181.96171875,154.86257380317352L182.20240885416666,154.88694415460185L182.44309895833334,154.9000497453849L182.68378906249998,154.95526022861796L182.92447916666666,155.0373052091413L183.16516927083333,155.09739945905514L183.405859375,155.1600607636919L183.64654947916668,155.21543819547713L183.88723958333335,155.28015284115733L184.1279296875,155.3357341076363L184.36861979166665,155.32807656792872L184.60930989583332,155.34680854520212L184.85,155.35113452339448L185.09069010416667,155.38660006361295L185.33138020833334,155.47328416355526L185.5720703125,155.53969085960978L185.81276041666666,155.5940611624754L186.05345052083334,155.58934202420184L186.294140625,155.54534183613552L186.53483072916669,155.51173407569573L186.77552083333333,155.56292442175476L187.01621093749998,155.63801408690975L187.25690104166665,155.64591088843207L187.49759114583333,155.6042021434463L187.73828125,155.60456581657263L187.97897135416667,155.51312584126882L188.21966145833332,155.48045301268732L188.4603515625,155.46512472667825L188.70104166666667,155.47559740170314L188.94173177083334,155.4565456671274L189.18242187500002,155.46502451441L189.4231119791667,155.49140114429304L189.6638020833333,155.4916565449263L189.90449218749998,155.4931818896641L190.14518229166666,155.48095562802504L190.38587239583333,155.504740787595L190.6265625,155.52990642493464L190.86725260416668,155.407386414209L191.10794270833333,155.37027078006608L191.3486328125,155.3672064874219L191.58932291666667,155.33057342673965L191.83001302083335,155.3246041139714L192.07070312500002,155.37669211647042L192.31139322916667,155.4331477952481L192.55208333333331,155.42638274890834L192.7927734375,155.36208878175424L193.03346354166666,155.3991068053461L193.27415364583334,155.4372928144698L193.51484375,155.48058244091905L193.75553385416666,155.49233144560154L193.99622395833333,155.4923652644115L194.2369140625,155.53576004614814L194.47760416666668,155.58869459415578L194.71829427083335,155.6522036040542L194.958984375,155.66813900285928L195.19967447916665,155.66115624228428L195.44036458333332,155.69013413662734L195.6810546875,155.7417342748026L195.92174479166667,155.74354194063775L196.16243489583334,155.75667547668192L196.40312500000002,155.75543936705694L196.64381510416666,155.73044617167812L196.88450520833334,155.69744812862672L197.1251953125,155.73861095698314L197.36588541666666,155.72606081082262L197.60657552083333,155.74243616552477L197.847265625,155.71347028024226L198.08795572916665,155.72871627661047L198.32864583333333,155.730419775684L198.5693359375,155.7699508909715L198.81002604166667,155.7942937939034L199.05071614583335,155.83530741252312L199.29140625,155.8953995934966L199.53209635416667,155.94178972250947L199.77278645833334,155.95151081390418L200.0134765625,156.00633194997894L200.25416666666666,156.048674310962L200.49485677083334,156.0836561286261L200.73554687499998,156.00251378774556L200.97623697916666,155.98982864329338L201.21692708333333,155.95739272268298L201.4576171875,155.9722837685566L201.69830729166668,155.95414398125249L201.93899739583335,155.94926255852928L202.1796875,155.9628220336359L202.42037760416665,155.89843903482256L202.66106770833332,155.8323244909494L202.9017578125,155.83091744639248L203.14244791666667,155.85354703590986L203.38313802083334,155.90238774047188L203.623828125,155.9560193465332L203.86451822916666,155.9325098179598L204.10520833333334,155.94373664366043L204.3458984375,155.97505391053102L204.58658854166669,156.0085790462995L204.82727864583333,156.01317220421768L205.06796874999998,156.08569843550038L205.30865885416665,156.11989884521495L205.54934895833333,156.16970746258986L205.7900390625,156.1856714971157L206.03072916666667,156.18677894151423L206.27141927083332,156.04638001292594L206.512109375,156.04163256186746L206.75279947916667,156.08574390183054L206.99348958333334,156.02269449646698L207.23417968750002,155.98418002431373L207.4748697916667,155.90377220984269L207.7155598958333,155.87882729980765L207.95624999999998,155.8176171981812L208.19694010416666,155.811544366199L208.43763020833333,155.8189013729999L208.6783203125,155.7923727465041L208.91901041666668,155.76652781689305L209.15970052083333,155.75606356263043L209.400390625,155.76848788358782L209.64108072916667,155.74430216961076L209.88177083333335,155.69319323109235L210.12246093750002,155.68419629008574L210.36315104166667,155.699516741963L210.60384114583331,155.65540160560352L210.84453125,155.6720377470007L211.08522135416666,155.62029066908048L211.32591145833334,155.57043766742825L211.5666015625,155.40339643565005L211.80729166666666,155.25099075922722L212.04798177083333,155.15367231379255L212.288671875,155.03040427080208L212.52936197916668,155.0102468142861L212.77005208333335,155.04256504700095L213.0107421875,155.01860094502115L213.25143229166665,155.03341324140362L213.49212239583332,155.0221545757864L213.7328125,155.0284175930479L213.97350260416667,155.06536234327243L214.21419270833334,155.12174841181564L214.45488281250002,155.12955026107093L214.69557291666666,155.12989963387446L214.93626302083334,155.186188557257L215.176953125,155.23229602807774L215.41764322916666,155.2658616352205L215.65833333333333,155.25863384991874L215.8990234375,155.23447618738018L216.13971354166665,155.21880140139874L216.38040364583333,155.1786161057455L216.62109375,155.13932618619404L216.86178385416667,155.15402656778707L217.10247395833335,155.19947906869487L217.3431640625,155.1715098202285L217.58385416666667,155.2139391317615L217.82454427083334,155.23266336135194L218.065234375,155.30949106634077L218.30592447916666,155.3577520884339L218.54661458333334,155.4164701944755L218.78730468749998,155.45663002452056L219.02799479166666,155.47728016591728L219.26868489583333,155.45759173058704L219.509375,155.47804659857698L219.75006510416668,155.47686547569336L219.99075520833335,155.5485354973622L220.2314453125,155.5876805716909L220.47213541666665,155.6298087028848L220.71282552083332,155.68338876964833L220.953515625,155.7310170226934L221.19420572916667,155.80830497479025L221.43489583333334,155.81434078077453L221.6755859375,155.84017902800682L221.91627604166666,155.88469282068917L222.15696614583334,155.94722504636516L222.39765625,155.96044067959966L222.63834635416669,155.8745125164696L222.87903645833333,155.83568163165742L223.11972656249998,155.73068351662016L223.36041666666665,155.71311125493625L223.60110677083333,155.68161597709164L223.841796875,155.68671905795742L224.08248697916667,155.6639415898412L224.32317708333332,155.65440194876498L224.5638671875,155.69190365918678L224.80455729166667,155.6540674549427L225.04524739583334,155.69619879815087L225.28593750000002,155.69310999278116L225.5266276041667,155.73415907555724L225.7673177083333,155.75016068354338L226.00800781249998,155.76300497130214L226.24869791666666,155.70610437570141L226.48938802083333,155.70486903673375L226.730078125,155.7030867354428L226.97076822916668,155.68795745900673L227.21145833333333,155.60621509657022L227.4521484375,155.47317483248753L227.69283854166667,155.35595753035497L227.93352864583335,155.29228478757457L228.17421875000002,155.26080444622164L228.41490885416667,155.2648176588769L228.65559895833331,155.20320807019013L228.8962890625,155.14686164152968L229.13697916666666,155.14838835267915L229.37766927083334,155.19599454610812L229.618359375,155.20085174473743L229.85904947916666,155.23622498588662L230.09973958333333,155.1518487485298L230.3404296875,155.12077814103958L230.58111979166668,155.11386614897975L230.82180989583335,155.08794391502238L231.0625,155.0350138437779L231.30319010416665,155.03150628824395L231.54388020833332,154.799617625056L231.7845703125,154.713200759555L232.02526041666667,154.66216051986407L232.26595052083334,154.6496819729887L232.50664062500002,154.65356776154087L232.74733072916666,154.64708045166242L232.98802083333334,154.64352554536336L233.2287109375,154.69704318799626L233.46940104166666,154.71880468902103L233.71009114583333,154.76777303844128L233.95078125,154.8401598867294L234.19147135416665,154.86383966213933L234.43216145833333,154.89790801149974L234.6728515625,154.93091786749198L234.91354166666667,154.99021106380158L235.15423177083335,155.0708399758193L235.394921875,155.01646597273833L235.63561197916667,155.0357458911703L235.87630208333334,155.11720562494213L236.1169921875,155.20197329637293L236.35768229166666,155.2694025641088L236.59837239583334,155.3451159699362L236.83906249999998,155.41222261045706L237.07975260416666,155.42829858591867L237.32044270833333,155.4258519571295L237.5611328125,155.48773118111458L237.80182291666668,155.51510887324005L238.04251302083335,155.49392533763896L238.283203125,155.535735431997L238.52389322916665,155.5212000145347L238.76458333333332,155.54180001680513L239.0052734375,155.57945853775408L239.24596354166667,155.56749497144176L239.48665364583334,155.5482994661381L239.72734375,155.54351524389813L239.96803385416666,155.54044961976297L240.20872395833334,155.45559510793177L240.4494140625,155.38109268357786L240.69010416666669,155.41208378556087L240.93079427083333,155.45001318558113L241.17148437499998,155.44489701249483L241.41217447916665,155.43873084816266L241.65286458333333,155.4387146424018L241.8935546875,155.4802681654862L242.13424479166667,155.50055700494863L242.37493489583332,155.53699866339124L242.615625,155.56118633199233L242.85631510416667,155.62939620678824L243.09700520833334,155.69172342034256L243.33769531250002,155.73829223520428L243.5783854166667,155.74265340885069L243.8190755208333,155.78600400320295L244.05976562499998,155.79882320758173L244.30045572916666,155.828623564359L244.54114583333333,155.85461372296726L244.7818359375,155.87769478145208L245.02252604166668,155.90669387244017L245.26321614583333,155.90373774185906L245.50390625,155.90686258949805L245.74459635416667,155.90785486801613L245.98528645833335,155.72868500876905L246.22597656250002,155.68431954838712L246.46666666666667,155.62102934558933L246.70735677083331,155.56989913282078L246.948046875,155.45310829219693L247.18873697916666,155.40446096119487L247.42942708333334,155.34744343049027L247.6701171875,155.32853658720467L247.91080729166666,155.3257179808011L248.15149739583333,155.32906003947292L248.3921875,155.3219587695735L248.63287760416668,155.31156070140779L248.87356770833335,155.30784046027694L249.1142578125,155.3760850519969L249.35494791666665,155.47033812237837L249.59563802083332,155.4946327663797L249.836328125,155.54681584815418L250.07701822916667,155.59347191512637L250.31770833333334,155.56843273004785L250.55839843750002,155.5141634307903L250.79908854166666,155.51381359593313L251.03977864583334,155.47615415998723L251.28046875,155.46392971623416L251.52115885416666,155.4920377378363L251.76184895833333,155.5367897794773L252.0025390625,155.5614131207255L252.24322916666665,155.59138126359855L252.48391927083333,155.61075679437909L252.724609375,155.68705564954521L252.96529947916667,155.70006718303702L253.20598958333335,155.72113315798805L253.4466796875,155.73928269233517L253.68736979166667,155.74407787267916L253.92805989583334,155.7456665224244L254.16875,155.66149696665954L254.40944010416666,155.63390836471302L254.65013020833334,155.61913159001122L254.89082031249998,155.6110323004299L255.13151041666666,155.60843908980985L255.37220052083333,155.632732010377L255.612890625,155.63776436545334L255.85358072916668,155.67084129831383L256.0942708333333,155.69959229128855L256.3349609375,155.7141323587618L256.5756510416667,155.71891935574703L256.81634114583335,155.75029565133647L257.05703125,155.79920578781787L257.2977213541667,155.83470483222652L257.53841145833337,155.88462773468095L257.7791015625,155.91494928472633L258.01979166666666,155.92165266729413L258.26048177083334,155.96647409265654L258.501171875,155.8854482695458L258.7418619791667,155.84444998792694L258.9825520833333,155.84834424707373L259.2232421875,155.78176960807454L259.46393229166665,155.67525187668832L259.7046223958333,155.63756546173667L259.9453125,155.59005892679448L260.1860026041667,155.61020979091668L260.4266927083333,155.59720749024797L260.66738281249997,155.62376633710616L260.90807291666664,155.56180368923836L261.1487630208333,155.567055739195L261.389453125,155.54720240996207L261.63014322916666,155.5147026987867L261.87083333333334,155.49332854190135L262.1115234375,155.47644126828627L262.3522135416667,155.5188485291168L262.59290364583336,155.54815930793276L262.83359375000003,155.60560004095876L263.0742838541667,155.6086869297678L263.3149739583333,155.6467837985736L263.5556640625,155.69717442385962L263.7963541666667,155.74397317995852L264.03704427083335,155.7044732962904L264.277734375,155.634198734491L264.5184244791667,155.57541093896737" style="fill: none;" fill="none"></path></g></g></g></g><g opacity="0.2"><g><g><g><path stroke="rgb(204, 51, 17)" stroke-width="2px" d="M24.069010416666664,27.569170117378235L24.309700520833335,61.512937903404236L24.550390625000002,74.88481664657593L24.791080729166666,69.54034423828125L25.031770833333333,76.34776711463928L25.2724609375,72.62020164728165L25.513151041666667,81.33964723348618L25.753841145833334,77.79680210351944L25.994531249999998,78.23731827735901L26.23522135416667,83.64512246847153L26.475911458333332,82.31564033031464L26.7166015625,86.81867462396622L26.957291666666666,92.67659550905228L27.197981770833334,88.72334396839142L27.438671875,77.36631900072098L27.679361979166668,75.67089879512787L27.92005208333333,73.48007065057755L28.160742187500002,74.83493614196777L28.401432291666666,82.11490505933762L28.642122395833333,75.3329393863678L28.8828125,81.14282602071762L29.123502604166667,77.99018400907516L29.364192708333334,84.03335273265839L29.604882812499998,82.43948704004288L29.845572916666665,83.13739210367203L30.086263020833336,85.20964854955673L30.326953125,84.06894850730896L30.567643229166666,87.40332520008087L30.808333333333334,85.41819083690643L31.0490234375,88.92454871535301L31.289713541666668,84.96256703138351L31.53040364583333,86.06430584192276L31.77109375,89.06695291399956L32.011783854166666,89.27032569050789L32.25247395833333,88.25430053472519L32.4931640625,90.70318222045898L32.73385416666667,91.82199096679688L32.974544270833334,96.1732368171215L33.215234375,94.43292099237442L33.45592447916667,94.9732825756073L33.696614583333336,94.81473684310913L33.937304687499996,92.8223757147789L34.17799479166666,100.04925164580345L34.41868489583334,97.55217218399048L34.659375,102.25576239824295L34.900065104166664,105.49460864067078L35.14075520833334,95.79459124803543L35.3814453125,103.52821111679077L35.622135416666666,108.04071405529976L35.86282552083333,82.20449584722519L36.103515625,98.5980433523655L36.34420572916667,96.05649554729462L36.584895833333334,104.23883950710297L36.8255859375,104.60477229952812L37.06627604166666,110.79059314727783L37.306966145833336,111.80506744980812L37.54765625,119.01577547192574L37.78834635416666,90.38566875457764L38.02903645833333,108.83754140138626L38.269726562500004,111.08039698004723L38.510416666666664,111.78010082244873L38.75110677083333,115.8807572722435L38.991796875000006,106.30688121914864L39.232486979166666,110.70171976089478L39.47317708333333,103.6362538933754L39.7138671875,105.56452891230583L39.95455729166667,99.60666766762733L40.195247395833334,100.20366176962852L40.4359375,80.82137739658356L40.67662760416667,81.35270816087723L40.917317708333336,102.99492332339287L41.158007812499996,112.70403483510017L41.39869791666667,113.95309942960739L41.63938802083333,109.02883967757225L41.880078125,114.94066590070724L42.12076822916667,114.39458620548248L42.36145833333333,115.52735790610313L42.6021484375,118.8327114880085L42.84283854166667,110.357551664114L43.08352864583333,113.72256034612656L43.32421875,116.71734237670898L43.56490885416667,115.4660148024559L43.805598958333334,118.91597226262093L44.0462890625,119.47950169444084L44.28697916666666,114.87834692001343L44.527669270833336,118.4135380089283L44.768359375,123.38687646389008L45.00904947916666,126.23077207803726L45.24973958333334,121.58699521422386L45.4904296875,122.16880783438683L45.731119791666664,121.85832595825195L45.97180989583334,125.34437504410744L46.2125,121.6880644261837L46.453190104166666,126.6580690741539L46.69388020833333,118.40511909127235L46.9345703125,119.6140725016594L47.17526041666667,122.8998452425003L47.41595052083333,124.46906080842018L47.656640625,117.5613599717617L47.89733072916667,128.86983901262283L48.13802083333333,133.0092852562666L48.3787109375,125.07421535253525L48.61940104166667,127.97826191782951L48.86009114583333,124.7051492035389L49.100781250000004,131.650555819273L49.341471354166664,126.09222918748856L49.58216145833333,116.16425746679306L49.8228515625,122.78201732039452L50.063541666666666,132.17878487706184L50.30423177083333,126.47371798753738L50.544921875,125.03606647253036L50.78561197916667,127.91543126106262L51.026302083333334,121.74066683650017L51.266992187499994,129.07566994428635L51.50768229166667,132.52465152740479L51.748372395833336,129.14803782105446L51.989062499999996,130.98958110809326L52.22975260416667,132.80581752955914L52.47044270833334,131.04225209355354L52.7111328125,133.31765976548195L52.951822916666664,134.63197097182274L53.19251302083334,129.6441895365715L53.433203125,135.3917809277773L53.673893229166666,129.00664114952087L53.91458333333333,135.35248737037182L54.1552734375,135.65619876980782L54.39596354166667,131.18975195288658L54.636653645833334,134.449371188879L54.87734375,136.34863364696503L55.11803385416666,130.70631301403046L55.358723958333336,136.56617510318756L55.5994140625,136.5096981972456L55.84010416666666,137.1253262758255L56.08079427083333,124.52466470003128L56.321484375000004,136.03103314340115L56.562174479166664,137.86254335939884L56.80286458333333,131.11495757102966L57.043554687500006,138.93191733956337L57.284244791666666,137.80093386769295L57.52493489583333,140.995491117239L57.765625,136.18174548447132L58.00631510416667,132.22576940059662L58.247005208333334,106.45816326141357L58.4876953125,119.80998641252518L58.72838541666667,121.20179808139801L58.969075520833336,127.24040392041206L59.209765624999996,125.46626999974251L59.45045572916667,135.78294409811497L59.69114583333333,136.36773973703384L59.9318359375,136.81583873927593L60.17252604166667,133.3433226943016L60.41321614583333,134.62635044753551L60.65390625,140.6887650489807L60.89459635416667,128.76056188344955L61.13528645833333,140.17298765480518L61.3759765625,143.60410277545452L61.61666666666667,133.80305837094784L61.857356770833334,137.79236988723278L62.098046875,141.5468642860651L62.33873697916666,142.81665176153183L62.579427083333336,135.5609953701496L62.8201171875,142.9340233951807L63.06080729166666,145.74832355976105L63.30149739583334,145.98083813488483L63.5421875,149.83597446978092L63.782877604166664,141.10107573866844L64.02356770833333,144.253514662385L64.2642578125,146.23451341688633L64.50494791666667,139.73945032060146L64.74563802083333,141.9834584891796L64.986328125,134.528762742877L65.22701822916666,140.17638739943504L65.46770833333333,140.534932538867L65.70839843750001,146.07621033489704L65.94908854166667,148.17538252472878L66.18977864583333,149.60276095569134L66.43046875,142.78180240094662L66.67115885416666,148.15626852214336L66.91184895833334,141.6414689719677L67.1525390625,139.09019404649734L67.39322916666667,142.97933574020863L67.63391927083333,142.70399598777294L67.87460937499999,140.0106333643198L68.11529947916667,143.94665935635567L68.35598958333333,144.12137827277184L68.5966796875,139.95448614656925L68.83736979166667,143.02947208285332L69.07805989583333,143.03801760077477L69.31875,145.18670631945133L69.55944010416667,143.99344342947006L69.80013020833333,142.00934824347496L70.0408203125,144.8280952423811L70.28151041666668,140.1250668168068L70.52220052083334,139.52488133311272L70.762890625,139.81716705858707L71.00358072916666,138.13746374845505L71.24427083333333,144.41568168997765L71.4849609375,139.6607603430748L71.72565104166667,145.2055381089449L71.96634114583334,142.76364317536354L72.20703125,147.5732268244028L72.44772135416667,142.7979914098978L72.68841145833333,140.43750308454037L72.9291015625,137.74707336723804L73.16979166666667,138.4983931928873L73.41048177083333,138.56961902976036L73.651171875,138.464461684227L73.89186197916668,135.3144017904997L74.13255208333332,137.7508845627308L74.3732421875,136.7794622629881L74.61393229166667,140.85056018829346L74.85462239583333,145.44896931946278L75.0953125,151.31917306780815L75.33600260416667,143.5521782040596L75.57669270833333,150.67944610118866L75.8173828125,143.58910328149796L76.05807291666666,143.14482866227627L76.29876302083333,143.96645911037922L76.53945312500001,148.35452190041542L76.78014322916665,143.89254301786423L77.02083333333333,147.6833400428295L77.2615234375,151.61271952092648L77.50221354166666,146.1573162674904L77.74290364583334,144.63761723041534L77.98359375000001,144.89982748031616L78.22428385416666,150.34850245714188L78.46497395833333,146.03586177527905L78.7056640625,148.262544170022L78.94635416666667,142.73711514472961L79.18704427083334,141.91232232749462L79.427734375,143.21664530038834L79.66842447916666,149.10340730845928L79.90911458333333,145.74857676029205L80.14980468750001,149.83008228242397L80.39049479166667,147.0746354162693L80.63118489583333,153.73650227487087L80.871875,142.95507860183716L81.11256510416666,128.27868434786797L81.35325520833334,135.7307716012001L81.5939453125,138.89888785779476L81.83463541666667,143.4295974969864L82.07532552083333,146.21732215583324L82.31601562499999,140.7485124617815L82.55670572916667,141.82985807955265L82.79739583333334,143.95523916184902L83.0380859375,143.18157175183296L83.27877604166666,148.25237922370434L83.51946614583333,146.61384473741055L83.76015625,154.31805641949177L84.00084635416667,151.884717553854L84.24153645833334,143.32546086609364L84.48222656249999,143.12269207835197L84.72291666666666,144.50003439188004L84.96360677083334,146.41431480646133L85.204296875,145.98769828677177L85.44498697916667,148.83783423900604L85.68567708333335,146.91458894312382L85.92636718749999,147.10166193544865L86.16705729166667,152.58108231425285L86.40774739583334,139.5778556317091L86.6484375,139.7564938813448L86.88912760416667,145.08759413659573L87.12981770833333,149.67080859839916L87.3705078125,152.06437915563583L87.61119791666667,144.9762650281191L87.85188802083333,152.30305494368076L88.092578125,147.2004075050354L88.33326822916668,152.50540173053741L88.57395833333332,148.816517919302L88.8146484375,147.27899461984634L89.05533854166667,140.1024765819311L89.29602864583333,154.11093574762344L89.53671875,150.04035741090775L89.77740885416667,150.4106025248766L90.01809895833333,148.95785656571388L90.2587890625,149.10379502177238L90.49947916666667,147.72940143942833L90.74016927083333,147.0081650018692L90.980859375,147.67526663839817L91.22154947916667,148.3709298223257L91.46223958333333,145.5183805525303L91.7029296875,136.9198830574751L91.94361979166668,137.07041077315807L92.18430989583332,146.5181402117014L92.425,150.24493816494942L92.66569010416667,150.8450656235218L92.90638020833333,151.9933986067772L93.1470703125,152.78533865511417L93.38776041666667,149.5476845651865L93.62845052083333,143.44358682632446L93.869140625,149.7181861102581L94.10983072916666,152.65217100083828L94.35052083333333,146.75204211473465L94.59121093750001,149.7445084154606L94.83190104166665,148.58307230472565L95.07259114583333,145.38840427994728L95.31328125,149.65685883164406L95.55397135416666,150.8047830015421L95.79466145833334,151.80048617720604L96.03535156250001,152.03525318205357L96.27604166666666,155.39209878444672L96.51673177083333,156.6680580228567L96.757421875,152.98124201595783L96.99811197916667,157.51994989067316L97.23880208333334,141.83523331582546L97.4794921875,140.02414794266224L97.72018229166666,149.901769682765L97.96087239583333,145.61004969477654L98.20156250000001,142.2430127710104L98.44225260416667,149.64401417970657L98.68294270833333,150.21806198358536L98.9236328125,149.41864196956158L99.16432291666666,151.48085743188858L99.40501302083334,157.05348725616932L99.645703125,157.434099085629L99.88639322916667,153.87480778992176L100.12708333333333,154.33482040464878L100.36777343749999,149.1659531146288L100.60846354166667,155.59144804626703L100.84915364583334,157.42007810622454L101.08984375,152.26847460865974L101.33053385416666,142.76164658367634L101.57122395833333,150.4346776753664L101.8119140625,144.35533820092678L102.05260416666667,147.843724116683L102.29329427083334,148.81371161341667L102.53398437499999,147.2774569541216L102.77467447916666,145.25989182293415L103.01536458333334,150.5264101177454L103.2560546875,146.937305778265L103.49674479166667,148.02098295092583L103.73743489583335,148.53051209449768L103.97812499999999,149.81826362013817L104.21881510416667,147.09586733579636L104.45950520833334,148.60667797923088L104.7001953125,153.6728223413229L104.94088541666667,149.47826014459133L105.18157552083333,149.2871359437704L105.422265625,153.78673093020916L105.66295572916667,153.84780764579773L105.90364583333333,151.24469254910946L106.1443359375,152.76844543218613L106.38502604166668,156.2876901626587L106.62571614583332,159.3428222760558L106.86640625,156.23812747746706L107.10709635416667,149.00006984174252L107.34778645833333,151.0602702498436L107.5884765625,152.4568637162447L107.82916666666667,155.42231141030788L108.06985677083333,157.69111213088036L108.310546875,156.70458351820707L108.55123697916667,157.96789591759443L108.79192708333333,156.7739907950163L109.0326171875,151.54783160984516L109.27330729166667,155.2855224609375L109.51399739583333,156.7670475617051L109.7546875,160.56177051365376L109.99537760416668,159.15766411274672L110.23606770833332,159.46544913947582L110.4767578125,155.15164795517921L110.71744791666667,152.2462826371193L110.95813802083333,151.40561467409134L111.198828125,160.16926880925894L111.43951822916667,157.35463236272335L111.68020833333333,156.0364572107792L111.9208984375,157.97290981560946L112.16158854166666,159.4145571514964L112.40227864583333,162.0414401292801L112.64296875000001,150.8965840190649L112.88365885416665,154.90970561653376L113.12434895833333,161.57556433975697L113.3650390625,160.51907193660736L113.60572916666666,160.23734414577484L113.84641927083334,162.1163927614689L114.08710937500001,159.3259237781167L114.32779947916666,158.52574284374714L114.56848958333333,159.42895001918077L114.8091796875,154.61956550180912L115.04986979166667,159.62605872005224L115.29055989583334,151.35578164458275L115.53125,147.80151611566544L115.77194010416666,145.07737907767296L116.01263020833333,150.38104663789272L116.25332031250001,155.54953676462173L116.49401041666667,157.7478356435895L116.73470052083333,156.22359482198954L116.975390625,162.28803107142448L117.21608072916666,159.576234921813L117.45677083333334,160.37019002437592L117.6974609375,158.963398642838L117.93815104166667,156.76544132083654L118.17884114583333,160.71166127175093L118.41953124999999,155.7927345559001L118.66022135416667,155.67999570071697L118.90091145833334,154.69595029950142L119.1416015625,156.49435190856457L119.38229166666666,159.61452358961105L119.62298177083333,159.10905092954636L119.863671875,159.9786101281643L120.10436197916667,155.8998647555709L120.34505208333334,151.05246059596539L120.58574218749999,151.44644589722157L120.82643229166666,159.20805101841688L121.06712239583334,153.5409338772297L121.3078125,153.98791193962097L121.54850260416667,156.33246445655823L121.78919270833335,146.61617101728916L122.02988281249999,151.84341421723366L122.27057291666667,153.74936275184155L122.51126302083334,157.96539292484522L122.751953125,154.07504193484783L122.99264322916667,155.90408212691545L123.23333333333333,151.13725903630257L123.4740234375,153.66986042261124L123.71471354166667,156.8940830156207L123.95540364583333,154.84915244579315L124.19609375,150.65569008886814L124.43678385416668,151.20789143443108L124.67747395833332,138.55059470236301L124.9181640625,141.52962554991245L125.15885416666667,141.46849344670773L125.39954427083333,152.8941726833582L125.640234375,150.27752982079983L125.88092447916667,155.21749064326286L126.12161458333333,152.51437716186047L126.3623046875,156.28683429211378L126.60299479166667,156.5541164651513L126.84368489583333,149.5862211585045L127.084375,154.71558916568756L127.32506510416667,158.3359743207693L127.56575520833333,157.9837631508708L127.8064453125,157.01538848876953L128.04713541666666,160.43059549480677L128.28782552083334,157.4182054772973L128.528515625,156.53719554841518L128.76920572916669,158.2112928405404L129.00989583333333,159.49303217232227L129.2505859375,159.90531384944916L129.49127604166665,158.2061246484518L129.73196614583333,158.2655529230833L129.97265625,158.4187682569027L130.21334635416665,160.09836342930794L130.45403645833332,161.45863844454288L130.6947265625,158.49583353102207L130.93541666666667,162.3597540780902L131.17610677083334,156.59877602756023L131.41679687500002,159.92604859918356L131.65748697916666,154.6985429674387L131.89817708333334,160.98370414227247L132.1388671875,165.3332685828209L132.37955729166666,156.84472605586052L132.62024739583333,156.82699014991522L132.8609375,156.39267475157976L133.10162760416665,157.22838024795055L133.34231770833333,155.06046807020903L133.5830078125,147.68650241196156L133.82369791666667,150.65959359705448L134.06438802083335,152.33735570311546L134.305078125,152.88574321568012L134.54576822916667,156.5514908283949L134.78645833333334,148.09009087085724L135.02714843750002,143.65583480894566L135.26783854166666,135.75058981776237L135.50852864583334,147.0188706368208L135.74921874999998,150.60353869199753L135.98990885416666,153.53911663591862L136.23059895833333,147.94241957366467L136.4712890625,153.02598202228546L136.71197916666665,156.5903571099043L136.95266927083333,153.22818902134895L137.193359375,148.09365677833557L137.43404947916667,152.49394968152046L137.67473958333335,154.6526846587658L137.9154296875,153.44056096673012L138.15611979166667,152.3026118427515L138.39680989583334,156.15309166163206L138.6375,156.18162683397532L138.87819010416666,157.90588288754225L139.11888020833334,148.7918387800455L139.35957031249998,155.91985968500376L139.60026041666666,157.17997147142887L139.84095052083333,153.19964066147804L140.081640625,152.26584501564503L140.32233072916668,154.54157182574272L140.56302083333335,156.39023769646883L140.8037109375,154.82747215032578L141.04440104166667,159.4441473260522L141.28509114583335,154.74648490548134L141.52578125,160.09840562939644L141.76647135416667,156.62203355133533L142.00716145833331,160.29505936056376L142.2478515625,154.01866525411606L142.48854166666666,149.79466849565506L142.72923177083334,149.534502312541L142.969921875,154.56650944054127L143.21061197916666,159.50189419090748L143.45130208333333,155.34269962459803L143.6919921875,153.91201244294643L143.93268229166668,159.16965421289206L144.17337239583333,163.7756646350026L144.4140625,161.72752685844898L144.65475260416667,153.88262271881104L144.89544270833335,154.26509794592857L145.1361328125,159.4095195159316L145.37682291666667,153.51062102615833L145.61751302083334,155.22093522548676L145.858203125,156.61264403164387L146.09889322916666,156.04916075617075L146.33958333333334,159.55998656898737L146.58027343749998,156.65173845738173L146.82096354166666,154.4814419746399L147.06165364583333,158.22437354922295L147.30234375,156.83876529335976L147.54303385416668,159.99014921486378L147.78372395833335,147.94986525177956L148.0244140625,146.05953866243362L148.26510416666665,151.0385213792324L148.50579427083332,158.28874055296183L148.746484375,156.8750573694706L148.98717447916667,152.72579169273376L149.22786458333334,152.65757788717747L149.4685546875,158.00275582820177L149.70924479166666,142.88606299459934L149.94993489583334,152.79124139249325L150.190625,160.8197831735015L150.43131510416669,159.64314448088408L150.67200520833333,158.69701849669218L150.91269531249998,163.58153104037046L151.15338541666665,165.29257319122553L151.39407552083333,161.59393720328808L151.634765625,163.76712043583393L151.87545572916667,161.97747138887644L152.11614583333332,159.716380096972L152.3568359375,153.01082955300808L152.59752604166667,162.58342641592026L152.83821614583334,163.25502631813288L153.07890625000002,162.5197385698557L153.3195963541667,151.58679020404816L153.5602864583333,153.34893929958344L153.80097656249998,154.14436085522175L154.04166666666666,157.89990498125553L154.28235677083333,159.17486988008022L154.523046875,156.34677028656006L154.76373697916668,155.6030834019184L155.00442708333333,155.53691234439611L155.2451171875,161.5133086591959L155.48580729166667,156.30937177687883L155.72649739583335,157.69663374871016L155.96718750000002,153.76684150099754L156.20787760416667,152.27622359991074L156.44856770833331,156.28529530763626L156.6892578125,155.97262693941593L156.92994791666666,159.61206543445587L157.17063802083334,156.71481835842133L157.411328125,157.26964138448238L157.65201822916666,160.30736200511456L157.89270833333333,161.7883938923478L158.1333984375,161.5449864193797L158.37408854166668,159.87664943933487L158.61477864583335,160.13285936415195L158.85546875,157.50415782630444L159.09615885416665,156.20651961117983L159.33684895833332,150.7859749495983L159.5775390625,158.02334683388472L159.81822916666667,154.96605064719915L160.05891927083334,150.7712655812502L160.29960937500002,148.759827375412L160.54029947916666,159.4556244313717L160.78098958333334,155.3266543596983L161.0216796875,156.05194464325905L161.26236979166666,159.39796328544617L161.50305989583333,161.7475125566125L161.74375,157.5882124900818L161.98444010416665,159.83594877272844L162.22513020833333,147.88992002606392L162.4658203125,147.90586902201176L162.70651041666667,153.9339855015278L162.94720052083335,155.91433411091566L163.187890625,159.41700871288776L163.42858072916667,160.424550332129L163.66927083333334,157.83033813536167L163.9099609375,155.3474233970046L164.15065104166666,156.43151729553938L164.39134114583334,162.40392833948135L164.63203124999998,156.14183874428272L164.87272135416666,161.31948365271091L165.11341145833333,159.63202607631683L165.3541015625,161.4563411772251L165.59479166666668,159.2707036435604L165.83548177083335,155.83076606690884L166.076171875,153.66386537253857L166.31686197916665,148.67252330482006L166.55755208333332,154.97876738011837L166.7982421875,156.35159824043512L167.03893229166667,151.9448131173849L167.27962239583334,155.32183695584536L167.5203125,160.77801563590765L167.76100260416666,157.60355090349913L168.00169270833334,160.9612325951457L168.2423828125,157.2549386098981L168.48307291666669,155.06578264385462L168.72376302083333,151.80790020525455L168.96445312499998,154.08463190495968L169.20514322916665,158.31839798390865L169.44583333333333,160.46382806450129L169.6865234375,162.24647321552038L169.92721354166667,160.58252768218517L170.16790364583332,156.63202705979347L170.40859375,147.06145843863487L170.64928385416667,149.52613350749016L170.88997395833334,154.35529008507729L171.13066406250002,150.20588725805283L171.3713541666667,159.0030640885234L171.6120442708333,157.86408633738756L171.85273437499998,155.8158878982067L172.09342447916666,154.34170165657997L172.33411458333333,150.7634321898222L172.5748046875,142.29673348367214L172.81549479166668,149.5480722784996L173.05618489583333,157.91606234014034L173.296875,154.59699109196663L173.53756510416667,159.70499926060438L173.77825520833335,159.9652933627367L174.01894531250002,157.13869187235832L174.25963541666667,154.27199238538742L174.50032552083331,152.6760114133358L174.741015625,155.84647504985332L174.98170572916666,159.2482914403081L175.22239583333334,154.33364143967628L175.4630859375,157.12133972346783L175.70377604166666,148.94655749201775L175.94446614583333,153.5670821070671L176.18515625,160.63768056035042L176.42584635416668,158.4808340370655L176.66653645833335,158.06592408567667L176.9072265625,160.96194472163916L177.14791666666665,159.51623035222292L177.38860677083332,158.93511798977852L177.629296875,156.73056558519602L177.86998697916667,157.02335639297962L178.11067708333334,163.77211455255747L178.35136718750002,158.8132823780179L178.59205729166666,154.47233203053474L178.83274739583334,157.97705729305744L179.0734375,159.00476923584938L179.31412760416666,161.6269350349903L179.55481770833333,159.09778482466936L179.7955078125,153.57831260561943L180.03619791666665,145.70189291238785L180.27688802083333,115.44387558102608L180.517578125,142.7863573729992L180.75826822916667,141.69378389418125L180.99895833333335,147.95394019782543L181.2396484375,152.60269667208195L181.48033854166667,151.69792149960995L181.72102864583334,157.20736196637154L181.96171875,154.23758612573147L182.20240885416666,157.29633689671755L182.44309895833334,156.1957612261176L182.68378906249998,160.41383282840252L182.92447916666666,163.14906980842352L183.16516927083333,161.03897966444492L183.405859375,161.35552912205458L183.64654947916668,160.69080387800932L183.88723958333335,161.67880421876907L184.1279296875,160.83139347285032L184.36861979166665,154.57091934978962L184.60930989583332,157.19899975508451L184.85,155.77888633310795L185.09069010416667,158.89346782118082L185.33138020833334,164.04479701817036L185.5720703125,162.10620803385973L185.81276041666666,160.97044276446104L186.05345052083334,155.12268682569265L186.294140625,151.19430300593376L186.53483072916669,152.18833136558533L186.77552083333333,160.6250904276967L187.01621093749998,163.06364496052265L187.25690104166665,156.4268357232213L187.49759114583333,151.47952549159527L187.73828125,155.64053070545197L187.97897135416667,146.47021409869194L188.21966145833332,152.24925510585308L188.4603515625,153.9492091834545L188.70104166666667,156.51132030040026L188.94173177083334,153.5723544806242L189.18242187500002,156.30357981473207L189.4231119791667,158.10006791353226L189.6638020833333,155.51691609621048L189.90449218749998,155.6440425440669L190.14518229166666,154.27173390984535L190.38587239583333,157.85720244795084L190.6265625,158.018927693367L190.86725260416668,143.28936132788658L191.10794270833333,151.69925871491432L191.3486328125,155.06412233412266L191.58932291666667,151.70722398161888L191.83001302083335,154.73417830467224L192.07070312500002,160.52877268195152L192.31139322916667,161.0172901377082L192.55208333333331,154.75723274052143L192.7927734375,149.00253327190876L193.03346354166666,159.0607291907072L193.27415364583334,159.2144786193967L193.51484375,159.76263139396906L193.75553385416666,156.65450915694237L193.99622395833333,155.49571055173874L194.2369140625,159.82831846922636L194.47760416666668,160.82495795935392L194.71829427083335,161.93453939259052L194.958984375,157.24448749423027L195.19967447916665,154.97040780633688L195.44036458333332,158.55670715868473L195.6810546875,160.84620174765587L195.92174479166667,155.92236399650574L196.16243489583334,157.0559111237526L196.40312500000002,155.63315623998642L196.64381510416666,153.25795590877533L196.88450520833334,152.4330417662859L197.1251953125,159.81076718866825L197.36588541666666,154.4844909310341L197.60657552083333,157.3624406978488L197.847265625,152.84787127375603L198.08795572916665,157.23701544106007L198.32864583333333,155.89894954115152L198.5693359375,159.68085157871246L198.81002604166667,158.2026075348258L199.05071614583335,159.89293076097965L199.29140625,161.8405729830265L199.53209635416667,160.53139172494411L199.77278645833334,156.91327218711376L200.0134765625,161.43012569099665L200.25416666666666,160.23789274692535L200.49485677083334,159.54466793686152L200.73554687499998,147.97444680333138L200.97623697916666,154.73477701842785L201.21692708333333,152.74820521473885L201.4576171875,157.4456025660038L201.69830729166668,154.1593840867281L201.93899739583335,155.46628917753696L202.1796875,157.30441953241825L202.42037760416665,149.52823823690414L202.66106770833332,149.29076251387596L202.9017578125,155.69169963151217L203.14244791666667,158.0926090478897L203.38313802083334,160.73490956425667L203.623828125,161.26260452717543L203.86451822916666,153.6063440144062L204.10520833333334,157.05458841472864L204.3458984375,159.07379539310932L204.58658854166669,159.32579981535673L204.82727864583333,156.46765507757664L205.06796874999998,163.26204735785723L205.30865885416665,159.5039896890521L205.54934895833333,161.09823781996965L205.7900390625,157.7653104364872L206.03072916666667,156.29636096209288L206.27141927083332,142.15378595888615L206.512109375,155.5718658864498L206.75279947916667,160.4506418555975L206.99348958333334,149.78380988538265L207.23417968750002,152.1730654835701L207.4748697916667,147.9471565335989L207.7155598958333,153.41043537855148L207.95624999999998,149.76062093675137L208.19694010416666,155.21060939133167L208.43763020833333,156.54691475629807L208.6783203125,153.16721780598164L208.91901041666668,153.20901699364185L209.15970052083333,154.72055822610855L209.400390625,156.99795985221863L209.64108072916667,153.3509490787983L209.88177083333335,150.63556855916977L210.12246093750002,154.79387560486794L210.36315104166667,157.21560680866241L210.60384114583331,151.2898123562336L210.84453125,157.3183402866125L211.08522135416666,150.49940997362137L211.32591145833334,150.63697434961796L211.5666015625,138.8728952407837L211.80729166666666,140.16877292096615L212.04798177083333,145.5229038745165L212.288671875,142.83158004283905L212.52936197916668,153.0154214501381L212.77005208333335,158.2408592775464L213.0107421875,152.6470436900854L213.25143229166665,156.49928668141365L213.49212239583332,153.90795595943928L213.7328125,155.64823090285063L213.97350260416667,158.72157631069422L214.21419270833334,160.70198030769825L214.45488281250002,155.9016608968377L214.69557291666666,155.16447546333075L214.93626302083334,160.75686547905207L215.176953125,159.79537338763475L215.41764322916666,158.58773081749678L215.65833333333333,154.5433231294155L215.8990234375,152.84366181492805L216.13971354166665,153.6675077676773L216.38040364583333,151.201566696167L216.62109375,151.25087749958038L216.86178385416667,156.60890009254217L217.10247395833335,159.69785557687283L217.3431640625,152.40341994166374L217.58385416666667,159.4131408110261L217.82454427083334,157.08579406142235L218.065234375,162.91312647610903L218.30592447916666,160.13415833562613L218.54661458333334,161.22783429175615L218.78730468749998,159.43128289282322L219.02799479166666,157.52104841172695L219.26868489583333,153.50899896025658L219.509375,157.502500154078L219.75006510416668,155.35996737331152L219.99075520833335,162.6418814510107L220.2314453125,159.46196895092726L220.47213541666665,159.7993494272232L220.71282552083332,160.98637461662292L220.953515625,160.44494616240263L221.19420572916667,163.45777532458305L221.43489583333334,156.41172809153795L221.6755859375,158.39749809354544L221.91627604166666,160.29041998833418L222.15696614583334,162.1363323032856L222.39765625,157.26845714449883L222.63834635416669,147.36975646018982L222.87903645833333,151.99237789213657L223.11972656249998,145.33842355012894L223.36041666666665,153.9738804101944L223.60110677083333,152.56433415412903L223.841796875,156.19180364906788L224.08248697916667,153.40950433909893L224.32317708333332,154.71019810438156L224.5638671875,159.4037143662572L224.80455729166667,151.90914085507393L225.04524739583334,159.86625634878874L225.28593750000002,155.38738688081503L225.5266276041667,159.79711546003819L225.7673177083333,157.33397146314383L226.00800781249998,157.0343125909567L226.24869791666666,150.07415968179703L226.48938802083333,155.58259657770395L226.730078125,155.5266761854291L226.97076822916668,154.19047236442566L227.21145833333333,147.51539687812328L227.4521484375,142.30488865077496L227.69283854166667,143.75379967689514L227.93352864583335,148.98994973301888L228.17421875000002,152.14487054944038L228.41490885416667,155.6620474755764L228.65559895833331,149.10504783689976L228.8962890625,149.56964179873466L229.13697916666666,155.29950387775898L229.37766927083334,159.90811619907618L229.618359375,155.68162436038256L229.85904947916666,158.73752662539482L230.09973958333333,146.80013439059258L230.3404296875,152.0453469157219L230.58111979166668,154.42970202863216L230.82180989583335,152.52209977805614L231.0625,149.7958606481552L231.30319010416665,154.68431890010834L231.54388020833332,131.8466068804264L231.7845703125,146.15939462184906L232.02526041666667,149.61003255844116L232.26595052083334,153.4145129621029L232.50664062500002,155.03819697350264L232.74733072916666,154.00494231283665L232.98802083333334,154.29164707660675L233.2287109375,159.99443648010492L233.46940104166666,156.8728497773409L233.71009114583333,159.61487437784672L233.95078125,162.0053379535675L234.19147135416665,157.2077747359872L234.43216145833333,158.27015800774097L234.6728515625,158.19839807599783L234.91354166666667,160.85935630649328L235.15423177083335,163.0519159734249L235.394921875,149.63423167169094L235.63561197916667,156.94417979568243L235.87630208333334,163.1805563494563L236.1169921875,163.59277472645044L236.35768229166666,161.94395660609007L236.59837239583334,162.83969436585903L236.83906249999998,162.0548597574234L237.07975260416666,157.0196019038558L237.32044270833333,155.1836685910821L237.5611328125,161.6129509806633L237.80182291666668,158.2251397445798L238.04251302083335,153.39703157544136L238.283203125,159.6743949651718L238.52389322916665,154.08237947523594L238.76458333333332,157.5809395685792L239.0052734375,159.30718034505844L239.24596354166667,154.3832502812147L239.48665364583334,153.64818012714386L239.72734375,155.06993539631367L239.96803385416666,155.23698972165585L240.20872395833334,147.05600935220718L240.4494140625,148.0062313824892L240.69010416666669,158.47984101623297L240.93079427083333,159.20458533614874L241.17148437499998,154.93845442682505L241.41217447916665,154.8283504396677L241.65286458333333,155.43711045384407L241.8935546875,159.59360553324223L242.13424479166667,157.50892907381058L242.37493489583332,159.14432624727488L242.615625,157.95550491660833L242.85631510416667,162.38144624233246L243.09700520833334,161.86145938932896L243.33769531250002,160.34811805933714L243.5783854166667,156.17436446249485L243.8190755208333,160.0772686600685L244.05976562499998,157.06779440492392L244.30045572916666,158.7785596176982L244.54114583333333,158.4273810312152L244.7818359375,158.16249239444733L245.02252604166668,158.77732130885124L245.26321614583333,155.6111093312502L245.50390625,156.2161926627159L245.74459635416667,156.00608105957508L245.98528645833335,137.99254600703716L246.22597656250002,151.2925500869751L246.46666666666667,149.3558798879385L246.70735677083331,150.50847244262695L246.948046875,143.89186517894268L247.18873697916666,150.58880822360516L247.42942708333334,149.70321035385132L247.6701171875,153.45692405104637L247.91080729166666,155.04670029133558L248.15149739583333,155.65989527106285L248.3921875,154.61899316310883L248.63287760416668,154.28223909437656L248.87356770833335,154.93956745415926L249.1142578125,162.13173908740282L249.35494791666665,164.8006256595254L249.59563802083332,157.8996069431305L249.836328125,160.71252505481243L250.07701822916667,160.21205442398787L250.31770833333334,153.08974899351597L250.55839843750002,150.14192247390747L250.79908854166666,155.47918262332678L251.03977864583334,151.7481554299593L251.28046875,154.25380150973797L251.52115885416666,158.2745230793953L251.76184895833333,159.96691279113293L252.0025390625,157.99894463270903L252.24322916666665,158.55801140516996L252.48391927083333,157.52879608422518L252.724609375,163.24010331183672L252.96529947916667,156.98811800032854L253.20598958333335,157.8065188229084L253.4466796875,157.53596218675375L253.68736979166667,156.21876818686724L253.92805989583334,155.9029321745038L254.16875,147.3292707502842L254.40944010416666,152.90281842648983L254.65013020833334,154.1563272178173L254.89082031249998,154.809254899621L255.13151041666666,155.3517278060317L255.37220052083333,158.0375774949789L255.612890625,156.13593600690365L255.85358072916668,158.94525260478258L256.0942708333333,158.54576414823532L256.3349609375,157.153510697186L256.5756510416667,156.19280326366425L256.81634114583335,158.85636207461357L257.05703125,160.64102096110582L257.2977213541667,159.34890304505825L257.53841145833337,160.82670662552118L257.7791015625,158.91660929471254L258.01979166666666,156.5852495804429L258.26048177083334,160.40354391932487L258.501171875,147.86434149742126L258.7418619791667,151.78584538400173L258.9825520833333,156.23385471850634L259.2232421875,149.19123888015747L259.46393229166665,145.13056437671185L259.7046223958333,151.90680930018425L259.9453125,150.88716021180153L260.1860026041667,157.60504109412432L260.4266927083333,154.31004631519318L260.66738281249997,158.25295751541853L260.90807291666664,149.42781257629395L261.1487630208333,156.08698258548975L261.389453125,153.58182048797607L261.63014322916666,152.2973895817995L261.87083333333334,153.3773900717497L262.1115234375,153.80468179285526L262.3522135416667,159.7169669419527L262.59290364583336,158.4497892782092L262.83359375000003,161.29196655750275L263.0742838541667,155.9142747670412L263.3149739583333,159.41820086538792L263.5556640625,160.68561986088753L263.7963541666667,160.37684181332588L264.03704427083335,151.79415880143642L264.277734375,148.67732356488705L264.5184244791667,149.75567297637463" style="fill: none;" fill="none"></path></g></g></g></g></g></g><g transform="translate(41, 177)" clip-path="url(#clip_1)"><clipPath id="clip_1"><rect width="288" height="23"></rect></clipPath><g><g><line x1="0" y1="0" x2="0" y2="5" style="visibility: inherit;" fill="rgb(0, 0, 0)" stroke="rgb(204, 204, 204)" stroke-width="1px"></line><line x1="24.069010416666664" y1="0" x2="24.069010416666664" y2="5" style="visibility: inherit;" fill="rgb(0, 0, 0)" stroke="rgb(204, 204, 204)" stroke-width="1px"></line><line x1="48.13802083333333" y1="0" x2="48.13802083333333" y2="5" style="visibility: inherit;" fill="rgb(0, 0, 0)" stroke="rgb(204, 204, 204)" stroke-width="1px"></line><line x1="72.20703125" y1="0" x2="72.20703125" y2="5" style="visibility: inherit;" fill="rgb(0, 0, 0)" stroke="rgb(204, 204, 204)" stroke-width="1px"></line><line x1="96.27604166666666" y1="0" x2="96.27604166666666" y2="5" style="visibility: inherit;" fill="rgb(0, 0, 0)" stroke="rgb(204, 204, 204)" stroke-width="1px"></line><line x1="120.34505208333334" y1="0" x2="120.34505208333334" y2="5" style="visibility: inherit;" fill="rgb(0, 0, 0)" stroke="rgb(204, 204, 204)" stroke-width="1px"></line><line x1="144.4140625" y1="0" x2="144.4140625" y2="5" style="visibility: inherit;" fill="rgb(0, 0, 0)" stroke="rgb(204, 204, 204)" stroke-width="1px"></line><line x1="168.48307291666669" y1="0" x2="168.48307291666669" y2="5" style="visibility: inherit;" fill="rgb(0, 0, 0)" stroke="rgb(204, 204, 204)" stroke-width="1px"></line><line x1="192.55208333333331" y1="0" x2="192.55208333333331" y2="5" style="visibility: inherit;" fill="rgb(0, 0, 0)" stroke="rgb(204, 204, 204)" stroke-width="1px"></line><line x1="216.62109375" y1="0" x2="216.62109375" y2="5" style="visibility: inherit;" fill="rgb(0, 0, 0)" stroke="rgb(204, 204, 204)" stroke-width="1px"></line><line x1="240.69010416666669" y1="0" x2="240.69010416666669" y2="5" style="visibility: inherit;" fill="rgb(0, 0, 0)" stroke="rgb(204, 204, 204)" stroke-width="1px"></line><line x1="264.7591145833333" y1="0" x2="264.7591145833333" y2="5" style="visibility: inherit;" fill="rgb(0, 0, 0)" stroke="rgb(204, 204, 204)" stroke-width="1px"></line><line x1="288.828125" y1="0" x2="288.828125" y2="5" style="visibility: inherit;" fill="rgb(0, 0, 0)" stroke="rgb(204, 204, 204)" stroke-width="1px"></line></g><g transform="translate(0, 8)"><text x="0" y="0" dx="0em" dy="0.95em" style="text-anchor: middle; visibility: hidden; font-family: Roboto, sans-serif; font-size: 12px; font-weight: 200;" fill="rgb(33, 33, 33)" stroke="none" stroke-width="1px">-100</text><text x="24.069010416666664" y="0" dx="0em" dy="0.95em" style="text-anchor: middle; visibility: inherit; font-family: Roboto, sans-serif; font-size: 12px; font-weight: 200;" fill="rgb(33, 33, 33)" stroke="none" stroke-width="1px">0</text><text x="48.13802083333333" y="0" dx="0em" dy="0.95em" style="text-anchor: middle; visibility: hidden; font-family: Roboto, sans-serif; font-size: 12px; font-weight: 200;" fill="rgb(33, 33, 33)" stroke="none" stroke-width="1px">100</text><text x="72.20703125" y="0" dx="0em" dy="0.95em" style="text-anchor: middle; visibility: inherit; font-family: Roboto, sans-serif; font-size: 12px; font-weight: 200;" fill="rgb(33, 33, 33)" stroke="none" stroke-width="1px">200</text><text x="96.27604166666666" y="0" dx="0em" dy="0.95em" style="text-anchor: middle; visibility: hidden; font-family: Roboto, sans-serif; font-size: 12px; font-weight: 200;" fill="rgb(33, 33, 33)" stroke="none" stroke-width="1px">300</text><text x="120.34505208333334" y="0" dx="0em" dy="0.95em" style="text-anchor: middle; visibility: inherit; font-family: Roboto, sans-serif; font-size: 12px; font-weight: 200;" fill="rgb(33, 33, 33)" stroke="none" stroke-width="1px">400</text><text x="144.4140625" y="0" dx="0em" dy="0.95em" style="text-anchor: middle; visibility: hidden; font-family: Roboto, sans-serif; font-size: 12px; font-weight: 200;" fill="rgb(33, 33, 33)" stroke="none" stroke-width="1px">500</text><text x="168.48307291666669" y="0" dx="0em" dy="0.95em" style="text-anchor: middle; visibility: inherit; font-family: Roboto, sans-serif; font-size: 12px; font-weight: 200;" fill="rgb(33, 33, 33)" stroke="none" stroke-width="1px">600</text><text x="192.55208333333331" y="0" dx="0em" dy="0.95em" style="text-anchor: middle; visibility: hidden; font-family: Roboto, sans-serif; font-size: 12px; font-weight: 200;" fill="rgb(33, 33, 33)" stroke="none" stroke-width="1px">700</text><text x="216.62109375" y="0" dx="0em" dy="0.95em" style="text-anchor: middle; visibility: inherit; font-family: Roboto, sans-serif; font-size: 12px; font-weight: 200;" fill="rgb(33, 33, 33)" stroke="none" stroke-width="1px">800</text><text x="240.69010416666669" y="0" dx="0em" dy="0.95em" style="text-anchor: middle; visibility: hidden; font-family: Roboto, sans-serif; font-size: 12px; font-weight: 200;" fill="rgb(33, 33, 33)" stroke="none" stroke-width="1px">900</text><text x="264.7591145833333" y="0" dx="0em" dy="0.95em" style="text-anchor: middle; visibility: inherit; font-family: Roboto, sans-serif; font-size: 12px; font-weight: 200;" fill="rgb(33, 33, 33)" stroke="none" stroke-width="1px">1k</text><text x="288.828125" y="0" dx="0em" dy="0.95em" style="text-anchor: middle; visibility: hidden; font-family: Roboto, sans-serif; font-size: 12px; font-weight: 200;" fill="rgb(33, 33, 33)" stroke="none" stroke-width="1px">1.1k</text></g><line x1="0" y1="0" x2="288.828125" y2="0" fill="rgb(0, 0, 0)" stroke="rgb(204, 204, 204)" stroke-width="1px"></line></g></g></g></g></svg>